<?xml version="1.0" standalone="no"?>
<!DOCTYPE svg PUBLIC "-//W3C//DTD SVG 20010904//EN"
 "http://www.w3.org/TR/2001/REC-SVG-20010904/DTD/svg10.dtd">
<svg version="1.0" xmlns="http://www.w3.org/2000/svg"
 width="16.000000pt" height="16.000000pt" viewBox="0 0 16.000000 16.000000"
 preserveAspectRatio="xMidYMid meet">
<metadata>
Created by potrace 1.11, written by Peter Selinger 2001-2013
</metadata>
<g transform="translate(0.000000,16.000000) scale(0.006154,-0.006154)"
fill="#000000" stroke="none">
<path d="M639 2409 c-10 -15 -19 -32 -19 -37 0 -6 -3 -12 -7 -14 -5 -1 -16
-19 -27 -38 -10 -19 -142 -250 -293 -513 -151 -263 -276 -484 -279 -492 -3 -7
38 -88 90 -179 53 -91 96 -170 96 -176 0 -5 5 -10 10 -10 6 0 10 -4 10 -9 0
-7 290 -516 407 -716 l29 -50 644 0 643 0 38 64 c22 34 39 65 39 67 0 3 16 30
35 60 19 30 35 56 35 58 0 2 23 43 51 92 28 49 121 211 207 359 85 149 166
288 179 310 13 22 33 59 45 81 l21 42 -163 283 c-90 156 -173 302 -185 324
-13 22 -80 139 -149 259 -69 121 -126 223 -126 227 0 3 -7 13 -16 20 -14 11
-131 14 -656 14 l-640 0 -19 -26z m691 -528 c5 -11 8 -26 5 -33 -3 -8 9 -22
31 -35 l37 -21 33 20 c31 18 34 19 34 3 0 -15 3 -15 15 -5 27 22 25 5 -2 -35
-57 -84 -93 -165 -93 -211 0 -32 4 -44 15 -44 21 0 19 -28 -2 -33 -14 -3 -11
-6 10 -11 15 -5 27 -14 27 -22 0 -7 -12 -16 -27 -20 -16 -3 -34 -7 -40 -9 -9
-3 -11 -34 -8 -123 3 -65 7 -127 9 -138 2 -10 7 -43 11 -72 6 -43 12 -56 31
-64 19 -9 24 -18 23 -42 -3 -36 9 -76 21 -76 5 0 25 -15 45 -34 l36 -35 -16
-32 c-16 -29 -16 -33 -1 -41 22 -12 21 -58 -1 -59 -71 -4 -455 1 -462 6 -14 8
-4 47 14 57 13 8 13 12 0 38 -19 36 -14 48 35 83 41 29 54 57 48 98 -2 18 4
27 21 34 13 6 26 20 27 30 9 52 18 190 18 274 1 93 1 94 -24 98 -57 8 -67 26
-25 45 22 10 24 13 10 21 -15 8 -15 10 1 28 37 41 21 102 -60 227 -47 75 -49
79 -14 61 13 -7 18 -7 14 -1 -12 20 12 22 36 2 24 -19 26 -19 59 -1 25 14 34
25 35 46 2 44 54 63 74 26z"/>
</g>
</svg>
