<?xml version="1.0" standalone="no"?>
<!DOCTYPE svg PUBLIC "-//W3C//DTD SVG 1.1//EN" "http://www.w3.org/Graphics/SVG/1.1/DTD/svg11.dtd" >
<svg>
<metadata>
Created by FontForge 20120731 at Wed Aug 21 22:09:35 2019
 By www
Copyright (c) 2010 by Colophon Foundry. All rights reserved.
</metadata>
<defs>
<font id="ApercuPro-Regular" horiz-adv-x="592" >
  <font-face 
    font-family="Apercu Pro"
    font-weight="400"
    font-stretch="normal"
    units-per-em="1000"
    panose-1="2 0 5 6 4 0 0 2 0 4"
    ascent="800"
    descent="-200"
    x-height="504"
    cap-height="700"
    bbox="-85 -235 1200 1102"
    underline-thickness="50"
    underline-position="-50"
    unicode-range="U+000D-FB02"
  />
<missing-glyph horiz-adv-x="621" 
d="M97 700h427v-700h-427v700zM181 624v-548h259v548h-259z" />
    <glyph glyph-name="fi" unicode="fi" horiz-adv-x="544" 
d="M47 504h72v16q0 47 15.5 82t42.5 58.5t62.5 35.5t74.5 12t71.5 -8t57.5 -25l-18 -72q-25 15 -54 22t-58 7q-51 0 -80.5 -27t-29.5 -84v-17h257v-504h-84v428h-173v-428h-84v428h-72v76z" />
    <glyph glyph-name="fl" unicode="fl" horiz-adv-x="589" 
d="M47 504h72v26q0 45 15 78.5t40 55.5t58.5 33t71.5 11h201v-708h-84v632h-118q-44 0 -72 -25t-28 -76v-27h116v-76h-116v-428h-84v428h-72v76z" />
    <glyph glyph-name=".notdef" horiz-adv-x="621" 
d="M97 700h427v-700h-427v700zM181 624v-548h259v548h-259z" />
    <glyph glyph-name=".null" horiz-adv-x="0" 
 />
    <glyph glyph-name="nonmarkingreturn" unicode="&#xd;" horiz-adv-x="268" 
 />
    <glyph glyph-name="NULL" horiz-adv-x="0" 
 />
    <glyph glyph-name="NULL" horiz-adv-x="0" 
 />
    <glyph glyph-name="space" unicode=" " horiz-adv-x="268" 
 />
    <glyph glyph-name="exclam" unicode="!" horiz-adv-x="345" 
d="M232 700l-24 -500h-66l-24 500h114zM105 65q0 30 20 50.5t50 20.5t50 -20.5t20 -50.5q0 -29 -20 -48.5t-50 -19.5t-50 19.5t-20 48.5z" />
    <glyph glyph-name="quotedbl" unicode="&#x22;" horiz-adv-x="441" 
d="M88 708h112l-25 -232h-62zM241 708h112l-25 -232h-62z" />
    <glyph glyph-name="numbersign" unicode="#" horiz-adv-x="722" 
d="M112 492h134l43 208h73l-43 -208h142l42 208h73l-42 -208h116v-68h-130l-30 -148h120v-68h-134l-43 -208h-73l43 208h-142l-42 -208h-73l42 208h-116v68h130l30 148h-120v68zM275 276h142l30 148h-142z" />
    <glyph glyph-name="dollar" unicode="$" horiz-adv-x="523" 
d="M369 550q-26 46 -52.5 60.5t-58.5 14.5q-38 0 -61 -27t-23 -61q0 -26 10.5 -45t29 -34.5t43 -28.5t52.5 -27q30 -15 59.5 -32.5t53.5 -40.5t39 -54.5t15 -73.5q0 -43 -14 -79t-40 -64q-47 -51 -116 -62v-86h-80v85q-72 12 -121.5 63t-64.5 123l76 46q9 -31 20.5 -58.5
t29 -48t42 -32.5t58.5 -12q27 0 52.5 10t42.5 30q27 33 27 83q0 25 -11 45t-29.5 36.5t-42.5 29.5t-49 25q-34 16 -65 33.5t-54 40t-37 51.5t-14 70q0 34 11 63.5t30 52.5t44.5 38t54.5 21v85h80v-86q51 -10 82 -38.5t52 -69.5z" />
    <glyph glyph-name="percent" unicode="%" horiz-adv-x="842" 
d="M58 548q0 33 12 62.5t33.5 51t51 34t63.5 12.5t63.5 -12.5t51 -34t33.5 -51t12 -62.5t-12 -62.5t-33.5 -51t-51 -34t-63.5 -12.5t-63.5 12.5t-51 34t-33.5 51t-12 62.5zM131 548q0 -38 23 -64t64 -26t64 26t23 64t-23 64t-64 26t-64 -26t-23 -64zM464 152q0 33 12 62.5
t33.5 51t51 34t63.5 12.5t63.5 -12.5t51 -34t33.5 -51t12 -62.5t-12 -62.5t-33.5 -51t-51 -34t-63.5 -12.5t-63.5 12.5t-51 34t-33.5 51t-12 62.5zM537 152q0 -38 23 -64t64 -26t64 26t23 64t-23 64t-64 26t-64 -26t-23 -64zM714 690l-538 -719l-50 40l538 718z" />
    <glyph glyph-name="ampersand" unicode="&#x26;" horiz-adv-x="677" 
d="M286 -8q-47 0 -86 14t-67 41t-43 65.5t-15 87.5q0 39 11.5 72.5t30.5 60.5t43.5 47t49.5 33q-9 13 -20 29t-20 34.5t-15 39t-6 43.5q0 33 12 60t32.5 47t49 31t61.5 11q38 0 67 -11.5t49 -30.5t30 -44.5t10 -53.5q0 -41 -25 -85q-15 -26 -45.5 -49.5t-65.5 -41.5
l146 -185q12 25 23.5 54.5t23.5 64.5l56 -61q-11 -32 -24 -63t-28 -60l112 -142h-101l-59 74q-33 -38 -78.5 -60t-108.5 -22zM286 70q86 0 139 65l-172 221q-42 -23 -69 -62t-27 -96q0 -32 10.5 -55.5t28.5 -40t41.5 -24.5t48.5 -8zM304 636q-35 0 -55 -23.5t-20 -57.5
q0 -26 14.5 -54.5t34.5 -54.5q45 23 74 49.5t29 67.5q0 31 -21 52t-56 21z" />
    <glyph glyph-name="quotesingle" unicode="'" horiz-adv-x="288" 
d="M88 708h112l-25 -232h-62z" />
    <glyph glyph-name="parenleft" unicode="(" horiz-adv-x="292" 
d="M262 750q-51 -81 -78 -176.5t-27 -223.5t27 -223.5t78 -176.5h-84q-23 36 -42.5 77t-34 89.5t-22.5 106t-8 127.5t8 127.5t22.5 106t34 89.5t42.5 77h84z" />
    <glyph glyph-name="parenright" unicode=")" horiz-adv-x="292" 
d="M114 750q23 -36 42.5 -77t34 -89.5t22.5 -106t8 -127.5t-8 -127.5t-22.5 -106t-34 -89.5t-42.5 -77h-84q51 81 78 176.5t27 223.5t-27 223.5t-78 176.5h84z" />
    <glyph glyph-name="asterisk" unicode="*" horiz-adv-x="488" 
d="M278 570l131 43l21 -65l-130 -43l80 -111l-55 -39l-81 111l-81 -111l-55 39l80 111l-130 43l21 65l131 -43v138h68v-138z" />
    <glyph glyph-name="plus" unicode="+" horiz-adv-x="568" 
d="M322 539v-183h183v-74h-183v-183h-74v183h-183v74h183v183h74z" />
    <glyph glyph-name="comma" unicode="," horiz-adv-x="318" 
d="M134 110h114l-116 -217h-64z" />
    <glyph glyph-name="hyphen" unicode="-" horiz-adv-x="481" 
d="M71 354h339v-74h-339v74z" />
    <glyph glyph-name="period" unicode="." horiz-adv-x="306" 
d="M90 59q0 26 18 44.5t45 18.5q26 0 44.5 -18.5t18.5 -44.5q0 -27 -18.5 -45t-44.5 -18q-27 0 -45 18t-18 45z" />
    <glyph glyph-name="slash" unicode="/" horiz-adv-x="543" 
d="M539 750l-436 -800h-84l436 800h84z" />
    <glyph glyph-name="zero" unicode="0" horiz-adv-x="624" 
d="M312 708q61 0 107 -25.5t77 -72t46.5 -112.5t15.5 -148t-15.5 -148t-46.5 -112.5t-77 -72t-107 -25.5t-107 25.5t-77 72t-46.5 112.5t-15.5 148t15.5 148t46.5 112.5t77 72t107 25.5zM312 628q-40 0 -70 -19.5t-49.5 -55.5t-29 -87.5t-9.5 -115.5t9.5 -115.5t29 -87.5
t49.5 -55.5t70 -19.5t70 19.5t49.5 55.5t29 87.5t9.5 115.5t-9.5 115.5t-29 87.5t-49.5 55.5t-70 19.5z" />
    <glyph glyph-name="one" unicode="1" horiz-adv-x="376" 
d="M285 700v-700h-82v574l-129 -75v92l180 109h31z" />
    <glyph glyph-name="two" unicode="2" horiz-adv-x="570" 
d="M72 39l267 342q16 21 27 38.5t18 33t9.5 30t2.5 31.5q0 49 -26 80q-14 16 -34.5 25t-49.5 9q-51 0 -80.5 -33.5t-34.5 -86.5l-84 16q3 39 19 72.5t42.5 58t61.5 39t76 14.5q52 0 89.5 -16.5t62.5 -44.5q44 -50 44 -133q0 -45 -14.5 -81t-41.5 -71l-218 -282h287v-80h-423
v39z" />
    <glyph glyph-name="three" unicode="3" horiz-adv-x="578" 
d="M145 203q9 -63 43.5 -97t95.5 -34t100.5 38t39.5 110t-39.5 110t-100.5 38q-16 0 -31 -2.5t-31 -10.5l-35 47l160 218h-253v80h380v-27l-178 -241q5 2 14 2.5t14 0.5q40 0 74 -15.5t59 -43.5t39 -68t14 -88q0 -50 -16.5 -92t-46.5 -72t-71.5 -47t-91.5 -17
q-44 0 -82.5 14t-68 40t-49 63t-23.5 83z" />
    <glyph glyph-name="four" unicode="4" horiz-adv-x="596" 
d="M368 149h-304v35l296 516h94v-471h87v-80h-87v-149h-86v149zM368 229v339l-190 -339h190z" />
    <glyph glyph-name="five" unicode="5" horiz-adv-x="579" 
d="M163 199q8 -63 41 -95t86 -32q64 0 99 43t35 113t-34.5 113t-99.5 43q-45 0 -80 -22t-61 -56l-53 12l38 382h334v-80h-261l-26 -203q20 20 51 33.5t64 13.5q51 0 90.5 -17.5t67 -49t42 -74.5t14.5 -95t-15.5 -95t-44 -74.5t-69 -49t-91.5 -17.5q-42 0 -78.5 12
t-64.5 35.5t-46 59.5t-23 84z" />
    <glyph glyph-name="six" unicode="6" horiz-adv-x="577" 
d="M297 448q49 0 89.5 -17.5t69.5 -48.5t45.5 -72.5t16.5 -89.5t-16.5 -89.5t-45.5 -72.5t-69.5 -48.5t-89.5 -17.5t-89.5 17.5t-70 48.5t-45.5 72.5t-16 89.5q0 36 9.5 68t26.5 61l207 359h96l-152 -267q8 4 17.5 5.5t16.5 1.5zM297 368q-58 0 -95.5 -39.5t-37.5 -108.5
q0 -32 10 -59.5t27.5 -47t42 -30.5t53.5 -11t53.5 11t42 30.5t27.5 47t10 59.5q0 69 -37.5 108.5t-95.5 39.5z" />
    <glyph glyph-name="seven" unicode="7" horiz-adv-x="482" 
d="M94 0l257 620h-296v80h399v-37l-272 -663h-88z" />
    <glyph glyph-name="eight" unicode="8" horiz-adv-x="584" 
d="M292 708q42 0 77.5 -14.5t61 -40t39.5 -59.5t14 -73q0 -45 -22 -85t-57 -59q46 -21 75 -65.5t29 -110.5q0 -50 -17.5 -88.5t-47.5 -65.5t-69.5 -41t-82.5 -14q-44 0 -83 14t-69 41t-47.5 65.5t-17.5 88.5q0 66 29 110.5t75 65.5q-35 19 -57 59t-22 85q0 39 14 73
t39.5 59.5t61 40t77.5 14.5zM292 330q-56 0 -92.5 -34.5t-36.5 -94.5t36.5 -94.5t92.5 -34.5t92.5 34.5t36.5 94.5t-36.5 94.5t-92.5 34.5zM292 632q-50 0 -79 -31.5t-29 -79.5t29 -79.5t79 -31.5t79 31.5t29 79.5t-29 79.5t-79 31.5z" />
    <glyph glyph-name="nine" unicode="9" horiz-adv-x="577" 
d="M297 252q-49 0 -89.5 17.5t-70 48.5t-45.5 72.5t-16 89.5t16 89.5t45.5 72.5t70 48.5t89.5 17.5t89.5 -17.5t69.5 -48.5t45.5 -72.5t16.5 -89.5q0 -36 -9.5 -68t-26.5 -61l-207 -359h-96l152 267q-8 -4 -17.5 -5.5t-16.5 -1.5zM297 332q58 0 95.5 39.5t37.5 108.5
q0 32 -10 59.5t-27.5 47t-42 30.5t-53.5 11t-53.5 -11t-42 -30.5t-27.5 -47t-10 -59.5q0 -69 37.5 -108.5t95.5 -39.5z" />
    <glyph glyph-name="colon" unicode=":" horiz-adv-x="306" 
d="M90 59q0 26 18 44.5t45 18.5q26 0 44.5 -18.5t18.5 -44.5q0 -27 -18.5 -45t-44.5 -18q-27 0 -45 18t-18 45zM90 403q0 26 18 44.5t45 18.5q26 0 44.5 -18.5t18.5 -44.5q0 -27 -18.5 -45t-44.5 -18q-27 0 -45 18t-18 45z" />
    <glyph glyph-name="semicolon" unicode=";" horiz-adv-x="306" 
d="M88 403q0 26 18 44.5t45 18.5q26 0 44.5 -18.5t18.5 -44.5q0 -27 -18.5 -45t-44.5 -18q-27 0 -45 18t-18 45zM102 110h114l-116 -217h-64z" />
    <glyph glyph-name="less" unicode="&#x3c;" horiz-adv-x="455" 
d="M50 354l349 185v-86l-267 -143l267 -143v-86l-349 185v88z" />
    <glyph glyph-name="equal" unicode="=" horiz-adv-x="599" 
d="M100 430h399v-74h-399v74zM100 264h399v-74h-399v74z" />
    <glyph glyph-name="greater" unicode="&#x3e;" horiz-adv-x="455" 
d="M405 266l-349 -185v86l267 143l-267 143v86l349 -185v-88z" />
    <glyph glyph-name="question" unicode="?" horiz-adv-x="448" 
d="M163 63q0 29 19 48.5t47 19.5q29 0 48.5 -19.5t19.5 -48.5q0 -28 -19.5 -47t-48.5 -19q-28 0 -47 19t-19 47zM363 307q-17 -51 -51.5 -78.5t-82.5 -27.5q-60 0 -96 33.5t-36 91.5q0 45 23 75.5t62 50.5q16 8 27.5 13t22 9t20.5 8.5t22 10.5q26 14 35 31.5t9 39.5
q0 33 -22 52q-12 11 -27 16.5t-38 5.5q-40 0 -67 -26t-38 -67l-78 13q14 68 60.5 109t122.5 41q40 0 71 -12t53 -32q23 -22 34 -48.5t11 -56.5q0 -38 -19 -69t-57 -50l-101 -49q-27 -15 -38 -32t-11 -37q0 -24 14 -37.5t38 -13.5q29 0 45.5 18t26.5 41z" />
    <glyph glyph-name="at" unicode="@" horiz-adv-x="920" 
d="M655 509l-23 -252q-1 -8 -1.5 -14t-0.5 -9q0 -52 47 -52t67 47t20 123q0 150 -73.5 222t-214.5 72q-59 0 -115 -22t-99.5 -65.5t-70 -108.5t-26.5 -152q0 -78 26.5 -138t70 -100.5t99 -61t114.5 -20.5q29 0 56.5 2t56.5 8.5t61 18.5t70 32l28 -67q-39 -18 -70.5 -30.5
t-62 -20.5t-64 -11.5t-75.5 -3.5q-84 0 -156 27.5t-125 79t-83 124.5t-30 164q0 99 33 176.5t88.5 131t127.5 81.5t151 28q84 0 151.5 -24t115.5 -70.5t74 -115t26 -156.5q0 -63 -13.5 -109t-37 -76t-55.5 -44.5t-69 -14.5q-42 0 -70.5 21t-41.5 48q-22 -33 -54.5 -51
t-76.5 -18q-42 0 -74.5 14.5t-54 39.5t-32.5 59.5t-11 73.5q0 45 14.5 85t41.5 70t66 48t88 18q41 0 68 -15t43 -42l10 50h66zM461 442q-30 0 -52.5 -11.5t-37.5 -31.5t-23 -47.5t-8 -59.5q0 -52 24.5 -81t72.5 -29q30 0 53 12t38 33t23 48t8 57q0 57 -26 83.5t-72 26.5z
" />
    <glyph glyph-name="A" unicode="A" 
d="M254 700h84l242 -700h-88l-62 187h-268l-62 -187h-88zM402 271l-106 315l-106 -315h212z" />
    <glyph glyph-name="B" unicode="B" horiz-adv-x="618" 
d="M333 700q91 0 144 -46.5t53 -133.5q0 -47 -23 -83t-56 -54q51 -20 82 -64.5t31 -110.5q0 -98 -57.5 -153t-160.5 -55h-249v700h236zM185 84h148q70 0 105 29.5t35 94.5q0 64 -35 93.5t-105 29.5h-148v-247zM185 616v-201h143q49 0 80 24.5t31 75.5t-31 76t-80 25h-143z
" />
    <glyph glyph-name="C" unicode="C" horiz-adv-x="688" 
d="M645 204q-12 -46 -35.5 -85t-58.5 -67t-80 -44t-100 -16q-61 0 -118 22.5t-101 67t-70.5 111.5t-26.5 157t26.5 157t70.5 111.5t101 67t118 22.5q55 0 100 -16t80 -44t58.5 -67t35.5 -85l-85 -25q-24 74 -72 113.5t-117 39.5q-48 0 -89.5 -17.5t-71.5 -52t-47 -85.5
t-17 -119t17 -119t47 -85.5t71.5 -52t89.5 -17.5q69 0 117 39.5t72 113.5z" />
    <glyph glyph-name="D" unicode="D" horiz-adv-x="666" 
d="M289 700q64 0 122.5 -23t103 -67t70.5 -109.5t26 -150.5t-26 -150.5t-70.5 -109.5t-103 -67t-122.5 -23h-192v700h192zM185 616v-532h89q48 0 92 14t77.5 45.5t53.5 82t20 124.5q0 73 -20 124t-53.5 82.5t-77.5 45.5t-92 14h-89z" />
    <glyph glyph-name="E" unicode="E" horiz-adv-x="566" 
d="M499 700v-84h-314v-201h254v-84h-254v-247h324v-84h-412v700h402z" />
    <glyph glyph-name="F" unicode="F" horiz-adv-x="538" 
d="M504 700v-84h-319v-209h259v-84h-259v-323h-88v700h407z" />
    <glyph glyph-name="G" unicode="G" horiz-adv-x="714" 
d="M413 353h235v-353h-75l-9 96q-25 -44 -75 -74t-122 -30q-60 0 -116 22t-99.5 66t-70 111.5t-26.5 158.5t26.5 158.5t70.5 111.5t101 66t118 22q55 0 100.5 -15.5t80.5 -43t58.5 -66.5t35.5 -87l-85 -25q-24 74 -72 113.5t-118 39.5q-48 0 -89.5 -17.5t-71.5 -52
t-47 -85.5t-17 -119t17 -119t47 -85.5t71.5 -52t89.5 -17.5q45 0 80 14.5t59 40t37.5 61t16.5 77.5h-151v84z" />
    <glyph glyph-name="H" unicode="H" horiz-adv-x="690" 
d="M593 700v-700h-88v330h-320v-330h-88v700h88v-286h320v286h88z" />
    <glyph glyph-name="I" unicode="I" horiz-adv-x="282" 
d="M185 700v-700h-88v700h88z" />
    <glyph glyph-name="J" unicode="J" horiz-adv-x="509" 
d="M339 700h88v-485q0 -54 -15.5 -95.5t-43 -70t-65 -43t-80.5 -14.5q-48 0 -85 15t-63 40.5t-42 58.5t-22 69l89 19q11 -54 41.5 -86t81.5 -32q52 0 84 33t32 110v481z" />
    <glyph glyph-name="K" unicode="K" horiz-adv-x="597" 
d="M470 0l-285 353v-353h-88v700h88v-281l261 281h112l-284 -314l308 -386h-112z" />
    <glyph glyph-name="L" unicode="L" horiz-adv-x="521" 
d="M185 700v-616h318v-84h-406v700h88z" />
    <glyph glyph-name="M" unicode="M" horiz-adv-x="784" 
d="M205 700l187 -493l187 493h108v-700h-88v510l-176 -446h-62l-176 446v-510h-88v700h108z" />
    <glyph glyph-name="N" unicode="N" horiz-adv-x="701" 
d="M604 700v-700h-103l-316 557v-557h-88v700h103l316 -557v557h88z" />
    <glyph glyph-name="O" unicode="O" horiz-adv-x="738" 
d="M369 708q63 0 119.5 -23t100 -68.5t69 -112.5t25.5 -154t-25.5 -154t-69 -112.5t-100 -68.5t-119.5 -23t-119.5 23t-100 68.5t-69 112.5t-25.5 154t25.5 154t69 112.5t100 68.5t119.5 23zM369 624q-47 0 -87.5 -17t-70.5 -51.5t-47.5 -85.5t-17.5 -120t17.5 -120
t47.5 -85.5t70.5 -51.5t87.5 -17q46 0 87 17t71 51.5t47.5 85.5t17.5 120t-17.5 120t-47.5 85.5t-71 51.5t-87 17z" />
    <glyph glyph-name="P" unicode="P" horiz-adv-x="584" 
d="M185 300v-300h-88v700h244q99 0 153.5 -54t54.5 -146t-54.5 -146t-153.5 -54h-156zM346 384q54 0 83 30t29 86t-29 86t-83 30h-161v-232h161z" />
    <glyph glyph-name="Q" unicode="Q" horiz-adv-x="738" 
d="M369 708q63 0 119.5 -23t100 -68.5t69 -112.5t25.5 -154q0 -70 -17 -126.5t-46 -100.5l68 -67l-64 -64l-65 65q-41 -32 -89 -48.5t-101 -16.5q-63 0 -119.5 23t-100 68.5t-69 112.5t-25.5 154t25.5 154t69 112.5t100 68.5t119.5 23zM480 264l76 -77q17 32 26.5 72.5
t9.5 90.5q0 69 -17.5 120t-47.5 85.5t-71 51.5t-87 17q-47 0 -87.5 -17t-70.5 -51.5t-47.5 -85.5t-17.5 -120t17.5 -120t47.5 -85.5t70.5 -51.5t87.5 -17q36 0 69 10t60 31l-82 83z" />
    <glyph glyph-name="R" unicode="R" horiz-adv-x="641" 
d="M290 330h-105v-330h-88v700h233q46 0 84 -12.5t65 -36t42 -58t15 -78.5q0 -73 -38.5 -119t-107.5 -60l209 -336h-104zM185 616v-202h147q55 0 84 24t29 77t-29 77t-84 24h-147z" />
    <glyph glyph-name="S" unicode="S" horiz-adv-x="523" 
d="M369 550q-26 46 -52.5 60t-58.5 14q-38 0 -61 -26.5t-23 -60.5q0 -26 10.5 -45t29 -34.5t43 -28.5t52.5 -27q30 -15 59.5 -32.5t53.5 -40.5t39 -54.5t15 -73.5q0 -43 -14 -79t-40 -64q-29 -32 -69 -49t-87 -17q-44 0 -81.5 14t-66.5 39.5t-49 60t-29 75.5l76 46
q9 -31 20.5 -58.5t29 -48t42 -32.5t58.5 -12q27 0 52.5 10t42.5 30q27 33 27 83q0 25 -11 45t-29.5 36.5t-42.5 29.5t-49 25q-34 16 -65 33.5t-54 40t-37 51.5t-14 70q0 39 14 71.5t37.5 56.5t54.5 37t66 13q37 0 65.5 -8t50 -23t37.5 -35.5t29 -45.5z" />
    <glyph glyph-name="T" unicode="T" horiz-adv-x="522" 
d="M15 700h492v-84h-202v-616h-88v616h-202v84z" />
    <glyph glyph-name="U" unicode="U" horiz-adv-x="654" 
d="M82 700h88v-468q0 -33 10 -61.5t30 -49.5t49.5 -33t67.5 -12t67.5 12t49.5 33t30 49.5t10 61.5v468h88v-462q0 -60 -19.5 -106t-52.5 -77t-77.5 -47t-95.5 -16t-95.5 16t-77.5 47t-52.5 77t-19.5 106v462z" />
    <glyph glyph-name="V" unicode="V" horiz-adv-x="586" 
d="M578 700l-241 -700h-88l-241 700h93l192 -575l192 575h93z" />
    <glyph glyph-name="W" unicode="W" horiz-adv-x="904" 
d="M876 700l-187 -700h-92l-145 481l-145 -481h-92l-187 700h93l142 -570l149 496h80l149 -496l142 570h93z" />
    <glyph glyph-name="X" unicode="X" horiz-adv-x="576" 
d="M149 700l139 -238l139 238h101l-190 -324l221 -376h-101l-170 290l-170 -290h-101l221 376l-190 324h101z" />
    <glyph glyph-name="Y" unicode="Y" horiz-adv-x="506" 
d="M4 700h97l152 -310l152 310h97l-205 -398v-302h-88v302z" />
    <glyph glyph-name="Z" unicode="Z" horiz-adv-x="555" 
d="M57 700h439v-42l-326 -574h336v-84h-461v42l326 574h-314v84z" />
    <glyph glyph-name="bracketleft" unicode="[" horiz-adv-x="323" 
d="M97 750h188v-76h-108v-648h108v-76h-188v800z" />
    <glyph glyph-name="backslash" unicode="\" horiz-adv-x="543" 
d="M88 750l436 -800h-84l-436 800h84z" />
    <glyph glyph-name="bracketright" unicode="]" horiz-adv-x="323" 
d="M226 750v-800h-188v76h108v648h-108v76h188z" />
    <glyph glyph-name="asciicircum" unicode="^" horiz-adv-x="556" 
d="M312 700l186 -279h-83l-137 203l-137 -203h-83l186 279h68z" />
    <glyph glyph-name="underscore" unicode="_" horiz-adv-x="459" 
d="M30 0h399v-74h-399v74z" />
    <glyph glyph-name="grave" unicode="`" horiz-adv-x="228" 
d="M208 560h-68l-121 144h121z" />
    <glyph glyph-name="a" unicode="a" horiz-adv-x="518" 
d="M142 145q0 -36 21.5 -56.5t61.5 -20.5q24 0 49.5 8t45.5 26t33 47.5t13 72.5v12h-90q-65 0 -99.5 -23t-34.5 -66zM450 0h-66l-14 71q-24 -35 -62.5 -57t-95.5 -22q-32 0 -60 8.5t-49.5 27.5t-34 47.5t-12.5 69.5q0 40 16 71t46 52t72 31.5t94 10.5h82v22q0 58 -32 81
t-78 23q-39 0 -68 -20.5t-37 -58.5l-74 17q11 64 59 101t120 37q42 0 77.5 -11t61.5 -34t40.5 -59t14.5 -86v-322z" />
    <glyph glyph-name="b" unicode="b" horiz-adv-x="601" 
d="M547 252q0 -57 -14 -104.5t-42.5 -82t-70.5 -54t-97 -19.5q-23 0 -45.5 5.5t-42 15.5t-35 22.5t-24.5 26.5v-62h-84v708h84v-264q6 11 21 23t35 22t43.5 16.5t47.5 6.5q55 0 97 -19.5t70.5 -54t42.5 -82t14 -104.5zM461 252q0 40 -10.5 74t-29.5 58.5t-46 38t-60 13.5
q-35 0 -62 -13.5t-45.5 -38t-28.5 -58.5t-10 -74q0 -41 10 -74.5t28.5 -58t45.5 -38t62 -13.5q33 0 60 13.5t46 38t29.5 58t10.5 74.5z" />
    <glyph glyph-name="c" unicode="c" horiz-adv-x="538" 
d="M494 131q-31 -71 -82 -105t-129 -34q-58 0 -101 21.5t-71.5 57.5t-42.5 83t-14 98t14 98t42.5 83t71.5 57.5t101 21.5q78 0 129 -34t82 -105l-73 -30q-20 46 -53 69.5t-85 23.5q-37 0 -64 -14.5t-44.5 -39.5t-26 -58.5t-8.5 -71.5t8.5 -71.5t26 -58.5t44.5 -39.5
t64 -14.5q52 0 85 23.5t53 69.5z" />
    <glyph glyph-name="d" unicode="d" horiz-adv-x="601" 
d="M54 252q0 57 14 104.5t42.5 82t70 54t97.5 19.5q24 0 47.5 -6.5t43.5 -16.5t35 -22t21 -23v264h84v-708h-84v62q-9 -14 -24.5 -26.5t-35 -22.5t-42 -15.5t-45.5 -5.5q-56 0 -97.5 19.5t-70 54t-42.5 82t-14 104.5zM140 252q0 -41 10.5 -74.5t29.5 -58t46 -38t60 -13.5
q34 0 61.5 13.5t46 38t28.5 58t10 74.5q0 40 -10 74t-28.5 58.5t-46 38t-61.5 13.5q-33 0 -60 -13.5t-46 -38t-29.5 -58.5t-10.5 -74z" />
    <glyph glyph-name="e" unicode="e" horiz-adv-x="560" 
d="M510 234h-370q2 -35 11.5 -65t27 -52.5t43.5 -35.5t60 -13q56 0 87.5 24.5t52.5 71.5l74 -32q-35 -74 -85.5 -107t-128.5 -33q-57 0 -100 21.5t-71.5 57.5t-42.5 83t-14 98t14 98t42.5 83t71.5 57.5t100 21.5q56 0 98.5 -20t71.5 -53t43.5 -76t14.5 -90v-39zM282 436
q-59 0 -92.5 -35.5t-44.5 -90.5h277q-11 54 -45 90t-95 36z" />
    <glyph glyph-name="f" unicode="f" horiz-adv-x="364" 
d="M47 504h72v33q0 88 43 129.5t120 41.5q21 0 40.5 -4.5t31.5 -11.5l-17 -74q-28 14 -56 14q-42 0 -60 -23t-18 -72v-33h116v-76h-116v-428h-84v428h-72v76z" />
    <glyph glyph-name="g" unicode="g" horiz-adv-x="507" 
d="M90 342q0 39 13.5 70.5t37.5 53.5t56 34t69 12q25 0 48 -6t43 -17l90 51l38 -69l-68 -38q25 -39 25 -91q0 -39 -13.5 -70.5t-37.5 -53t-56 -33t-69 -11.5q-50 0 -87 18q-33 -16 -33 -49q0 -42 57 -42h119q71 0 114.5 -35t43.5 -104q0 -47 -17 -80t-46.5 -54t-68 -30.5
t-81.5 -9.5q-48 0 -87.5 11t-67.5 32.5t-43.5 52.5t-15.5 70q0 35 13.5 61.5t33.5 43.5q-16 14 -25 33.5t-9 46.5q0 32 16.5 55.5t44.5 37.5q-17 21 -27 48.5t-10 61.5zM207 29q-10 0 -19.5 0.5t-17.5 1.5q-18 -14 -25.5 -32.5t-7.5 -41.5q0 -42 32.5 -68.5t97.5 -26.5
q66 0 96.5 26.5t30.5 65.5q0 42 -24 58.5t-61 16.5h-102zM172 342q0 -48 28 -72t66 -24t66 24t28 72t-28 73t-66 25t-66 -25t-28 -73z" />
    <glyph glyph-name="h" unicode="h" horiz-adv-x="585" 
d="M499 0h-84v333q0 52 -22.5 77.5t-64.5 25.5q-28 0 -55 -15t-48.5 -43.5t-35 -70t-13.5 -93.5v-214h-84v708h84v-298q24 46 70 74t105 28q69 0 108.5 -40.5t39.5 -121.5v-350z" />
    <glyph glyph-name="i" unicode="i" horiz-adv-x="270" 
d="M177 504v-504h-84v504h84zM72 644q0 27 18 45.5t45 18.5t45 -18.5t18 -45.5q0 -26 -18 -44t-45 -18t-45 18t-18 44z" />
    <glyph glyph-name="j" unicode="j" horiz-adv-x="270" 
d="M3 -132q22 6 39 14t29 20.5t18 31.5t6 48v522h84v-530q0 -78 -40.5 -125t-113.5 -61zM72 644q0 27 18 45.5t45 18.5t45 -18.5t18 -45.5q0 -26 -18 -44t-45 -18t-45 18t-18 44z" />
    <glyph glyph-name="k" unicode="k" horiz-adv-x="511" 
d="M176 708v-415l196 211h108l-214 -231l230 -273h-107l-213 253v-253h-84v708h84z" />
    <glyph glyph-name="l" unicode="l" horiz-adv-x="258" 
d="M174 708v-708h-84v708h84z" />
    <glyph glyph-name="m" unicode="m" horiz-adv-x="862" 
d="M774 0h-84v337q0 99 -81 99q-27 0 -51.5 -15t-43 -44.5t-29 -72t-10.5 -97.5v-207h-84v337q0 99 -81 99q-27 0 -51.5 -15t-43 -44.5t-29 -72t-10.5 -97.5v-207h-84v504h84v-93q24 48 64 74.5t93 26.5t88 -27.5t47 -77.5q26 50 68 77.5t96 27.5q69 0 105.5 -42t36.5 -115
v-355z" />
    <glyph glyph-name="n" unicode="n" horiz-adv-x="577" 
d="M491 0h-84v333q0 52 -22.5 77.5t-64.5 25.5q-28 0 -54 -15.5t-46 -44.5t-32 -71t-12 -94v-211h-84v504h84v-93q28 49 71 75t96 26q69 0 108.5 -41t39.5 -116v-355z" />
    <glyph glyph-name="o" unicode="o" 
d="M54 252q0 51 16.5 98t48 83t76 57.5t101.5 21.5t101.5 -21.5t76 -57.5t48 -83t16.5 -98t-16.5 -98t-48 -83t-76 -57.5t-101.5 -21.5t-101.5 21.5t-76 57.5t-48 83t-16.5 98zM140 252q0 -35 10 -68t29.5 -59t48.5 -41.5t68 -15.5t68 15.5t48.5 41.5t29.5 59t10 68t-10 68
t-29.5 59t-48.5 41.5t-68 15.5t-68 -15.5t-48.5 -41.5t-29.5 -59t-10 -68z" />
    <glyph glyph-name="p" unicode="p" horiz-adv-x="601" 
d="M547 252q0 -57 -14 -104.5t-42.5 -82t-70.5 -54t-97 -19.5q-24 0 -47.5 6.5t-43.5 16.5t-35 22t-21 23v-264h-84v708h84v-62q9 14 24.5 26.5t35 22.5t42 15.5t45.5 5.5q55 0 97 -19.5t70.5 -54t42.5 -82t14 -104.5zM461 252q0 40 -10.5 74t-29.5 58.5t-46 38t-60 13.5
q-35 0 -62 -13.5t-45.5 -38t-28.5 -58.5t-10 -74q0 -41 10 -74.5t28.5 -58t45.5 -38t62 -13.5q33 0 60 13.5t46 38t29.5 58t10.5 74.5z" />
    <glyph glyph-name="q" unicode="q" horiz-adv-x="601" 
d="M54 252q0 57 14 104.5t42.5 82t70 54t97.5 19.5q23 0 45.5 -5.5t42 -15.5t35 -22.5t24.5 -26.5v62h84v-708h-84v264q-6 -11 -21 -23t-35 -22t-43.5 -16.5t-47.5 -6.5q-56 0 -97.5 19.5t-70 54t-42.5 82t-14 104.5zM140 252q0 -41 10.5 -74.5t29.5 -58t46 -38t60 -13.5
q34 0 61.5 13.5t46 38t28.5 58t10 74.5q0 40 -10 74t-28.5 58.5t-46 38t-61.5 13.5q-33 0 -60 -13.5t-46 -38t-29.5 -58.5t-10.5 -74z" />
    <glyph glyph-name="r" unicode="r" horiz-adv-x="413" 
d="M376 422q-28 14 -59 14q-26 0 -51 -15t-45 -46t-32.5 -77t-12.5 -107v-191h-84v504h84v-86q11 21 28 38.5t36.5 29.5t41 19t42.5 7t39.5 -4.5t29.5 -10.5z" />
    <glyph glyph-name="s" unicode="s" horiz-adv-x="461" 
d="M236 512q92 0 146 -77l-57 -49q-25 27 -45.5 38.5t-46.5 11.5t-43.5 -16.5t-17.5 -47.5q0 -23 17.5 -37.5t43.5 -27t56 -24.5t56 -28.5t43.5 -41t17.5 -61.5q0 -76 -45 -118t-122 -42q-39 0 -69.5 11.5t-53.5 31t-39 43.5t-26 50l71 39q17 -41 46 -70t71 -29
q38 0 59.5 19.5t21.5 59.5q0 23 -17 37.5t-43 26t-56 23t-56 29t-43 43.5t-17 67q0 29 10.5 54.5t29.5 44t46.5 29.5t61.5 11z" />
    <glyph glyph-name="t" unicode="t" horiz-adv-x="378" 
d="M25 504h87v151l84 53v-204h132v-76h-132v-277q0 -41 17.5 -62t49.5 -21q17 0 30 3.5t27 12.5l20 -73q-18 -11 -39 -15t-43 -4q-64 0 -105 40t-41 126v270h-87v76z" />
    <glyph glyph-name="u" unicode="u" horiz-adv-x="577" 
d="M86 504h84v-333q0 -52 22.5 -77.5t64.5 -25.5q28 0 54 15.5t46 44.5t32 70.5t12 94.5v211h84v-504h-84v93q-28 -49 -71 -75t-96 -26q-69 0 -108.5 41t-39.5 116v355z" />
    <glyph glyph-name="v" unicode="v" horiz-adv-x="456" 
d="M437 504l-166 -504h-86l-166 504h86l123 -397l123 397h86z" />
    <glyph glyph-name="w" unicode="w" horiz-adv-x="738" 
d="M701 504l-153 -504h-80l-99 383l-99 -383h-80l-153 504h88l103 -387l99 387h84l99 -387l103 387h88z" />
    <glyph glyph-name="x" unicode="x" horiz-adv-x="458" 
d="M132 504l97 -159l97 159h98l-147 -238l163 -266h-98l-113 187l-113 -187h-98l163 266l-147 238h98z" />
    <glyph glyph-name="y" unicode="y" horiz-adv-x="460" 
d="M448 504l-250 -708h-86l80 225l-177 483h92l128 -364l125 364h88z" />
    <glyph glyph-name="z" unicode="z" horiz-adv-x="456" 
d="M63 504h338v-36l-239 -392h248v-76h-360v36l238 392h-225v76z" />
    <glyph glyph-name="braceleft" unicode="{" horiz-adv-x="318" 
d="M142 232q0 45 -17.5 62.5t-62.5 17.5v76q45 0 62.5 17.5t17.5 62.5v182q0 45 27.5 72.5t72.5 27.5h48v-76h-23q-24 0 -34.5 -10.5t-10.5 -34.5v-181q0 -26 -5.5 -43t-15.5 -28t-23 -17t-28 -10q15 -4 28 -10t23 -17t15.5 -28.5t5.5 -42.5v-181q0 -24 10.5 -34.5
t34.5 -10.5h23v-76h-48q-45 0 -72.5 27.5t-27.5 72.5v182z" />
    <glyph glyph-name="bar" unicode="|" horiz-adv-x="274" 
d="M177 750v-800h-80v800h80z" />
    <glyph glyph-name="braceright" unicode="}" horiz-adv-x="318" 
d="M176 50q0 -45 -27.5 -72.5t-72.5 -27.5h-48v76h23q24 0 34.5 10.5t10.5 34.5v181q0 25 5.5 42.5t15.5 28.5t23 17t28 10q-15 4 -28 10t-23 17t-15.5 28t-5.5 43v181q0 24 -10.5 34.5t-34.5 10.5h-23v76h48q45 0 72.5 -27.5t27.5 -72.5v-182q0 -45 17.5 -62.5t62.5 -17.5
v-76q-45 0 -62.5 -17.5t-17.5 -62.5v-182z" />
    <glyph glyph-name="asciitilde" unicode="~" horiz-adv-x="628" 
d="M80 318q22 40 56 64.5t76 24.5q32 0 56 -8t46 -17t43.5 -17t48.5 -8q26 0 51 12t42 33l49 -51q-22 -41 -56 -64.5t-76 -23.5q-32 0 -56 8t-45.5 17t-43.5 17t-49 8q-26 0 -51 -12t-42 -33z" />
    <glyph glyph-name="uni00A0" unicode="&#xa0;" horiz-adv-x="268" 
 />
    <glyph glyph-name="exclamdown" unicode="&#xa1;" horiz-adv-x="345" 
d="M113 -204l24 500h66l24 -500h-114zM100 431q0 29 20 48.5t50 19.5t50 -19.5t20 -48.5q0 -30 -20 -50.5t-50 -20.5t-50 20.5t-20 50.5z" />
    <glyph glyph-name="cent" unicode="&#xa2;" horiz-adv-x="560" 
d="M500 229q-27 -62 -68.5 -95.5t-102.5 -41.5v-142h-80v143q-48 7 -83.5 31t-59 58.5t-35 78t-11.5 89.5t11.5 89.5t35 78t59 58.5t83.5 31v143h80v-142q61 -8 102.5 -41.5t68.5 -95.5l-73 -30q-20 46 -53 69t-85 23q-37 0 -64 -14.5t-44.5 -39t-26 -58t-8.5 -71.5
t8.5 -71.5t26 -58t44.5 -39t64 -14.5q52 0 85 23t53 69z" />
    <glyph glyph-name="sterling" unicode="&#xa3;" horiz-adv-x="543" 
d="M65 404h53q-8 23 -13 48t-5 55q0 47 14 84t39.5 63t61 40t78.5 14q70 0 121 -36t75 -102l-75 -35q-23 51 -51 72t-70 21q-45 0 -77 -29.5t-32 -92.5q0 -34 4.5 -58t11.5 -44h164v-80h-138q3 -14 5 -29t2 -34q0 -58 -23.5 -102t-55.5 -75q20 14 44.5 20.5t42.5 6.5
q21 0 37 -6t30 -13.5t27 -13.5t29 -6q26 0 46 14t44 54l66 -36q-32 -59 -67.5 -85.5t-83.5 -26.5q-29 0 -49.5 6t-37 13.5t-32.5 14t-35 6.5q-33 0 -58.5 -9.5t-54.5 -30.5l-57 62q57 55 84 100t27 97q0 20 -2.5 38t-7.5 35h-81v80z" />
    <glyph glyph-name="currency" unicode="&#xa4;" horiz-adv-x="554" 
d="M26 489l69 69l67 -87q24 18 53 28t62 10t62 -10t53 -28l67 87l69 -69l-88 -67q17 -24 26 -53.5t9 -61.5t-9 -61.5t-26 -53.5l88 -67l-69 -69l-67 87q-24 -18 -53 -28t-62 -10t-62 10t-53 28l-67 -87l-69 69l88 67q-17 24 -26 53.5t-9 61.5t9 61.5t26 53.5zM159 307
q0 -56 32 -91t86 -35t86 35t32 91t-32 91t-86 35t-86 -35t-32 -91z" />
    <glyph glyph-name="yen" unicode="&#xa5;" horiz-adv-x="504" 
d="M108 700l144 -302l144 302h97l-157 -313h116v-80h-156v-80h156v-80h-156v-147h-88v147h-156v80h156v80h-156v80h116l-157 313h97z" />
    <glyph glyph-name="brokenbar" unicode="&#xa6;" horiz-adv-x="274" 
d="M177 299v-349h-80v349h80zM97 401v349h80v-349h-80z" />
    <glyph glyph-name="section" unicode="&#xa7;" horiz-adv-x="540" 
d="M66 274q0 52 20 82.5t53 54.5q-19 21 -30 47.5t-11 63.5q0 44 14.5 78.5t39 58.5t55.5 36.5t64 12.5q75 0 122 -38t65 -110l-77 -25q-14 46 -39.5 69.5t-70.5 23.5q-35 0 -62 -27t-27 -75q0 -34 15 -55.5t41.5 -38t61.5 -32t75 -36.5q47 -25 74 -59t27 -83
q0 -26 -5 -46.5t-15 -36.5t-23.5 -29t-29.5 -25q19 -21 30 -47.5t11 -63.5q0 -44 -14.5 -78.5t-39 -58.5t-55.5 -36.5t-64 -12.5q-75 0 -122 38t-65 110l77 25q14 -46 39.5 -69.5t70.5 -23.5q35 0 62 27t27 75q0 34 -15 55.5t-41.5 38t-61.5 32t-75 36.5q-47 25 -74 59
t-27 83zM143 283q0 -30 19 -50.5t48 -36.5t64.5 -30.5t68.5 -33.5q21 11 38.5 31t17.5 50t-19 50.5t-48 36.5t-64.5 30.5t-68.5 33.5q-21 -11 -38.5 -31t-17.5 -50z" />
    <glyph glyph-name="dieresis" unicode="&#xa8;" horiz-adv-x="319" 
d="M20 651q0 24 16.5 40.5t39.5 16.5q25 0 41 -16.5t16 -40.5t-16 -40t-41 -16q-23 0 -39.5 16t-16.5 40zM186 651q0 24 16.5 40.5t39.5 16.5q25 0 41 -16.5t16 -40.5t-16 -40t-41 -16q-23 0 -39.5 16t-16.5 40z" />
    <glyph glyph-name="copyright" unicode="&#xa9;" horiz-adv-x="900" 
d="M70 350q0 83 28.5 154.5t79.5 124t120.5 82t151.5 29.5t151.5 -29.5t120.5 -82t79.5 -124t28.5 -154.5t-28.5 -154.5t-79.5 -124t-120.5 -82t-151.5 -29.5t-151.5 29.5t-120.5 82t-79.5 124t-28.5 154.5zM150 350q0 -66 21.5 -123.5t60.5 -99.5t94.5 -66.5t123.5 -24.5
t123.5 24.5t94.5 66.5t60.5 99.5t21.5 123.5t-21.5 123.5t-60.5 99.5t-94.5 66.5t-123.5 24.5t-123.5 -24.5t-94.5 -66.5t-60.5 -99.5t-21.5 -123.5zM623 265q-6 -31 -22 -55.5t-39 -41t-51.5 -25.5t-60.5 -9q-35 0 -70 12.5t-63 39t-45.5 67t-17.5 97.5t17.5 97.5t45.5 67
t63 39t70 12.5q32 0 60.5 -9t51.5 -25.5t39 -41t22 -55.5l-70 -17q-13 41 -38.5 59.5t-64.5 18.5q-25 0 -46.5 -8t-38 -26t-26 -45.5t-9.5 -66.5t9.5 -66.5t26 -45.5t38 -26t46.5 -8q39 0 64.5 18.5t38.5 59.5z" />
    <glyph glyph-name="ordfeminine" unicode="&#xaa;" horiz-adv-x="437" 
d="M129 416q0 -29 17 -44.5t49 -15.5q19 0 39 6t36 20.5t26 37.5t10 56v13h-71q-51 0 -78.5 -20t-27.5 -53zM372 300h-54l-9 58q-19 -27 -49.5 -44.5t-75.5 -17.5q-25 0 -47 7t-38.5 21.5t-26 37t-9.5 54.5q0 64 48 96.5t130 32.5h65v17q0 46 -25.5 64t-61.5 18
q-31 0 -53.5 -16.5t-29.5 -45.5l-58 13q10 47 48.5 78t97.5 31q67 0 107.5 -36.5t40.5 -112.5v-255z" />
    <glyph glyph-name="guillemotleft" unicode="&#xab;" horiz-adv-x="611" 
d="M278 341l277 199v-90l-195 -140l195 -140v-90l-277 199v62zM48 341l277 199v-90l-195 -140l195 -140v-90l-277 199v62z" />
    <glyph glyph-name="logicalnot" unicode="&#xac;" horiz-adv-x="581" 
d="M69 389h433v-247h-84v171h-349v76z" />
    <glyph glyph-name="registered" unicode="&#xae;" horiz-adv-x="900" 
d="M70 350q0 83 28.5 154.5t79.5 124t120.5 82t151.5 29.5t151.5 -29.5t120.5 -82t79.5 -124t28.5 -154.5t-28.5 -154.5t-79.5 -124t-120.5 -82t-151.5 -29.5t-151.5 29.5t-120.5 82t-79.5 124t-28.5 154.5zM150 350q0 -66 21.5 -123.5t60.5 -99.5t94.5 -66.5t123.5 -24.5
t123.5 24.5t94.5 66.5t60.5 99.5t21.5 123.5t-21.5 123.5t-60.5 99.5t-94.5 66.5t-123.5 24.5t-123.5 -24.5t-94.5 -66.5t-60.5 -99.5t-21.5 -123.5zM420 319h-38v-182h-72v426h153q66 0 99 -34t33 -88q0 -47 -26.5 -78.5t-67.5 -39.5l127 -186h-82zM382 493v-104h80
q33 0 47 13.5t14 38.5t-14 38.5t-47 13.5h-80z" />
    <glyph glyph-name="macron" unicode="&#xaf;" horiz-adv-x="273" 
d="M12 708h249v-76h-249v76z" />
    <glyph glyph-name="degree" unicode="&#xb0;" horiz-adv-x="356" 
d="M66 593q0 48 31.5 79.5t80.5 31.5t80.5 -31.5t31.5 -79.5t-31.5 -79.5t-80.5 -31.5t-80.5 31.5t-31.5 79.5zM130 593q0 -22 12.5 -35.5t35.5 -13.5t35.5 13.5t12.5 35.5t-12.5 35.5t-35.5 13.5t-35.5 -13.5t-12.5 -35.5z" />
    <glyph glyph-name="plusminus" unicode="&#xb1;" horiz-adv-x="568" 
d="M322 619v-183h183v-74h-183v-183h-74v183h-183v74h183v183h74zM65 74h440v-74h-440v74z" />
    <glyph glyph-name="twosuperior" unicode="&#xb2;" horiz-adv-x="382" 
d="M67 592q5 48 39 80t84 32q57 0 88.5 -31t31.5 -85q0 -56 -38 -103l-103 -125h151v-60h-258v25l149 184q33 40 33 77q0 58 -54 58q-23 0 -39.5 -18t-19.5 -51z" />
    <glyph glyph-name="threesuperior" unicode="&#xb3;" horiz-adv-x="389" 
d="M126 424q4 -32 22 -50t47 -18q35 0 50.5 22t15.5 53q0 33 -17 52t-49 19q-11 0 -21.5 -3.5t-15.5 -7.5l-31 41l82 108h-128v60h223v-23l-94 -126q53 0 85 -33t32 -87q0 -59 -36 -97t-96 -38q-56 0 -92 32.5t-41 86.5z" />
    <glyph glyph-name="acute" unicode="&#xb4;" horiz-adv-x="228" 
d="M88 704h121l-121 -144h-68z" />
    <glyph glyph-name="mu" unicode="&#xb5;" horiz-adv-x="577" 
d="M86 -204v708h84v-333q0 -52 22.5 -77.5t64.5 -25.5q28 0 54 15.5t46 44.5t32 70.5t12 94.5v211h84v-504h-84v93q-28 -49 -71 -75t-96 -26q-36 0 -64 11v-207h-84z" />
    <glyph glyph-name="paragraph" unicode="&#xb6;" horiz-adv-x="685" 
d="M60 507q0 40 15 75t41.5 61.5t61.5 41.5t75 15h366v-76h-62v-828h-84v828h-136v-828h-84v518q-40 0 -75 15t-61.5 41.5t-41.5 61.5t-15 75z" />
    <glyph glyph-name="periodcentered" unicode="&#xb7;" horiz-adv-x="306" 
d="M90 349q0 26 18 44.5t45 18.5q26 0 44.5 -18.5t18.5 -44.5q0 -27 -18.5 -45t-44.5 -18q-27 0 -45 18t-18 45z" />
    <glyph glyph-name="cedilla" unicode="&#xb8;" horiz-adv-x="198" 
d="M105 -235l-95 45l108 130h70z" />
    <glyph glyph-name="onesuperior" unicode="&#xb9;" horiz-adv-x="292" 
d="M206 700v-400h-63v309l-86 -40v70l127 61h22z" />
    <glyph glyph-name="ordmasculine" unicode="&#xba;" horiz-adv-x="516" 
d="M69 500q0 40 13 77t37 65t59 45t80 17q44 0 79 -17t59.5 -45t37.5 -65t13 -77q0 -41 -13 -77.5t-37.5 -65t-59.5 -45t-79 -16.5q-45 0 -80 16.5t-59 45t-37 65t-13 77.5zM135 500q0 -27 8 -53.5t23.5 -46.5t38.5 -32.5t53 -12.5t53 12.5t38.5 32.5t23 46.5t7.5 53.5
t-7.5 53t-23 46.5t-38.5 32.5t-53 12t-53 -12t-38.5 -32.5t-23.5 -46.5t-8 -53z" />
    <glyph glyph-name="guillemotright" unicode="&#xbb;" horiz-adv-x="611" 
d="M333 279l-277 -199v90l195 140l-195 140v90l277 -199v-62zM563 279l-277 -199v90l195 140l-195 140v90l277 -199v-62z" />
    <glyph glyph-name="onequarter" unicode="&#xbc;" horiz-adv-x="794" 
d="M227 700v-400h-63v309l-86 -40v70l127 61h22zM692 690l-538 -719l-50 40l538 718zM598 77h-170v26l161 297h72v-263h47v-60h-47v-77h-63v77zM598 137v170l-88 -170h88z" />
    <glyph glyph-name="onehalf" unicode="&#xbd;" horiz-adv-x="859" 
d="M227 700v-400h-63v309l-86 -40v70l127 61h22zM504 292q5 48 39 80t84 32q57 0 88.5 -31t31.5 -85q0 -56 -38 -103l-103 -125h151v-60h-258v25l149 184q33 40 33 77q0 58 -54 58q-23 0 -39.5 -18t-19.5 -51zM692 690l-538 -719l-50 40l538 718z" />
    <glyph glyph-name="threequarters" unicode="&#xbe;" horiz-adv-x="855" 
d="M756 690l-538 -719l-50 40l538 718zM126 424q4 -32 22 -50t47 -18q35 0 50.5 22t15.5 53q0 33 -17 52t-49 19q-11 0 -21.5 -3.5t-15.5 -7.5l-31 41l82 108h-128v60h223v-23l-94 -126q53 0 85 -33t32 -87q0 -59 -36 -97t-96 -38q-56 0 -92 32.5t-41 86.5zM659 77h-170v26
l161 297h72v-263h47v-60h-47v-77h-63v77zM659 137v170l-88 -170h88z" />
    <glyph glyph-name="questiondown" unicode="&#xbf;" horiz-adv-x="448" 
d="M285 433q0 -29 -19 -48.5t-47 -19.5q-29 0 -48.5 19.5t-19.5 48.5q0 28 19.5 47t48.5 19q28 0 47 -19t19 -47zM85 189q17 51 51.5 78.5t82.5 27.5q60 0 96 -33.5t36 -91.5q0 -45 -23 -75.5t-62 -50.5q-16 -8 -27.5 -13t-22 -9t-20.5 -8.5t-22 -10.5q-26 -14 -35 -31.5
t-9 -39.5q0 -33 22 -52q12 -11 27 -16.5t38 -5.5q40 0 67 26t38 67l78 -13q-14 -68 -60.5 -109t-122.5 -41q-40 0 -71 12t-53 32q-23 22 -34 48.5t-11 56.5q0 38 19 69t57 50l101 49q27 15 38 32t11 37q0 24 -14 37.5t-38 13.5q-29 0 -45.5 -18t-26.5 -41z" />
    <glyph glyph-name="Agrave" unicode="&#xc0;" 
d="M254 700h84l242 -700h-88l-62 187h-268l-62 -187h-88zM402 271l-106 315l-106 -315h212zM347 756h-68l-121 144h121z" />
    <glyph glyph-name="Aacute" unicode="&#xc1;" 
d="M254 700h84l242 -700h-88l-62 187h-268l-62 -187h-88zM402 271l-106 315l-106 -315h212zM305 900h121l-121 -144h-68z" />
    <glyph glyph-name="Acircumflex" unicode="&#xc2;" 
d="M254 700h84l242 -700h-88l-62 187h-268l-62 -187h-88zM402 271l-106 315l-106 -315h212zM283 926h26l153 -164h-86l-80 85l-80 -85h-86z" />
    <glyph glyph-name="Atilde" unicode="&#xc3;" 
d="M254 700h84l242 -700h-88l-62 187h-268l-62 -187h-88zM402 271l-106 315l-106 -315h212zM120 820q17 32 45.5 54t61.5 22q25 0 42 -6.5t30.5 -14t26.5 -13.5t32 -6q21 0 36.5 9.5t29.5 26.5l49 -39q-17 -32 -45.5 -53.5t-61.5 -21.5q-26 0 -42.5 6t-30 13.5t-26.5 14
t-32 6.5q-21 0 -36.5 -9.5t-29.5 -26.5z" />
    <glyph glyph-name="Adieresis" unicode="&#xc4;" 
d="M254 700h84l242 -700h-88l-62 187h-268l-62 -187h-88zM402 271l-106 315l-106 -315h212zM157 847q0 24 16.5 40.5t39.5 16.5q25 0 41 -16.5t16 -40.5t-16 -40t-41 -16q-23 0 -39.5 16t-16.5 40zM323 847q0 24 16.5 40.5t39.5 16.5q25 0 41 -16.5t16 -40.5t-16 -40
t-41 -16q-23 0 -39.5 16t-16.5 40z" />
    <glyph glyph-name="Aring" unicode="&#xc5;" 
d="M254 700h84l242 -700h-88l-62 187h-268l-62 -187h-88zM402 271l-106 315l-106 -315h212zM197 849q0 42 28.5 71t70.5 29q44 0 71.5 -29t27.5 -71q0 -41 -27.5 -68.5t-71.5 -27.5q-21 0 -39 7.5t-31.5 20.5t-21 30.5t-7.5 37.5zM253 850q0 -19 12 -31.5t31 -12.5
q20 0 31.5 12.5t11.5 31.5q0 20 -11.5 33t-31.5 13q-19 0 -31 -13t-12 -33z" />
    <glyph glyph-name="AE" unicode="&#xc6;" horiz-adv-x="830" 
d="M763 700v-84h-314v-201h254v-84h-254v-247h324v-84h-412v187h-181l-80 -187h-90l305 700h448zM216 271h145v314h-10z" />
    <glyph glyph-name="Ccedilla" unicode="&#xc7;" horiz-adv-x="688" 
d="M645 204q-12 -46 -35.5 -85t-58.5 -67t-80 -44t-100 -16q-61 0 -118 22.5t-101 67t-70.5 111.5t-26.5 157t26.5 157t70.5 111.5t101 67t118 22.5q55 0 100 -16t80 -44t58.5 -67t35.5 -85l-85 -25q-24 74 -72 113.5t-117 39.5q-48 0 -89.5 -17.5t-71.5 -52t-47 -85.5
t-17 -119t17 -119t47 -85.5t71.5 -52t89.5 -17.5q69 0 117 39.5t72 113.5zM356 -235l-95 45l108 130h70z" />
    <glyph glyph-name="Egrave" unicode="&#xc8;" horiz-adv-x="566" 
d="M499 700v-84h-314v-201h254v-84h-254v-247h324v-84h-412v700h402zM366 756h-68l-121 144h121z" />
    <glyph glyph-name="Eacute" unicode="&#xc9;" horiz-adv-x="566" 
d="M499 700v-84h-314v-201h254v-84h-254v-247h324v-84h-412v700h402zM297 900h121l-121 -144h-68z" />
    <glyph glyph-name="Ecircumflex" unicode="&#xca;" horiz-adv-x="566" 
d="M499 700v-84h-314v-201h254v-84h-254v-247h324v-84h-412v700h402zM294 926h26l153 -164h-86l-80 85l-80 -85h-86z" />
    <glyph glyph-name="Edieresis" unicode="&#xcb;" horiz-adv-x="566" 
d="M499 700v-84h-314v-201h254v-84h-254v-247h324v-84h-412v700h402zM164 847q0 24 16.5 40.5t39.5 16.5q25 0 41 -16.5t16 -40.5t-16 -40t-41 -16q-23 0 -39.5 16t-16.5 40zM330 847q0 24 16.5 40.5t39.5 16.5q25 0 41 -16.5t16 -40.5t-16 -40t-41 -16q-23 0 -39.5 16
t-16.5 40z" />
    <glyph glyph-name="Igrave" unicode="&#xcc;" horiz-adv-x="282" 
d="M185 700v-700h-88v700h88zM198 756h-68l-121 144h121z" />
    <glyph glyph-name="Iacute" unicode="&#xcd;" horiz-adv-x="282" 
d="M185 700v-700h-88v700h88zM152 900h121l-121 -144h-68z" />
    <glyph glyph-name="Icircumflex" unicode="&#xce;" horiz-adv-x="282" 
d="M185 700v-700h-88v700h88zM128 926h26l153 -164h-86l-80 85l-80 -85h-86z" />
    <glyph glyph-name="Idieresis" unicode="&#xcf;" horiz-adv-x="282" 
d="M185 700v-700h-88v700h88zM2 847q0 24 16.5 40.5t39.5 16.5q25 0 41 -16.5t16 -40.5t-16 -40t-41 -16q-23 0 -39.5 16t-16.5 40zM168 847q0 24 16.5 40.5t39.5 16.5q25 0 41 -16.5t16 -40.5t-16 -40t-41 -16q-23 0 -39.5 16t-16.5 40z" />
    <glyph glyph-name="Eth" unicode="&#xd0;" horiz-adv-x="687" 
d="M35 392h83v308h192q64 0 122.5 -23t103 -67t70.5 -109.5t26 -150.5t-26 -150.5t-70.5 -109.5t-103 -67t-122.5 -23h-192v308h-83v84zM206 616v-224h83v-84h-83v-224h89q48 0 92 14t77.5 45.5t53.5 82t20 124.5q0 73 -20 124t-53.5 82.5t-77.5 45.5t-92 14h-89z" />
    <glyph glyph-name="Ntilde" unicode="&#xd1;" horiz-adv-x="701" 
d="M604 700v-700h-103l-316 557v-557h-88v700h103l316 -557v557h88zM174 820q17 32 45.5 54t61.5 22q25 0 42 -6.5t30.5 -14t26.5 -13.5t32 -6q21 0 36.5 9.5t29.5 26.5l49 -39q-17 -32 -45.5 -53.5t-61.5 -21.5q-26 0 -42.5 6t-30 13.5t-26.5 14t-32 6.5q-21 0 -36.5 -9.5
t-29.5 -26.5z" />
    <glyph glyph-name="Ograve" unicode="&#xd2;" horiz-adv-x="738" 
d="M369 708q63 0 119.5 -23t100 -68.5t69 -112.5t25.5 -154t-25.5 -154t-69 -112.5t-100 -68.5t-119.5 -23t-119.5 23t-100 68.5t-69 112.5t-25.5 154t25.5 154t69 112.5t100 68.5t119.5 23zM369 624q-47 0 -87.5 -17t-70.5 -51.5t-47.5 -85.5t-17.5 -120t17.5 -120
t47.5 -85.5t70.5 -51.5t87.5 -17q46 0 87 17t71 51.5t47.5 85.5t17.5 120t-17.5 120t-47.5 85.5t-71 51.5t-87 17zM423 756h-68l-121 144h121z" />
    <glyph glyph-name="Oacute" unicode="&#xd3;" horiz-adv-x="738" 
d="M369 708q63 0 119.5 -23t100 -68.5t69 -112.5t25.5 -154t-25.5 -154t-69 -112.5t-100 -68.5t-119.5 -23t-119.5 23t-100 68.5t-69 112.5t-25.5 154t25.5 154t69 112.5t100 68.5t119.5 23zM369 624q-47 0 -87.5 -17t-70.5 -51.5t-47.5 -85.5t-17.5 -120t17.5 -120
t47.5 -85.5t70.5 -51.5t87.5 -17q46 0 87 17t71 51.5t47.5 85.5t17.5 120t-17.5 120t-47.5 85.5t-71 51.5t-87 17zM368 900h121l-121 -144h-68z" />
    <glyph glyph-name="Ocircumflex" unicode="&#xd4;" horiz-adv-x="738" 
d="M369 708q63 0 119.5 -23t100 -68.5t69 -112.5t25.5 -154t-25.5 -154t-69 -112.5t-100 -68.5t-119.5 -23t-119.5 23t-100 68.5t-69 112.5t-25.5 154t25.5 154t69 112.5t100 68.5t119.5 23zM369 624q-47 0 -87.5 -17t-70.5 -51.5t-47.5 -85.5t-17.5 -120t17.5 -120
t47.5 -85.5t70.5 -51.5t87.5 -17q46 0 87 17t71 51.5t47.5 85.5t17.5 120t-17.5 120t-47.5 85.5t-71 51.5t-87 17zM356 926h26l153 -164h-86l-80 85l-80 -85h-86z" />
    <glyph glyph-name="Otilde" unicode="&#xd5;" horiz-adv-x="738" 
d="M369 708q63 0 119.5 -23t100 -68.5t69 -112.5t25.5 -154t-25.5 -154t-69 -112.5t-100 -68.5t-119.5 -23t-119.5 23t-100 68.5t-69 112.5t-25.5 154t25.5 154t69 112.5t100 68.5t119.5 23zM369 624q-47 0 -87.5 -17t-70.5 -51.5t-47.5 -85.5t-17.5 -120t17.5 -120
t47.5 -85.5t70.5 -51.5t87.5 -17q46 0 87 17t71 51.5t47.5 85.5t17.5 120t-17.5 120t-47.5 85.5t-71 51.5t-87 17zM193 820q17 32 45.5 54t61.5 22q25 0 42 -6.5t30.5 -14t26.5 -13.5t32 -6q21 0 36.5 9.5t29.5 26.5l49 -39q-17 -32 -45.5 -53.5t-61.5 -21.5q-26 0 -42.5 6
t-30 13.5t-26.5 14t-32 6.5q-21 0 -36.5 -9.5t-29.5 -26.5z" />
    <glyph glyph-name="Odieresis" unicode="&#xd6;" horiz-adv-x="738" 
d="M369 708q63 0 119.5 -23t100 -68.5t69 -112.5t25.5 -154t-25.5 -154t-69 -112.5t-100 -68.5t-119.5 -23t-119.5 23t-100 68.5t-69 112.5t-25.5 154t25.5 154t69 112.5t100 68.5t119.5 23zM369 624q-47 0 -87.5 -17t-70.5 -51.5t-47.5 -85.5t-17.5 -120t17.5 -120
t47.5 -85.5t70.5 -51.5t87.5 -17q46 0 87 17t71 51.5t47.5 85.5t17.5 120t-17.5 120t-47.5 85.5t-71 51.5t-87 17zM230 847q0 24 16.5 40.5t39.5 16.5q25 0 41 -16.5t16 -40.5t-16 -40t-41 -16q-23 0 -39.5 16t-16.5 40zM396 847q0 24 16.5 40.5t39.5 16.5q25 0 41 -16.5
t16 -40.5t-16 -40t-41 -16q-23 0 -39.5 16t-16.5 40z" />
    <glyph glyph-name="multiply" unicode="&#xd7;" horiz-adv-x="554" 
d="M487 477l-158 -158l158 -158l-52 -52l-158 158l-158 -158l-52 52l158 158l-158 158l52 52l158 -158l158 158z" />
    <glyph glyph-name="Oslash" unicode="&#xd8;" horiz-adv-x="738" 
d="M369 708q51 0 97.5 -15t85.5 -45l61 79l59 -44l-67 -86q36 -45 57 -107t21 -140q0 -87 -25.5 -154t-69 -112.5t-100 -68.5t-119.5 -23q-51 0 -97.5 15t-85.5 45l-61 -79l-59 44l67 86q-36 45 -57 107t-21 140q0 87 25.5 154t69 112.5t100 68.5t119.5 23zM592 350
q0 54 -11.5 98t-31.5 76l-311 -405q55 -43 131 -43q46 0 87 17t71 51.5t47.5 85.5t17.5 120zM369 624q-47 0 -87.5 -17t-70.5 -51.5t-47.5 -85.5t-17.5 -120q0 -55 11.5 -98.5t31.5 -75.5l311 405q-55 43 -131 43z" />
    <glyph glyph-name="Ugrave" unicode="&#xd9;" horiz-adv-x="654" 
d="M82 700h88v-468q0 -33 10 -61.5t30 -49.5t49.5 -33t67.5 -12t67.5 12t49.5 33t30 49.5t10 61.5v468h88v-462q0 -60 -19.5 -106t-52.5 -77t-77.5 -47t-95.5 -16t-95.5 16t-77.5 47t-52.5 77t-19.5 106v462zM388 756h-68l-121 144h121z" />
    <glyph glyph-name="Uacute" unicode="&#xda;" horiz-adv-x="654" 
d="M82 700h88v-468q0 -33 10 -61.5t30 -49.5t49.5 -33t67.5 -12t67.5 12t49.5 33t30 49.5t10 61.5v468h88v-462q0 -60 -19.5 -106t-52.5 -77t-77.5 -47t-95.5 -16t-95.5 16t-77.5 47t-52.5 77t-19.5 106v462zM338 900h121l-121 -144h-68z" />
    <glyph glyph-name="Ucircumflex" unicode="&#xdb;" horiz-adv-x="654" 
d="M82 700h88v-468q0 -33 10 -61.5t30 -49.5t49.5 -33t67.5 -12t67.5 12t49.5 33t30 49.5t10 61.5v468h88v-462q0 -60 -19.5 -106t-52.5 -77t-77.5 -47t-95.5 -16t-95.5 16t-77.5 47t-52.5 77t-19.5 106v462zM314 926h26l153 -164h-86l-80 85l-80 -85h-86z" />
    <glyph glyph-name="Udieresis" unicode="&#xdc;" horiz-adv-x="654" 
d="M82 700h88v-468q0 -33 10 -61.5t30 -49.5t49.5 -33t67.5 -12t67.5 12t49.5 33t30 49.5t10 61.5v468h88v-462q0 -60 -19.5 -106t-52.5 -77t-77.5 -47t-95.5 -16t-95.5 16t-77.5 47t-52.5 77t-19.5 106v462zM188 847q0 24 16.5 40.5t39.5 16.5q25 0 41 -16.5t16 -40.5
t-16 -40t-41 -16q-23 0 -39.5 16t-16.5 40zM354 847q0 24 16.5 40.5t39.5 16.5q25 0 41 -16.5t16 -40.5t-16 -40t-41 -16q-23 0 -39.5 16t-16.5 40z" />
    <glyph glyph-name="Yacute" unicode="&#xdd;" horiz-adv-x="506" 
d="M4 700h97l152 -310l152 310h97l-205 -398v-302h-88v302zM253 900h121l-121 -144h-68z" />
    <glyph glyph-name="Thorn" unicode="&#xde;" horiz-adv-x="584" 
d="M185 150v-150h-88v700h88v-150h156q99 0 153.5 -54t54.5 -146t-54.5 -146t-153.5 -54h-156zM346 234q54 0 83 30t29 86t-29 86t-83 30h-161v-232h161z" />
    <glyph glyph-name="germandbls" unicode="&#xdf;" horiz-adv-x="554" 
d="M38 420h50v85q0 51 15 89t41 63.5t60.5 38t72.5 12.5q46 0 81 -14t58.5 -38.5t35 -57t11.5 -69.5q0 -58 -27 -92.5t-63 -46.5q24 -5 48.5 -18t44 -35.5t32 -53.5t12.5 -71q0 -58 -16 -99.5t-45 -68.5t-68.5 -39.5t-85.5 -12.5q-26 0 -42 2t-29 5v76q15 -3 32.5 -5
t38.5 -2q63 0 97 34.5t34 103.5t-37.5 104.5t-103.5 35.5h-35v74h35q54 0 76 30t22 76q0 50 -28 78t-78 28t-77.5 -33.5t-27.5 -96.5v-502h-84v346h-50v74z" />
    <glyph glyph-name="agrave" unicode="&#xe0;" horiz-adv-x="518" 
d="M142 145q0 -36 21.5 -56.5t61.5 -20.5q24 0 49.5 8t45.5 26t33 47.5t13 72.5v12h-90q-65 0 -99.5 -23t-34.5 -66zM450 0h-66l-14 71q-24 -35 -62.5 -57t-95.5 -22q-32 0 -60 8.5t-49.5 27.5t-34 47.5t-12.5 69.5q0 40 16 71t46 52t72 31.5t94 10.5h82v22q0 58 -32 81
t-78 23q-39 0 -68 -20.5t-37 -58.5l-74 17q11 64 59 101t120 37q42 0 77.5 -11t61.5 -34t40.5 -59t14.5 -86v-322zM324 560h-68l-121 144h121z" />
    <glyph glyph-name="aacute" unicode="&#xe1;" horiz-adv-x="518" 
d="M142 145q0 -36 21.5 -56.5t61.5 -20.5q24 0 49.5 8t45.5 26t33 47.5t13 72.5v12h-90q-65 0 -99.5 -23t-34.5 -66zM450 0h-66l-14 71q-24 -35 -62.5 -57t-95.5 -22q-32 0 -60 8.5t-49.5 27.5t-34 47.5t-12.5 69.5q0 40 16 71t46 52t72 31.5t94 10.5h82v22q0 58 -32 81
t-78 23q-39 0 -68 -20.5t-37 -58.5l-74 17q11 64 59 101t120 37q42 0 77.5 -11t61.5 -34t40.5 -59t14.5 -86v-322zM262 704h121l-121 -144h-68z" />
    <glyph glyph-name="acircumflex" unicode="&#xe2;" horiz-adv-x="518" 
d="M142 145q0 -36 21.5 -56.5t61.5 -20.5q24 0 49.5 8t45.5 26t33 47.5t13 72.5v12h-90q-65 0 -99.5 -23t-34.5 -66zM450 0h-66l-14 71q-24 -35 -62.5 -57t-95.5 -22q-32 0 -60 8.5t-49.5 27.5t-34 47.5t-12.5 69.5q0 40 16 71t46 52t72 31.5t94 10.5h82v22q0 58 -32 81
t-78 23q-39 0 -68 -20.5t-37 -58.5l-74 17q11 64 59 101t120 37q42 0 77.5 -11t61.5 -34t40.5 -59t14.5 -86v-322zM247 730h26l153 -164h-86l-80 85l-80 -85h-86z" />
    <glyph glyph-name="atilde" unicode="&#xe3;" horiz-adv-x="518" 
d="M142 145q0 -36 21.5 -56.5t61.5 -20.5q24 0 49.5 8t45.5 26t33 47.5t13 72.5v12h-90q-65 0 -99.5 -23t-34.5 -66zM450 0h-66l-14 71q-24 -35 -62.5 -57t-95.5 -22q-32 0 -60 8.5t-49.5 27.5t-34 47.5t-12.5 69.5q0 40 16 71t46 52t72 31.5t94 10.5h82v22q0 58 -32 81
t-78 23q-39 0 -68 -20.5t-37 -58.5l-74 17q11 64 59 101t120 37q42 0 77.5 -11t61.5 -34t40.5 -59t14.5 -86v-322zM87 624q17 32 45.5 54t61.5 22q25 0 42 -6.5t30.5 -14t26.5 -13.5t32 -6q21 0 36.5 9.5t29.5 26.5l49 -39q-17 -32 -45.5 -53.5t-61.5 -21.5q-26 0 -42.5 6
t-30 13.5t-26.5 14t-32 6.5q-21 0 -36.5 -9.5t-29.5 -26.5z" />
    <glyph glyph-name="adieresis" unicode="&#xe4;" horiz-adv-x="518" 
d="M142 145q0 -36 21.5 -56.5t61.5 -20.5q24 0 49.5 8t45.5 26t33 47.5t13 72.5v12h-90q-65 0 -99.5 -23t-34.5 -66zM450 0h-66l-14 71q-24 -35 -62.5 -57t-95.5 -22q-32 0 -60 8.5t-49.5 27.5t-34 47.5t-12.5 69.5q0 40 16 71t46 52t72 31.5t94 10.5h82v22q0 58 -32 81
t-78 23q-39 0 -68 -20.5t-37 -58.5l-74 17q11 64 59 101t120 37q42 0 77.5 -11t61.5 -34t40.5 -59t14.5 -86v-322zM121 651q0 24 16.5 40.5t39.5 16.5q25 0 41 -16.5t16 -40.5t-16 -40t-41 -16q-23 0 -39.5 16t-16.5 40zM287 651q0 24 16.5 40.5t39.5 16.5q25 0 41 -16.5
t16 -40.5t-16 -40t-41 -16q-23 0 -39.5 16t-16.5 40z" />
    <glyph glyph-name="aring" unicode="&#xe5;" horiz-adv-x="518" 
d="M142 145q0 -36 21.5 -56.5t61.5 -20.5q24 0 49.5 8t45.5 26t33 47.5t13 72.5v12h-90q-65 0 -99.5 -23t-34.5 -66zM450 0h-66l-14 71q-24 -35 -62.5 -57t-95.5 -22q-32 0 -60 8.5t-49.5 27.5t-34 47.5t-12.5 69.5q0 40 16 71t46 52t72 31.5t94 10.5h82v22q0 58 -32 81
t-78 23q-39 0 -68 -20.5t-37 -58.5l-74 17q11 64 59 101t120 37q42 0 77.5 -11t61.5 -34t40.5 -59t14.5 -86v-322zM157 653q0 42 28.5 71t70.5 29q44 0 71.5 -29t27.5 -71q0 -41 -27.5 -68.5t-71.5 -27.5q-21 0 -39 7.5t-31.5 20.5t-21 30.5t-7.5 37.5zM213 654
q0 -19 12 -31.5t31 -12.5q20 0 31.5 12.5t11.5 31.5q0 20 -11.5 33t-31.5 13q-19 0 -31 -13t-12 -33z" />
    <glyph glyph-name="ae" unicode="&#xe6;" horiz-adv-x="872" 
d="M822 234h-370q2 -35 11.5 -65t27 -52.5t43.5 -35.5t60 -13q56 0 87.5 24.5t52.5 71.5l74 -32q-35 -74 -85.5 -107t-128.5 -33q-71 0 -119 31t-75 82q-37 -66 -84.5 -89.5t-103.5 -23.5q-32 0 -60 8.5t-49.5 27.5t-34 47.5t-12.5 69.5q0 40 16 71t46 52t72 31.5t94 10.5
h82v22q0 58 -32 81t-78 23q-39 0 -68 -20.5t-37 -58.5l-74 17q11 64 59 101t120 37q55 0 98.5 -19t68.5 -60q29 36 71.5 57.5t99.5 21.5q56 0 98.5 -20t71.5 -53t43.5 -76t14.5 -90v-39zM142 145q0 -36 21.5 -56.5t61.5 -20.5q24 0 49.5 8t45.5 26t33 47.5t13 72.5v12h-90
q-65 0 -99.5 -23t-34.5 -66zM594 436q-59 0 -92.5 -35.5t-44.5 -90.5h277q-5 27 -16 50t-28.5 40t-41.5 26.5t-54 9.5z" />
    <glyph glyph-name="ccedilla" unicode="&#xe7;" horiz-adv-x="538" 
d="M494 131q-31 -71 -82 -105t-129 -34q-58 0 -101 21.5t-71.5 57.5t-42.5 83t-14 98t14 98t42.5 83t71.5 57.5t101 21.5q78 0 129 -34t82 -105l-73 -30q-20 46 -53 69.5t-85 23.5q-37 0 -64 -14.5t-44.5 -39.5t-26 -58.5t-8.5 -71.5t8.5 -71.5t26 -58.5t44.5 -39.5
t64 -14.5q52 0 85 23.5t53 69.5zM269 -235l-95 45l108 130h70z" />
    <glyph glyph-name="egrave" unicode="&#xe8;" horiz-adv-x="560" 
d="M510 234h-370q2 -35 11.5 -65t27 -52.5t43.5 -35.5t60 -13q56 0 87.5 24.5t52.5 71.5l74 -32q-35 -74 -85.5 -107t-128.5 -33q-57 0 -100 21.5t-71.5 57.5t-42.5 83t-14 98t14 98t42.5 83t71.5 57.5t100 21.5q56 0 98.5 -20t71.5 -53t43.5 -76t14.5 -90v-39zM282 436
q-59 0 -92.5 -35.5t-44.5 -90.5h277q-11 54 -45 90t-95 36zM344 560h-68l-121 144h121z" />
    <glyph glyph-name="eacute" unicode="&#xe9;" horiz-adv-x="560" 
d="M510 234h-370q2 -35 11.5 -65t27 -52.5t43.5 -35.5t60 -13q56 0 87.5 24.5t52.5 71.5l74 -32q-35 -74 -85.5 -107t-128.5 -33q-57 0 -100 21.5t-71.5 57.5t-42.5 83t-14 98t14 98t42.5 83t71.5 57.5t100 21.5q56 0 98.5 -20t71.5 -53t43.5 -76t14.5 -90v-39zM282 436
q-59 0 -92.5 -35.5t-44.5 -90.5h277q-11 54 -45 90t-95 36zM287 704h121l-121 -144h-68z" />
    <glyph glyph-name="ecircumflex" unicode="&#xea;" horiz-adv-x="560" 
d="M510 234h-370q2 -35 11.5 -65t27 -52.5t43.5 -35.5t60 -13q56 0 87.5 24.5t52.5 71.5l74 -32q-35 -74 -85.5 -107t-128.5 -33q-57 0 -100 21.5t-71.5 57.5t-42.5 83t-14 98t14 98t42.5 83t71.5 57.5t100 21.5q56 0 98.5 -20t71.5 -53t43.5 -76t14.5 -90v-39zM282 436
q-59 0 -92.5 -35.5t-44.5 -90.5h277q-11 54 -45 90t-95 36zM273 730h26l153 -164h-86l-80 85l-80 -85h-86z" />
    <glyph glyph-name="edieresis" unicode="&#xeb;" horiz-adv-x="560" 
d="M510 234h-370q2 -35 11.5 -65t27 -52.5t43.5 -35.5t60 -13q56 0 87.5 24.5t52.5 71.5l74 -32q-35 -74 -85.5 -107t-128.5 -33q-57 0 -100 21.5t-71.5 57.5t-42.5 83t-14 98t14 98t42.5 83t71.5 57.5t100 21.5q56 0 98.5 -20t71.5 -53t43.5 -76t14.5 -90v-39zM282 436
q-59 0 -92.5 -35.5t-44.5 -90.5h277q-11 54 -45 90t-95 36zM147 651q0 24 16.5 40.5t39.5 16.5q25 0 41 -16.5t16 -40.5t-16 -40t-41 -16q-23 0 -39.5 16t-16.5 40zM313 651q0 24 16.5 40.5t39.5 16.5q25 0 41 -16.5t16 -40.5t-16 -40t-41 -16q-23 0 -39.5 16t-16.5 40z" />
    <glyph glyph-name="igrave" unicode="&#xec;" horiz-adv-x="270" 
d="M177 504v-504h-84v504h84zM200 560h-68l-121 144h121z" />
    <glyph glyph-name="iacute" unicode="&#xed;" horiz-adv-x="270" 
d="M177 504v-504h-84v504h84zM139 704h121l-121 -144h-68z" />
    <glyph glyph-name="icircumflex" unicode="&#xee;" horiz-adv-x="270" 
d="M177 504v-504h-84v504h84zM122 730h26l153 -164h-86l-80 85l-80 -85h-86z" />
    <glyph glyph-name="idieresis" unicode="&#xef;" horiz-adv-x="270" 
d="M177 504v-504h-84v504h84zM-4 651q0 24 16.5 40.5t39.5 16.5q25 0 41 -16.5t16 -40.5t-16 -40t-41 -16q-23 0 -39.5 16t-16.5 40zM162 651q0 24 16.5 40.5t39.5 16.5q25 0 41 -16.5t16 -40.5t-16 -40t-41 -16q-23 0 -39.5 16t-16.5 40z" />
    <glyph glyph-name="eth" unicode="&#xf0;" horiz-adv-x="580" 
d="M195 584l38 57q-20 11 -40 20.5t-40 17.5l40 61q45 -19 80 -39l37 54l58 -42l-34 -51q52 -39 89 -83.5t59.5 -95t33 -108t10.5 -123.5q0 -51 -15.5 -98t-45.5 -83t-74 -57.5t-101 -21.5t-101 21.5t-74 57.5t-45.5 83t-15.5 98t15.5 98t45.5 83t74 57.5t101 21.5
q33 0 65.5 -12.5t47.5 -31.5q-16 43 -43.5 73.5t-66.5 59.5l-39 -59zM140 252q0 -35 9 -68t27.5 -59t46.5 -41.5t67 -15.5t67 15.5t46.5 41.5t27.5 59t9 68q0 36 -9.5 69.5t-28 59t-47 40.5t-65.5 15q-39 0 -67 -15.5t-46.5 -41.5t-27.5 -59t-9 -68z" />
    <glyph glyph-name="ntilde" unicode="&#xf1;" horiz-adv-x="577" 
d="M491 0h-84v333q0 52 -22.5 77.5t-64.5 25.5q-28 0 -54 -15.5t-46 -44.5t-32 -71t-12 -94v-211h-84v504h84v-93q28 49 71 75t96 26q69 0 108.5 -41t39.5 -116v-355zM123 624q17 32 45.5 54t61.5 22q25 0 42 -6.5t30.5 -14t26.5 -13.5t32 -6q21 0 36.5 9.5t29.5 26.5
l49 -39q-17 -32 -45.5 -53.5t-61.5 -21.5q-26 0 -42.5 6t-30 13.5t-26.5 14t-32 6.5q-21 0 -36.5 -9.5t-29.5 -26.5z" />
    <glyph glyph-name="ograve" unicode="&#xf2;" 
d="M54 252q0 51 16.5 98t48 83t76 57.5t101.5 21.5t101.5 -21.5t76 -57.5t48 -83t16.5 -98t-16.5 -98t-48 -83t-76 -57.5t-101.5 -21.5t-101.5 21.5t-76 57.5t-48 83t-16.5 98zM140 252q0 -35 10 -68t29.5 -59t48.5 -41.5t68 -15.5t68 15.5t48.5 41.5t29.5 59t10 68t-10 68
t-29.5 59t-48.5 41.5t-68 15.5t-68 -15.5t-48.5 -41.5t-29.5 -59t-10 -68zM356 560h-68l-121 144h121z" />
    <glyph glyph-name="oacute" unicode="&#xf3;" 
d="M54 252q0 51 16.5 98t48 83t76 57.5t101.5 21.5t101.5 -21.5t76 -57.5t48 -83t16.5 -98t-16.5 -98t-48 -83t-76 -57.5t-101.5 -21.5t-101.5 21.5t-76 57.5t-48 83t-16.5 98zM140 252q0 -35 10 -68t29.5 -59t48.5 -41.5t68 -15.5t68 15.5t48.5 41.5t29.5 59t10 68t-10 68
t-29.5 59t-48.5 41.5t-68 15.5t-68 -15.5t-48.5 -41.5t-29.5 -59t-10 -68zM300 704h121l-121 -144h-68z" />
    <glyph glyph-name="ocircumflex" unicode="&#xf4;" 
d="M54 252q0 51 16.5 98t48 83t76 57.5t101.5 21.5t101.5 -21.5t76 -57.5t48 -83t16.5 -98t-16.5 -98t-48 -83t-76 -57.5t-101.5 -21.5t-101.5 21.5t-76 57.5t-48 83t-16.5 98zM140 252q0 -35 10 -68t29.5 -59t48.5 -41.5t68 -15.5t68 15.5t48.5 41.5t29.5 59t10 68t-10 68
t-29.5 59t-48.5 41.5t-68 15.5t-68 -15.5t-48.5 -41.5t-29.5 -59t-10 -68zM283 730h26l153 -164h-86l-80 85l-80 -85h-86z" />
    <glyph glyph-name="otilde" unicode="&#xf5;" 
d="M54 252q0 51 16.5 98t48 83t76 57.5t101.5 21.5t101.5 -21.5t76 -57.5t48 -83t16.5 -98t-16.5 -98t-48 -83t-76 -57.5t-101.5 -21.5t-101.5 21.5t-76 57.5t-48 83t-16.5 98zM140 252q0 -35 10 -68t29.5 -59t48.5 -41.5t68 -15.5t68 15.5t48.5 41.5t29.5 59t10 68t-10 68
t-29.5 59t-48.5 41.5t-68 15.5t-68 -15.5t-48.5 -41.5t-29.5 -59t-10 -68zM120 624q17 32 45.5 54t61.5 22q25 0 42 -6.5t30.5 -14t26.5 -13.5t32 -6q21 0 36.5 9.5t29.5 26.5l49 -39q-17 -32 -45.5 -53.5t-61.5 -21.5q-26 0 -42.5 6t-30 13.5t-26.5 14t-32 6.5
q-21 0 -36.5 -9.5t-29.5 -26.5z" />
    <glyph glyph-name="odieresis" unicode="&#xf6;" 
d="M54 252q0 51 16.5 98t48 83t76 57.5t101.5 21.5t101.5 -21.5t76 -57.5t48 -83t16.5 -98t-16.5 -98t-48 -83t-76 -57.5t-101.5 -21.5t-101.5 21.5t-76 57.5t-48 83t-16.5 98zM140 252q0 -35 10 -68t29.5 -59t48.5 -41.5t68 -15.5t68 15.5t48.5 41.5t29.5 59t10 68t-10 68
t-29.5 59t-48.5 41.5t-68 15.5t-68 -15.5t-48.5 -41.5t-29.5 -59t-10 -68zM157 651q0 24 16.5 40.5t39.5 16.5q25 0 41 -16.5t16 -40.5t-16 -40t-41 -16q-23 0 -39.5 16t-16.5 40zM323 651q0 24 16.5 40.5t39.5 16.5q25 0 41 -16.5t16 -40.5t-16 -40t-41 -16q-23 0 -39.5 16
t-16.5 40z" />
    <glyph glyph-name="divide" unicode="&#xf7;" horiz-adv-x="536" 
d="M205 128q0 26 18 44.5t45 18.5q26 0 44.5 -18.5t18.5 -44.5q0 -27 -18.5 -45t-44.5 -18q-27 0 -45 18t-18 45zM205 502q0 26 18 44.5t45 18.5q26 0 44.5 -18.5t18.5 -44.5q0 -27 -18.5 -45t-44.5 -18q-27 0 -45 18t-18 45zM48 354h440v-74h-440v74z" />
    <glyph glyph-name="oslash" unicode="&#xf8;" 
d="M540 504l-61 -78q29 -35 44 -80t15 -94q0 -51 -16.5 -98t-48 -83t-76 -57.5t-101.5 -21.5q-38 0 -70 9.5t-58 26.5l-56 -71l-60 43l61 78q-29 35 -44 80t-15 94q0 51 16.5 98t48 83t76 57.5t101.5 21.5q38 0 70 -9.5t58 -26.5l56 71zM452 252q0 28 -6.5 55.5t-19.5 50.5
l-209 -267q17 -11 36.5 -17t42.5 -6q39 0 68 15.5t48.5 41.5t29.5 59t10 68zM140 252q0 -59 26 -106l209 267q-17 11 -36.5 17t-42.5 6q-39 0 -68 -15.5t-48.5 -41.5t-29.5 -59t-10 -68z" />
    <glyph glyph-name="ugrave" unicode="&#xf9;" horiz-adv-x="577" 
d="M86 504h84v-333q0 -52 22.5 -77.5t64.5 -25.5q28 0 54 15.5t46 44.5t32 70.5t12 94.5v211h84v-504h-84v93q-28 -49 -71 -75t-96 -26q-69 0 -108.5 41t-39.5 116v355zM340 560h-68l-121 144h121z" />
    <glyph glyph-name="uacute" unicode="&#xfa;" horiz-adv-x="577" 
d="M86 504h84v-333q0 -52 22.5 -77.5t64.5 -25.5q28 0 54 15.5t46 44.5t32 70.5t12 94.5v211h84v-504h-84v93q-28 -49 -71 -75t-96 -26q-69 0 -108.5 41t-39.5 116v355zM289 704h121l-121 -144h-68z" />
    <glyph glyph-name="ucircumflex" unicode="&#xfb;" horiz-adv-x="577" 
d="M86 504h84v-333q0 -52 22.5 -77.5t64.5 -25.5q28 0 54 15.5t46 44.5t32 70.5t12 94.5v211h84v-504h-84v93q-28 -49 -71 -75t-96 -26q-69 0 -108.5 41t-39.5 116v355zM273 730h26l153 -164h-86l-80 85l-80 -85h-86z" />
    <glyph glyph-name="udieresis" unicode="&#xfc;" horiz-adv-x="577" 
d="M86 504h84v-333q0 -52 22.5 -77.5t64.5 -25.5q28 0 54 15.5t46 44.5t32 70.5t12 94.5v211h84v-504h-84v93q-28 -49 -71 -75t-96 -26q-69 0 -108.5 41t-39.5 116v355zM147 651q0 24 16.5 40.5t39.5 16.5q25 0 41 -16.5t16 -40.5t-16 -40t-41 -16q-23 0 -39.5 16t-16.5 40z
M313 651q0 24 16.5 40.5t39.5 16.5q25 0 41 -16.5t16 -40.5t-16 -40t-41 -16q-23 0 -39.5 16t-16.5 40z" />
    <glyph glyph-name="yacute" unicode="&#xfd;" horiz-adv-x="460" 
d="M448 504l-250 -708h-86l80 225l-177 483h92l128 -364l125 364h88zM246 704h121l-121 -144h-68z" />
    <glyph glyph-name="thorn" unicode="&#xfe;" horiz-adv-x="601" 
d="M547 252q0 -57 -14 -104.5t-42.5 -82t-70.5 -54t-97 -19.5q-23 0 -45.5 5.5t-42 15.5t-35 22.5t-24.5 26.5v-266h-84v912h84v-264q6 11 21 23t35 22t43.5 16.5t47.5 6.5q55 0 97 -19.5t70.5 -54t42.5 -82t14 -104.5zM461 252q0 40 -10.5 74t-29.5 58.5t-46 38t-60 13.5
q-35 0 -62 -13.5t-45.5 -38t-28.5 -58.5t-10 -74q0 -41 10 -74.5t28.5 -58t45.5 -38t62 -13.5q33 0 60 13.5t46 38t29.5 58t10.5 74.5z" />
    <glyph glyph-name="ydieresis" unicode="&#xff;" horiz-adv-x="460" 
d="M448 504l-250 -708h-86l80 225l-177 483h92l128 -364l125 364h88zM97 651q0 24 16.5 40.5t39.5 16.5q25 0 41 -16.5t16 -40.5t-16 -40t-41 -16q-23 0 -39.5 16t-16.5 40zM263 651q0 24 16.5 40.5t39.5 16.5q25 0 41 -16.5t16 -40.5t-16 -40t-41 -16q-23 0 -39.5 16
t-16.5 40z" />
    <glyph glyph-name="Amacron" unicode="&#x100;" 
d="M254 700h84l242 -700h-88l-62 187h-268l-62 -187h-88zM402 271l-106 315l-106 -315h212zM172 884h249v-76h-249v76z" />
    <glyph glyph-name="amacron" unicode="&#x101;" horiz-adv-x="518" 
d="M142 145q0 -36 21.5 -56.5t61.5 -20.5q24 0 49.5 8t45.5 26t33 47.5t13 72.5v12h-90q-65 0 -99.5 -23t-34.5 -66zM450 0h-66l-14 71q-24 -35 -62.5 -57t-95.5 -22q-32 0 -60 8.5t-49.5 27.5t-34 47.5t-12.5 69.5q0 40 16 71t46 52t72 31.5t94 10.5h82v22q0 58 -32 81
t-78 23q-39 0 -68 -20.5t-37 -58.5l-74 17q11 64 59 101t120 37q42 0 77.5 -11t61.5 -34t40.5 -59t14.5 -86v-322zM134 688h249v-76h-249v76z" />
    <glyph glyph-name="Abreve" unicode="&#x102;" 
d="M254 700h84l242 -700h-88l-62 187h-268l-62 -187h-88zM402 271l-106 315l-106 -315h212zM407 896q0 -46 -31 -77.5t-80 -31.5q-24 0 -44 8.5t-35 23t-23.5 34.5t-8.5 43h67q0 -20 12 -32.5t32 -12.5t32 12.5t12 32.5h67z" />
    <glyph glyph-name="abreve" unicode="&#x103;" horiz-adv-x="518" 
d="M142 145q0 -36 21.5 -56.5t61.5 -20.5q24 0 49.5 8t45.5 26t33 47.5t13 72.5v12h-90q-65 0 -99.5 -23t-34.5 -66zM450 0h-66l-14 71q-24 -35 -62.5 -57t-95.5 -22q-32 0 -60 8.5t-49.5 27.5t-34 47.5t-12.5 69.5q0 40 16 71t46 52t72 31.5t94 10.5h82v22q0 58 -32 81
t-78 23q-39 0 -68 -20.5t-37 -58.5l-74 17q11 64 59 101t120 37q42 0 77.5 -11t61.5 -34t40.5 -59t14.5 -86v-322zM371 700q0 -46 -31 -77.5t-80 -31.5q-24 0 -44 8.5t-35 23t-23.5 34.5t-8.5 43h67q0 -20 12 -32.5t32 -12.5t32 12.5t12 32.5h67z" />
    <glyph glyph-name="Aogonek" unicode="&#x104;" 
d="M492 0l-62 187h-268l-62 -187h-88l242 700h84l242 -700q-26 -23 -41 -42.5t-15 -37.5q0 -14 8 -22t22 -8q17 0 28.5 10.5t26.5 30.5l43 -35q-24 -36 -48 -53.5t-60 -17.5q-39 0 -62.5 22.5t-23.5 60.5q0 24 15.5 48t44.5 44h-26zM402 271l-106 315l-106 -315h212z" />
    <glyph glyph-name="aogonek" unicode="&#x105;" horiz-adv-x="518" 
d="M370 71q-24 -35 -62.5 -57t-95.5 -22q-32 0 -60 8.5t-49.5 27.5t-34 47.5t-12.5 69.5q0 40 16 71t46 52t72 31.5t94 10.5h82v22q0 58 -32 81t-78 23q-39 0 -68 -20.5t-37 -58.5l-74 17q11 64 59 101t120 37q42 0 77.5 -11t61.5 -34t40.5 -59t14.5 -86v-322
q-26 -23 -41 -42.5t-15 -37.5q0 -14 8 -22t22 -8q17 0 28.5 10.5t26.5 30.5l43 -35q-24 -36 -48 -53.5t-60 -17.5q-39 0 -62.5 22.5t-23.5 60.5q0 29 14.5 49.5t41.5 42.5zM142 145q0 -36 21.5 -56.5t61.5 -20.5q24 0 49.5 8t45.5 26t33 47.5t13 72.5v12h-90
q-65 0 -99.5 -23t-34.5 -66z" />
    <glyph glyph-name="Cacute" unicode="&#x106;" horiz-adv-x="688" 
d="M645 204q-12 -46 -35.5 -85t-58.5 -67t-80 -44t-100 -16q-61 0 -118 22.5t-101 67t-70.5 111.5t-26.5 157t26.5 157t70.5 111.5t101 67t118 22.5q55 0 100 -16t80 -44t58.5 -67t35.5 -85l-85 -25q-24 74 -72 113.5t-117 39.5q-48 0 -89.5 -17.5t-71.5 -52t-47 -85.5
t-17 -119t17 -119t47 -85.5t71.5 -52t89.5 -17.5q69 0 117 39.5t72 113.5zM380 900h121l-121 -144h-68z" />
    <glyph glyph-name="cacute" unicode="&#x107;" horiz-adv-x="538" 
d="M494 131q-31 -71 -82 -105t-129 -34q-58 0 -101 21.5t-71.5 57.5t-42.5 83t-14 98t14 98t42.5 83t71.5 57.5t101 21.5q78 0 129 -34t82 -105l-73 -30q-20 46 -53 69.5t-85 23.5q-37 0 -64 -14.5t-44.5 -39.5t-26 -58.5t-8.5 -71.5t8.5 -71.5t26 -58.5t44.5 -39.5
t64 -14.5q52 0 85 23.5t53 69.5zM289 704h121l-121 -144h-68z" />
    <glyph glyph-name="Ccircumflex" unicode="&#x108;" horiz-adv-x="688" 
d="M645 204q-12 -46 -35.5 -85t-58.5 -67t-80 -44t-100 -16q-61 0 -118 22.5t-101 67t-70.5 111.5t-26.5 157t26.5 157t70.5 111.5t101 67t118 22.5q55 0 100 -16t80 -44t58.5 -67t35.5 -85l-85 -25q-24 74 -72 113.5t-117 39.5q-48 0 -89.5 -17.5t-71.5 -52t-47 -85.5
t-17 -119t17 -119t47 -85.5t71.5 -52t89.5 -17.5q69 0 117 39.5t72 113.5zM360 926h26l153 -164h-86l-80 85l-80 -85h-86z" />
    <glyph glyph-name="ccircumflex" unicode="&#x109;" horiz-adv-x="538" 
d="M494 131q-31 -71 -82 -105t-129 -34q-58 0 -101 21.5t-71.5 57.5t-42.5 83t-14 98t14 98t42.5 83t71.5 57.5t101 21.5q78 0 129 -34t82 -105l-73 -30q-20 46 -53 69.5t-85 23.5q-37 0 -64 -14.5t-44.5 -39.5t-26 -58.5t-8.5 -71.5t8.5 -71.5t26 -58.5t44.5 -39.5
t64 -14.5q52 0 85 23.5t53 69.5zM272 730h26l153 -164h-86l-80 85l-80 -85h-86z" />
    <glyph glyph-name="Cdotaccent" unicode="&#x10a;" horiz-adv-x="688" 
d="M645 204q-12 -46 -35.5 -85t-58.5 -67t-80 -44t-100 -16q-61 0 -118 22.5t-101 67t-70.5 111.5t-26.5 157t26.5 157t70.5 111.5t101 67t118 22.5q55 0 100 -16t80 -44t58.5 -67t35.5 -85l-85 -25q-24 74 -72 113.5t-117 39.5q-48 0 -89.5 -17.5t-71.5 -52t-47 -85.5
t-17 -119t17 -119t47 -85.5t71.5 -52t89.5 -17.5q69 0 117 39.5t72 113.5zM308 840q0 27 18.5 45.5t44.5 18.5q27 0 45 -18.5t18 -45.5q0 -26 -18 -44t-45 -18q-26 0 -44.5 18t-18.5 44z" />
    <glyph glyph-name="cdotaccent" unicode="&#x10b;" horiz-adv-x="538" 
d="M494 131q-31 -71 -82 -105t-129 -34q-58 0 -101 21.5t-71.5 57.5t-42.5 83t-14 98t14 98t42.5 83t71.5 57.5t101 21.5q78 0 129 -34t82 -105l-73 -30q-20 46 -53 69.5t-85 23.5q-37 0 -64 -14.5t-44.5 -39.5t-26 -58.5t-8.5 -71.5t8.5 -71.5t26 -58.5t44.5 -39.5
t64 -14.5q52 0 85 23.5t53 69.5zM221 644q0 27 18.5 45.5t44.5 18.5q27 0 45 -18.5t18 -45.5q0 -26 -18 -44t-45 -18q-26 0 -44.5 18t-18.5 44z" />
    <glyph glyph-name="Ccaron" unicode="&#x10c;" horiz-adv-x="688" 
d="M645 204q-12 -46 -35.5 -85t-58.5 -67t-80 -44t-100 -16q-61 0 -118 22.5t-101 67t-70.5 111.5t-26.5 157t26.5 157t70.5 111.5t101 67t118 22.5q55 0 100 -16t80 -44t58.5 -67t35.5 -85l-85 -25q-24 74 -72 113.5t-117 39.5q-48 0 -89.5 -17.5t-71.5 -52t-47 -85.5
t-17 -119t17 -119t47 -85.5t71.5 -52t89.5 -17.5q69 0 117 39.5t72 113.5zM208 926h86l80 -85l80 85h86l-153 -164h-26z" />
    <glyph glyph-name="ccaron" unicode="&#x10d;" horiz-adv-x="538" 
d="M494 131q-31 -71 -82 -105t-129 -34q-58 0 -101 21.5t-71.5 57.5t-42.5 83t-14 98t14 98t42.5 83t71.5 57.5t101 21.5q78 0 129 -34t82 -105l-73 -30q-20 46 -53 69.5t-85 23.5q-37 0 -64 -14.5t-44.5 -39.5t-26 -58.5t-8.5 -71.5t8.5 -71.5t26 -58.5t44.5 -39.5
t64 -14.5q52 0 85 23.5t53 69.5zM119 730h86l80 -85l80 85h86l-153 -164h-26z" />
    <glyph glyph-name="Dcaron" unicode="&#x10e;" horiz-adv-x="666" 
d="M289 700q64 0 122.5 -23t103 -67t70.5 -109.5t26 -150.5t-26 -150.5t-70.5 -109.5t-103 -67t-122.5 -23h-192v700h192zM185 616v-532h89q48 0 92 14t77.5 45.5t53.5 82t20 124.5q0 73 -20 124t-53.5 82.5t-77.5 45.5t-92 14h-89zM110 926h86l80 -85l80 85h86l-153 -164
h-26z" />
    <glyph glyph-name="dcaron" unicode="&#x10f;" horiz-adv-x="706" 
d="M596 738h97l-71 -168h-56zM54 252q0 57 14 104.5t42.5 82t70 54t97.5 19.5q24 0 47.5 -6.5t43.5 -16.5t35 -22t21 -23v264h84v-708h-84v62q-9 -14 -24.5 -26.5t-35 -22.5t-42 -15.5t-45.5 -5.5q-56 0 -97.5 19.5t-70 54t-42.5 82t-14 104.5zM140 252q0 -41 10.5 -74.5
t29.5 -58t46 -38t60 -13.5q34 0 61.5 13.5t46 38t28.5 58t10 74.5q0 40 -10 74t-28.5 58.5t-46 38t-61.5 13.5q-33 0 -60 -13.5t-46 -38t-29.5 -58.5t-10.5 -74z" />
    <glyph glyph-name="Dcroat" unicode="&#x110;" horiz-adv-x="687" 
d="M35 392h83v308h192q64 0 122.5 -23t103 -67t70.5 -109.5t26 -150.5t-26 -150.5t-70.5 -109.5t-103 -67t-122.5 -23h-192v308h-83v84zM206 616v-224h83v-84h-83v-224h89q48 0 92 14t77.5 45.5t53.5 82t20 124.5q0 73 -20 124t-53.5 82.5t-77.5 45.5t-92 14h-89z" />
    <glyph glyph-name="dcroat" unicode="&#x111;" horiz-adv-x="601" 
d="M298 640h127v68h84v-68h71v-68h-71v-572h-84v62q-9 -14 -24.5 -26.5t-35 -22.5t-42 -15.5t-45.5 -5.5q-56 0 -97.5 19.5t-70 54t-42.5 82t-14 104.5t14 104.5t42.5 82t70 54t97.5 19.5q24 0 47.5 -6.5t43.5 -16.5t35 -22t21 -23v128h-127v68zM140 252q0 -41 10.5 -74.5
t29.5 -58t46 -38t60 -13.5q34 0 61.5 13.5t46 38t28.5 58t10 74.5q0 40 -10 74t-28.5 58.5t-46 38t-61.5 13.5q-33 0 -60 -13.5t-46 -38t-29.5 -58.5t-10.5 -74z" />
    <glyph glyph-name="Emacron" unicode="&#x112;" horiz-adv-x="566" 
d="M499 700v-84h-314v-201h254v-84h-254v-247h324v-84h-412v700h402zM175 884h249v-76h-249v76z" />
    <glyph glyph-name="emacron" unicode="&#x113;" horiz-adv-x="560" 
d="M510 234h-370q2 -35 11.5 -65t27 -52.5t43.5 -35.5t60 -13q56 0 87.5 24.5t52.5 71.5l74 -32q-35 -74 -85.5 -107t-128.5 -33q-57 0 -100 21.5t-71.5 57.5t-42.5 83t-14 98t14 98t42.5 83t71.5 57.5t100 21.5q56 0 98.5 -20t71.5 -53t43.5 -76t14.5 -90v-39zM282 436
q-59 0 -92.5 -35.5t-44.5 -90.5h277q-11 54 -45 90t-95 36zM159 688h249v-76h-249v76z" />
    <glyph glyph-name="Ebreve" unicode="&#x114;" horiz-adv-x="566" 
d="M499 700v-84h-314v-201h254v-84h-254v-247h324v-84h-412v700h402zM414 896q0 -46 -31 -77.5t-80 -31.5q-24 0 -44 8.5t-35 23t-23.5 34.5t-8.5 43h67q0 -20 12 -32.5t32 -12.5t32 12.5t12 32.5h67z" />
    <glyph glyph-name="ebreve" unicode="&#x115;" horiz-adv-x="560" 
d="M510 234h-370q2 -35 11.5 -65t27 -52.5t43.5 -35.5t60 -13q56 0 87.5 24.5t52.5 71.5l74 -32q-35 -74 -85.5 -107t-128.5 -33q-57 0 -100 21.5t-71.5 57.5t-42.5 83t-14 98t14 98t42.5 83t71.5 57.5t100 21.5q56 0 98.5 -20t71.5 -53t43.5 -76t14.5 -90v-39zM282 436
q-59 0 -92.5 -35.5t-44.5 -90.5h277q-11 54 -45 90t-95 36zM394 700q0 -46 -31 -77.5t-80 -31.5q-24 0 -44 8.5t-35 23t-23.5 34.5t-8.5 43h67q0 -20 12 -32.5t32 -12.5t32 12.5t12 32.5h67z" />
    <glyph glyph-name="Edotaccent" unicode="&#x116;" horiz-adv-x="566" 
d="M499 700v-84h-314v-201h254v-84h-254v-247h324v-84h-412v700h402zM241 840q0 27 18.5 45.5t44.5 18.5q27 0 45 -18.5t18 -45.5q0 -26 -18 -44t-45 -18q-26 0 -44.5 18t-18.5 44z" />
    <glyph glyph-name="edotaccent" unicode="&#x117;" horiz-adv-x="560" 
d="M510 234h-370q2 -35 11.5 -65t27 -52.5t43.5 -35.5t60 -13q56 0 87.5 24.5t52.5 71.5l74 -32q-35 -74 -85.5 -107t-128.5 -33q-57 0 -100 21.5t-71.5 57.5t-42.5 83t-14 98t14 98t42.5 83t71.5 57.5t100 21.5q56 0 98.5 -20t71.5 -53t43.5 -76t14.5 -90v-39zM282 436
q-59 0 -92.5 -35.5t-44.5 -90.5h277q-11 54 -45 90t-95 36zM217 644q0 27 18.5 45.5t44.5 18.5q27 0 45 -18.5t18 -45.5q0 -26 -18 -44t-45 -18q-26 0 -44.5 18t-18.5 44z" />
    <glyph glyph-name="Eogonek" unicode="&#x118;" horiz-adv-x="566" 
d="M97 0v700h402v-84h-314v-201h254v-84h-254v-247h324v-84q-26 -23 -41 -42.5t-15 -37.5q0 -14 8 -22t22 -8q17 0 28.5 10.5t26.5 30.5l43 -35q-24 -36 -48 -53.5t-60 -17.5q-39 0 -62.5 22.5t-23.5 60.5q0 24 15.5 48t44.5 44h-350z" />
    <glyph glyph-name="eogonek" unicode="&#x119;" horiz-adv-x="560" 
d="M510 234h-370q2 -35 11.5 -65t27 -52.5t43.5 -35.5t60 -13q56 0 87.5 24.5t52.5 71.5l74 -32q-27 -56 -61.5 -88t-82.5 -44q-26 -23 -41 -42.5t-15 -37.5q0 -14 8 -22t22 -8q17 0 28.5 10.5t26.5 30.5l43 -35q-24 -36 -48 -53.5t-60 -17.5q-39 0 -62.5 22.5t-23.5 60.5
q0 46 49 84q-57 1 -99 22.5t-70 57.5t-42 83t-14 97q0 51 14 98t42.5 83t71.5 57.5t100 21.5q56 0 98.5 -20t71.5 -53t43.5 -76t14.5 -90v-39zM282 436q-59 0 -92.5 -35.5t-44.5 -90.5h277q-11 54 -45 90t-95 36z" />
    <glyph glyph-name="Ecaron" unicode="&#x11a;" horiz-adv-x="566" 
d="M499 700v-84h-314v-201h254v-84h-254v-247h324v-84h-412v700h402zM134 926h86l80 -85l80 85h86l-153 -164h-26z" />
    <glyph glyph-name="ecaron" unicode="&#x11b;" horiz-adv-x="560" 
d="M510 234h-370q2 -35 11.5 -65t27 -52.5t43.5 -35.5t60 -13q56 0 87.5 24.5t52.5 71.5l74 -32q-35 -74 -85.5 -107t-128.5 -33q-57 0 -100 21.5t-71.5 57.5t-42.5 83t-14 98t14 98t42.5 83t71.5 57.5t100 21.5q56 0 98.5 -20t71.5 -53t43.5 -76t14.5 -90v-39zM282 436
q-59 0 -92.5 -35.5t-44.5 -90.5h277q-11 54 -45 90t-95 36zM119 730h86l80 -85l80 85h86l-153 -164h-26z" />
    <glyph glyph-name="Gcircumflex" unicode="&#x11c;" horiz-adv-x="714" 
d="M413 353h235v-353h-75l-9 96q-25 -44 -75 -74t-122 -30q-60 0 -116 22t-99.5 66t-70 111.5t-26.5 158.5t26.5 158.5t70.5 111.5t101 66t118 22q55 0 100.5 -15.5t80.5 -43t58.5 -66.5t35.5 -87l-85 -25q-24 74 -72 113.5t-118 39.5q-48 0 -89.5 -17.5t-71.5 -52
t-47 -85.5t-17 -119t17 -119t47 -85.5t71.5 -52t89.5 -17.5q45 0 80 14.5t59 40t37.5 61t16.5 77.5h-151v84zM359 926h26l153 -164h-86l-80 85l-80 -85h-86z" />
    <glyph glyph-name="gcircumflex" unicode="&#x11d;" horiz-adv-x="507" 
d="M90 342q0 39 13.5 70.5t37.5 53.5t56 34t69 12q25 0 48 -6t43 -17l90 51l38 -69l-68 -38q25 -39 25 -91q0 -39 -13.5 -70.5t-37.5 -53t-56 -33t-69 -11.5q-50 0 -87 18q-33 -16 -33 -49q0 -42 57 -42h119q71 0 114.5 -35t43.5 -104q0 -47 -17 -80t-46.5 -54t-68 -30.5
t-81.5 -9.5q-48 0 -87.5 11t-67.5 32.5t-43.5 52.5t-15.5 70q0 35 13.5 61.5t33.5 43.5q-16 14 -25 33.5t-9 46.5q0 32 16.5 55.5t44.5 37.5q-17 21 -27 48.5t-10 61.5zM207 29q-10 0 -19.5 0.5t-17.5 1.5q-18 -14 -25.5 -32.5t-7.5 -41.5q0 -42 32.5 -68.5t97.5 -26.5
q66 0 96.5 26.5t30.5 65.5q0 42 -24 58.5t-61 16.5h-102zM172 342q0 -48 28 -72t66 -24t66 24t28 72t-28 73t-66 25t-66 -25t-28 -73zM251 730h26l153 -164h-86l-80 85l-80 -85h-86z" />
    <glyph glyph-name="Gbreve" unicode="&#x11e;" horiz-adv-x="714" 
d="M413 353h235v-353h-75l-9 96q-25 -44 -75 -74t-122 -30q-60 0 -116 22t-99.5 66t-70 111.5t-26.5 158.5t26.5 158.5t70.5 111.5t101 66t118 22q55 0 100.5 -15.5t80.5 -43t58.5 -66.5t35.5 -87l-85 -25q-24 74 -72 113.5t-118 39.5q-48 0 -89.5 -17.5t-71.5 -52
t-47 -85.5t-17 -119t17 -119t47 -85.5t71.5 -52t89.5 -17.5q45 0 80 14.5t59 40t37.5 61t16.5 77.5h-151v84zM482 896q0 -46 -31 -77.5t-80 -31.5q-24 0 -44 8.5t-35 23t-23.5 34.5t-8.5 43h67q0 -20 12 -32.5t32 -12.5t32 12.5t12 32.5h67z" />
    <glyph glyph-name="gbreve" unicode="&#x11f;" horiz-adv-x="507" 
d="M90 342q0 39 13.5 70.5t37.5 53.5t56 34t69 12q25 0 48 -6t43 -17l90 51l38 -69l-68 -38q25 -39 25 -91q0 -39 -13.5 -70.5t-37.5 -53t-56 -33t-69 -11.5q-50 0 -87 18q-33 -16 -33 -49q0 -42 57 -42h119q71 0 114.5 -35t43.5 -104q0 -47 -17 -80t-46.5 -54t-68 -30.5
t-81.5 -9.5q-48 0 -87.5 11t-67.5 32.5t-43.5 52.5t-15.5 70q0 35 13.5 61.5t33.5 43.5q-16 14 -25 33.5t-9 46.5q0 32 16.5 55.5t44.5 37.5q-17 21 -27 48.5t-10 61.5zM207 29q-10 0 -19.5 0.5t-17.5 1.5q-18 -14 -25.5 -32.5t-7.5 -41.5q0 -42 32.5 -68.5t97.5 -26.5
q66 0 96.5 26.5t30.5 65.5q0 42 -24 58.5t-61 16.5h-102zM172 342q0 -48 28 -72t66 -24t66 24t28 72t-28 73t-66 25t-66 -25t-28 -73zM377 700q0 -46 -31 -77.5t-80 -31.5q-24 0 -44 8.5t-35 23t-23.5 34.5t-8.5 43h67q0 -20 12 -32.5t32 -12.5t32 12.5t12 32.5h67z" />
    <glyph glyph-name="Gdotaccent" unicode="&#x120;" horiz-adv-x="714" 
d="M413 353h235v-353h-75l-9 96q-25 -44 -75 -74t-122 -30q-60 0 -116 22t-99.5 66t-70 111.5t-26.5 158.5t26.5 158.5t70.5 111.5t101 66t118 22q55 0 100.5 -15.5t80.5 -43t58.5 -66.5t35.5 -87l-85 -25q-24 74 -72 113.5t-118 39.5q-48 0 -89.5 -17.5t-71.5 -52
t-47 -85.5t-17 -119t17 -119t47 -85.5t71.5 -52t89.5 -17.5q45 0 80 14.5t59 40t37.5 61t16.5 77.5h-151v84zM309 840q0 27 18.5 45.5t44.5 18.5q27 0 45 -18.5t18 -45.5q0 -26 -18 -44t-45 -18q-26 0 -44.5 18t-18.5 44z" />
    <glyph glyph-name="gdotaccent" unicode="&#x121;" horiz-adv-x="507" 
d="M90 342q0 39 13.5 70.5t37.5 53.5t56 34t69 12q25 0 48 -6t43 -17l90 51l38 -69l-68 -38q25 -39 25 -91q0 -39 -13.5 -70.5t-37.5 -53t-56 -33t-69 -11.5q-50 0 -87 18q-33 -16 -33 -49q0 -42 57 -42h119q71 0 114.5 -35t43.5 -104q0 -47 -17 -80t-46.5 -54t-68 -30.5
t-81.5 -9.5q-48 0 -87.5 11t-67.5 32.5t-43.5 52.5t-15.5 70q0 35 13.5 61.5t33.5 43.5q-16 14 -25 33.5t-9 46.5q0 32 16.5 55.5t44.5 37.5q-17 21 -27 48.5t-10 61.5zM207 29q-10 0 -19.5 0.5t-17.5 1.5q-18 -14 -25.5 -32.5t-7.5 -41.5q0 -42 32.5 -68.5t97.5 -26.5
q66 0 96.5 26.5t30.5 65.5q0 42 -24 58.5t-61 16.5h-102zM172 342q0 -48 28 -72t66 -24t66 24t28 72t-28 73t-66 25t-66 -25t-28 -73zM205 644q0 27 18.5 45.5t44.5 18.5q27 0 45 -18.5t18 -45.5q0 -26 -18 -44t-45 -18q-26 0 -44.5 18t-18.5 44z" />
    <glyph glyph-name="uni0122" unicode="&#x122;" horiz-adv-x="714" 
d="M324 -52h107l-106 -178h-51zM413 353h235v-353h-75l-9 96q-25 -44 -75 -74t-122 -30q-60 0 -116 22t-99.5 66t-70 111.5t-26.5 158.5t26.5 158.5t70.5 111.5t101 66t118 22q55 0 100.5 -15.5t80.5 -43t58.5 -66.5t35.5 -87l-85 -25q-24 74 -72 113.5t-118 39.5
q-48 0 -89.5 -17.5t-71.5 -52t-47 -85.5t-17 -119t17 -119t47 -85.5t71.5 -52t89.5 -17.5q45 0 80 14.5t59 40t37.5 61t16.5 77.5h-151v84z" />
    <glyph glyph-name="uni0123" unicode="&#x123;" horiz-adv-x="507" 
d="M292 584h-63l-87 150h108zM90 342q0 39 13.5 70.5t37.5 53.5t56 34t69 12q25 0 48 -6t43 -17l90 51l38 -69l-68 -38q25 -39 25 -91q0 -39 -13.5 -70.5t-37.5 -53t-56 -33t-69 -11.5q-50 0 -87 18q-33 -16 -33 -49q0 -42 57 -42h119q71 0 114.5 -35t43.5 -104
q0 -47 -17 -80t-46.5 -54t-68 -30.5t-81.5 -9.5q-48 0 -87.5 11t-67.5 32.5t-43.5 52.5t-15.5 70q0 35 13.5 61.5t33.5 43.5q-16 14 -25 33.5t-9 46.5q0 32 16.5 55.5t44.5 37.5q-17 21 -27 48.5t-10 61.5zM207 29q-10 0 -19.5 0.5t-17.5 1.5q-18 -14 -25.5 -32.5
t-7.5 -41.5q0 -42 32.5 -68.5t97.5 -26.5q66 0 96.5 26.5t30.5 65.5q0 42 -24 58.5t-61 16.5h-102zM172 342q0 -48 28 -72t66 -24t66 24t28 72t-28 73t-66 25t-66 -25t-28 -73z" />
    <glyph glyph-name="Hcircumflex" unicode="&#x124;" horiz-adv-x="690" 
d="M593 700v-700h-88v330h-320v-330h-88v700h88v-286h320v286h88zM332 926h26l153 -164h-86l-80 85l-80 -85h-86z" />
    <glyph glyph-name="hcircumflex" unicode="&#x125;" horiz-adv-x="585" 
d="M499 0h-84v333q0 52 -22.5 77.5t-64.5 25.5q-28 0 -55 -15t-48.5 -43.5t-35 -70t-13.5 -93.5v-214h-84v708h84v-298q24 46 70 74t105 28q69 0 108.5 -40.5t39.5 -121.5v-350zM245 926h26l153 -164h-86l-80 85l-80 -85h-86z" />
    <glyph glyph-name="Hbar" unicode="&#x126;" horiz-adv-x="690" 
d="M24 592h73v108h88v-108h320v108h88v-108h75v-76h-75v-516h-88v330h-320v-330h-88v516h-73v76zM505 414v102h-320v-102h320z" />
    <glyph glyph-name="hbar" unicode="&#x127;" horiz-adv-x="585" 
d="M21 640h71v68h84v-68h127v-68h-127v-162q24 46 70 74t105 28q69 0 108.5 -40.5t39.5 -121.5v-350h-84v333q0 52 -22.5 77.5t-64.5 25.5q-28 0 -55 -15t-48.5 -43.5t-35 -70t-13.5 -93.5v-214h-84v572h-71v68z" />
    <glyph glyph-name="Itilde" unicode="&#x128;" horiz-adv-x="282" 
d="M185 700v-700h-88v700h88zM-35 820q17 32 45.5 54t61.5 22q25 0 42 -6.5t30.5 -14t26.5 -13.5t32 -6q21 0 36.5 9.5t29.5 26.5l49 -39q-17 -32 -45.5 -53.5t-61.5 -21.5q-26 0 -42.5 6t-30 13.5t-26.5 14t-32 6.5q-21 0 -36.5 -9.5t-29.5 -26.5z" />
    <glyph glyph-name="itilde" unicode="&#x129;" horiz-adv-x="270" 
d="M177 504v-504h-84v504h84zM-41 624q17 32 45.5 54t61.5 22q25 0 42 -6.5t30.5 -14t26.5 -13.5t32 -6q21 0 36.5 9.5t29.5 26.5l49 -39q-17 -32 -45.5 -53.5t-61.5 -21.5q-26 0 -42.5 6t-30 13.5t-26.5 14t-32 6.5q-21 0 -36.5 -9.5t-29.5 -26.5z" />
    <glyph glyph-name="Imacron" unicode="&#x12a;" horiz-adv-x="282" 
d="M185 700v-700h-88v700h88zM17 869h249v-76h-249v76z" />
    <glyph glyph-name="imacron" unicode="&#x12b;" horiz-adv-x="270" 
d="M177 504v-504h-84v504h84zM11 688h249v-76h-249v76z" />
    <glyph glyph-name="Ibreve" unicode="&#x12c;" horiz-adv-x="282" 
d="M185 700v-700h-88v700h88zM252 896q0 -46 -31 -77.5t-80 -31.5q-24 0 -44 8.5t-35 23t-23.5 34.5t-8.5 43h67q0 -20 12 -32.5t32 -12.5t32 12.5t12 32.5h67z" />
    <glyph glyph-name="ibreve" unicode="&#x12d;" horiz-adv-x="270" 
d="M177 504v-504h-84v504h84zM246 700q0 -46 -31 -77.5t-80 -31.5q-24 0 -44 8.5t-35 23t-23.5 34.5t-8.5 43h67q0 -20 12 -32.5t32 -12.5t32 12.5t12 32.5h67z" />
    <glyph glyph-name="Iogonek" unicode="&#x12e;" horiz-adv-x="282" 
d="M97 0v700h88v-700q-26 -23 -41 -42.5t-15 -37.5q0 -14 8 -22t22 -8q17 0 28.5 10.5t26.5 30.5l43 -35q-24 -36 -48 -53.5t-60 -17.5q-39 0 -62.5 22.5t-23.5 60.5q0 24 15.5 48t44.5 44h-26z" />
    <glyph glyph-name="iogonek" unicode="&#x12f;" horiz-adv-x="270" 
d="M93 0v504h84v-504q-26 -23 -41 -42.5t-15 -37.5q0 -14 8 -22t22 -8q17 0 28.5 10.5t26.5 30.5l43 -35q-24 -36 -48 -53.5t-60 -17.5q-39 0 -62.5 22.5t-23.5 60.5q0 24 15.5 48t44.5 44h-22zM72 644q0 27 18 45.5t45 18.5t45 -18.5t18 -45.5q0 -26 -18 -44t-45 -18
t-45 18t-18 44z" />
    <glyph glyph-name="Idotaccent" unicode="&#x130;" horiz-adv-x="282" 
d="M185 700v-700h-88v700h88zM78 840q0 27 18.5 45.5t44.5 18.5q27 0 45 -18.5t18 -45.5q0 -26 -18 -44t-45 -18q-26 0 -44.5 18t-18.5 44z" />
    <glyph glyph-name="dotlessi" unicode="&#x131;" horiz-adv-x="270" 
d="M177 504v-504h-84v504h84z" />
    <glyph glyph-name="IJ" unicode="&#x132;" horiz-adv-x="791" 
d="M185 700v-700h-88v700h88zM621 700h88v-485q0 -54 -15.5 -95.5t-43 -70t-65 -43t-80.5 -14.5q-48 0 -85 15t-63 40.5t-42 58.5t-22 69l89 19q11 -54 41.5 -86t81.5 -32q52 0 84 33t32 110v481z" />
    <glyph glyph-name="ij" unicode="&#x133;" horiz-adv-x="526" 
d="M177 504v-504h-84v504h84zM72 644q0 27 18 45.5t45 18.5t45 -18.5t18 -45.5q0 -26 -18 -44t-45 -18t-45 18t-18 44zM259 -132q22 6 39 14t29 20.5t18 31.5t6 48v522h84v-530q0 -78 -40.5 -125t-113.5 -61zM328 644q0 27 18 45.5t45 18.5t45 -18.5t18 -45.5q0 -26 -18 -44
t-45 -18t-45 18t-18 44z" />
    <glyph glyph-name="Jcircumflex" unicode="&#x134;" horiz-adv-x="509" 
d="M339 700h88v-485q0 -54 -15.5 -95.5t-43 -70t-65 -43t-80.5 -14.5q-48 0 -85 15t-63 40.5t-42 58.5t-22 69l89 19q11 -54 41.5 -86t81.5 -32q52 0 84 33t32 110v481zM369 926h26l153 -164h-86l-80 85l-80 -85h-86z" />
    <glyph glyph-name="jcircumflex" unicode="&#x135;" horiz-adv-x="270" 
d="M3 -132q22 6 39 14t29 20.5t18 31.5t6 48v522h84v-530q0 -78 -40.5 -125t-113.5 -61zM123 730h26l153 -164h-86l-80 85l-80 -85h-86z" />
    <glyph glyph-name="uni0136" unicode="&#x136;" horiz-adv-x="597" 
d="M270 -52h107l-106 -178h-51zM470 0l-285 353v-353h-88v700h88v-281l261 281h112l-284 -314l308 -386h-112z" />
    <glyph glyph-name="uni0137" unicode="&#x137;" horiz-adv-x="511" 
d="M225 -52h107l-106 -178h-51zM176 708v-415l196 211h108l-214 -231l230 -273h-107l-213 253v-253h-84v708h84z" />
    <glyph glyph-name="kgreenlandic" unicode="&#x138;" horiz-adv-x="511" 
d="M176 504v-211l196 211h108l-214 -231l230 -273h-107l-213 253v-253h-84v504h84z" />
    <glyph glyph-name="Lacute" unicode="&#x139;" horiz-adv-x="521" 
d="M185 700v-616h318v-84h-406v700h88zM167 900h121l-121 -144h-68z" />
    <glyph glyph-name="lacute" unicode="&#x13a;" horiz-adv-x="258" 
d="M174 708v-708h-84v708h84zM159 900h121l-121 -144h-68z" />
    <glyph glyph-name="uni013B" unicode="&#x13b;" horiz-adv-x="521" 
d="M253 -52h107l-106 -178h-51zM185 700v-616h318v-84h-406v700h88z" />
    <glyph glyph-name="uni013C" unicode="&#x13c;" horiz-adv-x="258" 
d="M77 -52h107l-106 -178h-51zM174 708v-708h-84v708h84z" />
    <glyph glyph-name="Lcaron" unicode="&#x13d;" horiz-adv-x="521" 
d="M416 738h97l-71 -168h-56zM185 700v-616h318v-84h-406v700h88z" />
    <glyph glyph-name="lcaron" unicode="&#x13e;" horiz-adv-x="371" 
d="M261 738h97l-71 -168h-56zM174 708v-708h-84v708h84z" />
    <glyph glyph-name="Ldot" unicode="&#x13f;" horiz-adv-x="521" 
d="M185 700v-616h318v-84h-406v700h88zM328 369q0 26 18 44.5t45 18.5q26 0 44.5 -18.5t18.5 -44.5q0 -27 -18.5 -45t-44.5 -18q-27 0 -45 18t-18 45z" />
    <glyph glyph-name="ldot" unicode="&#x140;" horiz-adv-x="442" 
d="M174 708v-708h-84v708h84zM258 369q0 26 18 44.5t45 18.5q26 0 44.5 -18.5t18.5 -44.5q0 -27 -18.5 -45t-44.5 -18q-27 0 -45 18t-18 45z" />
    <glyph glyph-name="Lslash" unicode="&#x141;" horiz-adv-x="521" 
d="M185 700v-302l117 65l36 -65l-153 -84v-230h318v-84h-406v265l-65 -37l-36 65l101 56v351h88z" />
    <glyph glyph-name="lslash" unicode="&#x142;" horiz-adv-x="339" 
d="M208 708v-283l66 38l36 -65l-102 -57v-341h-84v296l-66 -37l-36 65l102 56v328h84z" />
    <glyph glyph-name="Nacute" unicode="&#x143;" horiz-adv-x="701" 
d="M604 700v-700h-103l-316 557v-557h-88v700h103l316 -557v557h88zM364 900h121l-121 -144h-68z" />
    <glyph glyph-name="nacute" unicode="&#x144;" horiz-adv-x="577" 
d="M491 0h-84v333q0 52 -22.5 77.5t-64.5 25.5q-28 0 -54 -15.5t-46 -44.5t-32 -71t-12 -94v-211h-84v504h84v-93q28 49 71 75t96 26q69 0 108.5 -41t39.5 -116v-355zM301 704h121l-121 -144h-68z" />
    <glyph glyph-name="uni0145" unicode="&#x145;" horiz-adv-x="701" 
d="M297 -52h107l-106 -178h-51zM604 700v-700h-103l-316 557v-557h-88v700h103l316 -557v557h88z" />
    <glyph glyph-name="uni0146" unicode="&#x146;" horiz-adv-x="577" 
d="M239 -52h107l-106 -178h-51zM491 0h-84v333q0 52 -22.5 77.5t-64.5 25.5q-28 0 -54 -15.5t-46 -44.5t-32 -71t-12 -94v-211h-84v504h84v-93q28 49 71 75t96 26q69 0 108.5 -41t39.5 -116v-355z" />
    <glyph glyph-name="Ncaron" unicode="&#x147;" horiz-adv-x="701" 
d="M604 700v-700h-103l-316 557v-557h-88v700h103l316 -557v557h88zM184 926h86l80 -85l80 85h86l-153 -164h-26z" />
    <glyph glyph-name="ncaron" unicode="&#x148;" horiz-adv-x="577" 
d="M491 0h-84v333q0 52 -22.5 77.5t-64.5 25.5q-28 0 -54 -15.5t-46 -44.5t-32 -71t-12 -94v-211h-84v504h84v-93q28 49 71 75t96 26q69 0 108.5 -41t39.5 -116v-355zM138 730h86l80 -85l80 85h86l-153 -164h-26z" />
    <glyph glyph-name="napostrophe" unicode="&#x149;" horiz-adv-x="577" 
d="M44 738h97l-71 -168h-56zM491 0h-84v333q0 52 -22.5 77.5t-64.5 25.5q-28 0 -54 -15.5t-46 -44.5t-32 -71t-12 -94v-211h-84v504h84v-93q28 49 71 75t96 26q69 0 108.5 -41t39.5 -116v-355z" />
    <glyph glyph-name="Eng" unicode="&#x14a;" horiz-adv-x="701" 
d="M604 700v-700q0 -50 -14.5 -89.5t-41.5 -66.5t-64.5 -41.5t-83.5 -14.5v84q51 0 83.5 29.5t32.5 98.5l-331 537v-537h-88v700h103l316 -547v547h88z" />
    <glyph glyph-name="eng" unicode="&#x14b;" horiz-adv-x="577" 
d="M315 -132q22 6 39 14t29 20.5t18 31.5t6 48v351q0 52 -22.5 77.5t-64.5 25.5q-28 0 -54 -15.5t-46 -44.5t-32 -71t-12 -94v-211h-84v504h84v-93q28 49 71 75t96 26q69 0 108.5 -41t39.5 -116v-381q0 -78 -40.5 -125t-113.5 -61z" />
    <glyph glyph-name="Omacron" unicode="&#x14c;" horiz-adv-x="738" 
d="M369 708q63 0 119.5 -23t100 -68.5t69 -112.5t25.5 -154t-25.5 -154t-69 -112.5t-100 -68.5t-119.5 -23t-119.5 23t-100 68.5t-69 112.5t-25.5 154t25.5 154t69 112.5t100 68.5t119.5 23zM369 624q-47 0 -87.5 -17t-70.5 -51.5t-47.5 -85.5t-17.5 -120t17.5 -120
t47.5 -85.5t70.5 -51.5t87.5 -17q46 0 87 17t71 51.5t47.5 85.5t17.5 120t-17.5 120t-47.5 85.5t-71 51.5t-87 17zM245 884h249v-76h-249v76z" />
    <glyph glyph-name="omacron" unicode="&#x14d;" 
d="M54 252q0 51 16.5 98t48 83t76 57.5t101.5 21.5t101.5 -21.5t76 -57.5t48 -83t16.5 -98t-16.5 -98t-48 -83t-76 -57.5t-101.5 -21.5t-101.5 21.5t-76 57.5t-48 83t-16.5 98zM140 252q0 -35 10 -68t29.5 -59t48.5 -41.5t68 -15.5t68 15.5t48.5 41.5t29.5 59t10 68t-10 68
t-29.5 59t-48.5 41.5t-68 15.5t-68 -15.5t-48.5 -41.5t-29.5 -59t-10 -68zM172 688h249v-76h-249v76z" />
    <glyph glyph-name="Obreve" unicode="&#x14e;" horiz-adv-x="738" 
d="M369 708q63 0 119.5 -23t100 -68.5t69 -112.5t25.5 -154t-25.5 -154t-69 -112.5t-100 -68.5t-119.5 -23t-119.5 23t-100 68.5t-69 112.5t-25.5 154t25.5 154t69 112.5t100 68.5t119.5 23zM369 624q-47 0 -87.5 -17t-70.5 -51.5t-47.5 -85.5t-17.5 -120t17.5 -120
t47.5 -85.5t70.5 -51.5t87.5 -17q46 0 87 17t71 51.5t47.5 85.5t17.5 120t-17.5 120t-47.5 85.5t-71 51.5t-87 17zM480 896q0 -46 -31 -77.5t-80 -31.5q-24 0 -44 8.5t-35 23t-23.5 34.5t-8.5 43h67q0 -20 12 -32.5t32 -12.5t32 12.5t12 32.5h67z" />
    <glyph glyph-name="obreve" unicode="&#x14f;" 
d="M54 252q0 51 16.5 98t48 83t76 57.5t101.5 21.5t101.5 -21.5t76 -57.5t48 -83t16.5 -98t-16.5 -98t-48 -83t-76 -57.5t-101.5 -21.5t-101.5 21.5t-76 57.5t-48 83t-16.5 98zM140 252q0 -35 10 -68t29.5 -59t48.5 -41.5t68 -15.5t68 15.5t48.5 41.5t29.5 59t10 68t-10 68
t-29.5 59t-48.5 41.5t-68 15.5t-68 -15.5t-48.5 -41.5t-29.5 -59t-10 -68zM407 700q0 -46 -31 -77.5t-80 -31.5q-24 0 -44 8.5t-35 23t-23.5 34.5t-8.5 43h67q0 -20 12 -32.5t32 -12.5t32 12.5t12 32.5h67z" />
    <glyph glyph-name="Ohungarumlaut" unicode="&#x150;" horiz-adv-x="738" 
d="M369 708q63 0 119.5 -23t100 -68.5t69 -112.5t25.5 -154t-25.5 -154t-69 -112.5t-100 -68.5t-119.5 -23t-119.5 23t-100 68.5t-69 112.5t-25.5 154t25.5 154t69 112.5t100 68.5t119.5 23zM369 624q-47 0 -87.5 -17t-70.5 -51.5t-47.5 -85.5t-17.5 -120t17.5 -120
t47.5 -85.5t70.5 -51.5t87.5 -17q46 0 87 17t71 51.5t47.5 85.5t17.5 120t-17.5 120t-47.5 85.5t-71 51.5t-87 17zM284 900h121l-121 -144h-68zM465 900h121l-121 -144h-68z" />
    <glyph glyph-name="ohungarumlaut" unicode="&#x151;" 
d="M54 252q0 51 16.5 98t48 83t76 57.5t101.5 21.5t101.5 -21.5t76 -57.5t48 -83t16.5 -98t-16.5 -98t-48 -83t-76 -57.5t-101.5 -21.5t-101.5 21.5t-76 57.5t-48 83t-16.5 98zM140 252q0 -35 10 -68t29.5 -59t48.5 -41.5t68 -15.5t68 15.5t48.5 41.5t29.5 59t10 68t-10 68
t-29.5 59t-48.5 41.5t-68 15.5t-68 -15.5t-48.5 -41.5t-29.5 -59t-10 -68zM199 704h121l-121 -144h-68zM380 704h121l-121 -144h-68z" />
    <glyph glyph-name="OE" unicode="&#x152;" horiz-adv-x="1064" 
d="M997 700v-84h-314v-201h254v-84h-254v-247h324v-84h-412v91q-44 -49 -102 -74t-124 -25q-63 0 -119.5 23t-100 68.5t-69 112.5t-25.5 154t25.5 154t69 112.5t100 68.5t119.5 23q66 0 124 -25t102 -74v91h402zM369 624q-47 0 -87.5 -17t-70.5 -51.5t-47.5 -85.5
t-17.5 -120t17.5 -120t47.5 -85.5t70.5 -51.5t87.5 -17q46 0 87 17t71 51.5t47.5 85.5t17.5 120t-17.5 120t-47.5 85.5t-71 51.5t-87 17z" />
    <glyph glyph-name="oe" unicode="&#x153;" horiz-adv-x="958" 
d="M908 234h-370q2 -35 11.5 -65t27 -52.5t43.5 -35.5t60 -13q56 0 87.5 24.5t52.5 71.5l74 -32q-35 -74 -85.5 -107t-128.5 -33q-67 0 -113.5 29t-74.5 75q-31 -47 -80.5 -75.5t-115.5 -28.5q-57 0 -101.5 21.5t-76 57.5t-48 83t-16.5 98t16.5 98t48 83t76 57.5t101.5 21.5
q66 0 115.5 -28.5t80.5 -75.5q28 47 74.5 75.5t113.5 28.5q56 0 98.5 -20t71.5 -53t43.5 -76t14.5 -90v-39zM140 252q0 -35 10 -68t29.5 -59t48.5 -41.5t68 -15.5q37 0 66.5 15.5t49 41.5t30 59t10.5 68t-10.5 68t-30 59t-49 41.5t-66.5 15.5q-39 0 -68 -15.5t-48.5 -41.5
t-29.5 -59t-10 -68zM680 436q-59 0 -92.5 -35.5t-44.5 -90.5h277q-5 26 -16 49t-28.5 40t-41.5 27t-54 10z" />
    <glyph glyph-name="Racute" unicode="&#x154;" horiz-adv-x="641" 
d="M290 330h-105v-330h-88v700h233q46 0 84 -12.5t65 -36t42 -58t15 -78.5q0 -73 -38.5 -119t-107.5 -60l209 -336h-104zM185 616v-202h147q55 0 84 24t29 77t-29 77t-84 24h-147zM288 900h121l-121 -144h-68z" />
    <glyph glyph-name="racute" unicode="&#x155;" horiz-adv-x="413" 
d="M376 422q-28 14 -59 14q-26 0 -51 -15t-45 -46t-32.5 -77t-12.5 -107v-191h-84v504h84v-86q11 21 28 38.5t36.5 29.5t41 19t42.5 7t39.5 -4.5t29.5 -10.5zM249 704h121l-121 -144h-68z" />
    <glyph glyph-name="uni0156" unicode="&#x156;" horiz-adv-x="641" 
d="M281 -52h107l-106 -178h-51zM290 330h-105v-330h-88v700h233q46 0 84 -12.5t65 -36t42 -58t15 -78.5q0 -73 -38.5 -119t-107.5 -60l209 -336h-104zM185 616v-202h147q55 0 84 24t29 77t-29 77t-84 24h-147z" />
    <glyph glyph-name="uni0157" unicode="&#x157;" horiz-adv-x="413" 
d="M90 -52h107l-106 -178h-51zM376 422q-28 14 -59 14q-26 0 -51 -15t-45 -46t-32.5 -77t-12.5 -107v-191h-84v504h84v-86q11 21 28 38.5t36.5 29.5t41 19t42.5 7t39.5 -4.5t29.5 -10.5z" />
    <glyph glyph-name="Rcaron" unicode="&#x158;" horiz-adv-x="641" 
d="M290 330h-105v-330h-88v700h233q46 0 84 -12.5t65 -36t42 -58t15 -78.5q0 -73 -38.5 -119t-107.5 -60l209 -336h-104zM185 616v-202h147q55 0 84 24t29 77t-29 77t-84 24h-147zM124 926h86l80 -85l80 85h86l-153 -164h-26z" />
    <glyph glyph-name="rcaron" unicode="&#x159;" horiz-adv-x="413" 
d="M376 422q-28 14 -59 14q-26 0 -51 -15t-45 -46t-32.5 -77t-12.5 -107v-191h-84v504h84v-86q11 21 28 38.5t36.5 29.5t41 19t42.5 7t39.5 -4.5t29.5 -10.5zM71 730h86l80 -85l80 85h86l-153 -164h-26z" />
    <glyph glyph-name="Sacute" unicode="&#x15a;" horiz-adv-x="523" 
d="M369 550q-26 46 -52.5 60t-58.5 14q-38 0 -61 -26.5t-23 -60.5q0 -26 10.5 -45t29 -34.5t43 -28.5t52.5 -27q30 -15 59.5 -32.5t53.5 -40.5t39 -54.5t15 -73.5q0 -43 -14 -79t-40 -64q-29 -32 -69 -49t-87 -17q-44 0 -81.5 14t-66.5 39.5t-49 60t-29 75.5l76 46
q9 -31 20.5 -58.5t29 -48t42 -32.5t58.5 -12q27 0 52.5 10t42.5 30q27 33 27 83q0 25 -11 45t-29.5 36.5t-42.5 29.5t-49 25q-34 16 -65 33.5t-54 40t-37 51.5t-14 70q0 39 14 71.5t37.5 56.5t54.5 37t66 13q37 0 65.5 -8t50 -23t37.5 -35.5t29 -45.5zM271 900h121
l-121 -144h-68z" />
    <glyph glyph-name="sacute" unicode="&#x15b;" horiz-adv-x="461" 
d="M236 512q92 0 146 -77l-57 -49q-25 27 -45.5 38.5t-46.5 11.5t-43.5 -16.5t-17.5 -47.5q0 -23 17.5 -37.5t43.5 -27t56 -24.5t56 -28.5t43.5 -41t17.5 -61.5q0 -76 -45 -118t-122 -42q-39 0 -69.5 11.5t-53.5 31t-39 43.5t-26 50l71 39q17 -41 46 -70t71 -29
q38 0 59.5 19.5t21.5 59.5q0 23 -17 37.5t-43 26t-56 23t-56 29t-43 43.5t-17 67q0 29 10.5 54.5t29.5 44t46.5 29.5t61.5 11zM245 704h121l-121 -144h-68z" />
    <glyph glyph-name="Scircumflex" unicode="&#x15c;" horiz-adv-x="523" 
d="M369 550q-26 46 -52.5 60t-58.5 14q-38 0 -61 -26.5t-23 -60.5q0 -26 10.5 -45t29 -34.5t43 -28.5t52.5 -27q30 -15 59.5 -32.5t53.5 -40.5t39 -54.5t15 -73.5q0 -43 -14 -79t-40 -64q-29 -32 -69 -49t-87 -17q-44 0 -81.5 14t-66.5 39.5t-49 60t-29 75.5l76 46
q9 -31 20.5 -58.5t29 -48t42 -32.5t58.5 -12q27 0 52.5 10t42.5 30q27 33 27 83q0 25 -11 45t-29.5 36.5t-42.5 29.5t-49 25q-34 16 -65 33.5t-54 40t-37 51.5t-14 70q0 39 14 71.5t37.5 56.5t54.5 37t66 13q37 0 65.5 -8t50 -23t37.5 -35.5t29 -45.5zM253 926h26l153 -164
h-86l-80 85l-80 -85h-86z" />
    <glyph glyph-name="scircumflex" unicode="&#x15d;" horiz-adv-x="461" 
d="M236 512q92 0 146 -77l-57 -49q-25 27 -45.5 38.5t-46.5 11.5t-43.5 -16.5t-17.5 -47.5q0 -23 17.5 -37.5t43.5 -27t56 -24.5t56 -28.5t43.5 -41t17.5 -61.5q0 -76 -45 -118t-122 -42q-39 0 -69.5 11.5t-53.5 31t-39 43.5t-26 50l71 39q17 -41 46 -70t71 -29
q38 0 59.5 19.5t21.5 59.5q0 23 -17 37.5t-43 26t-56 23t-56 29t-43 43.5t-17 67q0 29 10.5 54.5t29.5 44t46.5 29.5t61.5 11zM224 730h26l153 -164h-86l-80 85l-80 -85h-86z" />
    <glyph glyph-name="Scedilla" unicode="&#x15e;" horiz-adv-x="523" 
d="M369 550q-26 46 -52.5 60t-58.5 14q-38 0 -61 -26.5t-23 -60.5q0 -26 10.5 -45t29 -34.5t43 -28.5t52.5 -27q30 -15 59.5 -32.5t53.5 -40.5t39 -54.5t15 -73.5q0 -43 -14 -79t-40 -64q-29 -32 -69 -49t-87 -17q-44 0 -81.5 14t-66.5 39.5t-49 60t-29 75.5l76 46
q9 -31 20.5 -58.5t29 -48t42 -32.5t58.5 -12q27 0 52.5 10t42.5 30q27 33 27 83q0 25 -11 45t-29.5 36.5t-42.5 29.5t-49 25q-34 16 -65 33.5t-54 40t-37 51.5t-14 70q0 39 14 71.5t37.5 56.5t54.5 37t66 13q37 0 65.5 -8t50 -23t37.5 -35.5t29 -45.5zM237 -235l-95 45
l108 130h70z" />
    <glyph glyph-name="scedilla" unicode="&#x15f;" horiz-adv-x="461" 
d="M236 512q92 0 146 -77l-57 -49q-25 27 -45.5 38.5t-46.5 11.5t-43.5 -16.5t-17.5 -47.5q0 -23 17.5 -37.5t43.5 -27t56 -24.5t56 -28.5t43.5 -41t17.5 -61.5q0 -76 -45 -118t-122 -42q-39 0 -69.5 11.5t-53.5 31t-39 43.5t-26 50l71 39q17 -41 46 -70t71 -29
q38 0 59.5 19.5t21.5 59.5q0 23 -17 37.5t-43 26t-56 23t-56 29t-43 43.5t-17 67q0 29 10.5 54.5t29.5 44t46.5 29.5t61.5 11zM220 -235l-95 45l108 130h70z" />
    <glyph glyph-name="Scaron" unicode="&#x160;" horiz-adv-x="523" 
d="M369 550q-26 46 -52.5 60t-58.5 14q-38 0 -61 -26.5t-23 -60.5q0 -26 10.5 -45t29 -34.5t43 -28.5t52.5 -27q30 -15 59.5 -32.5t53.5 -40.5t39 -54.5t15 -73.5q0 -43 -14 -79t-40 -64q-29 -32 -69 -49t-87 -17q-44 0 -81.5 14t-66.5 39.5t-49 60t-29 75.5l76 46
q9 -31 20.5 -58.5t29 -48t42 -32.5t58.5 -12q27 0 52.5 10t42.5 30q27 33 27 83q0 25 -11 45t-29.5 36.5t-42.5 29.5t-49 25q-34 16 -65 33.5t-54 40t-37 51.5t-14 70q0 39 14 71.5t37.5 56.5t54.5 37t66 13q37 0 65.5 -8t50 -23t37.5 -35.5t29 -45.5zM94 926h86l80 -85
l80 85h86l-153 -164h-26z" />
    <glyph glyph-name="scaron" unicode="&#x161;" horiz-adv-x="461" 
d="M236 512q92 0 146 -77l-57 -49q-25 27 -45.5 38.5t-46.5 11.5t-43.5 -16.5t-17.5 -47.5q0 -23 17.5 -37.5t43.5 -27t56 -24.5t56 -28.5t43.5 -41t17.5 -61.5q0 -76 -45 -118t-122 -42q-39 0 -69.5 11.5t-53.5 31t-39 43.5t-26 50l71 39q17 -41 46 -70t71 -29
q38 0 59.5 19.5t21.5 59.5q0 23 -17 37.5t-43 26t-56 23t-56 29t-43 43.5t-17 67q0 29 10.5 54.5t29.5 44t46.5 29.5t61.5 11zM67 730h86l80 -85l80 85h86l-153 -164h-26z" />
    <glyph glyph-name="uni0162" unicode="&#x162;" horiz-adv-x="522" 
d="M15 700h492v-84h-202v-616h-88v616h-202v84zM220 -235l-95 45l108 130h70z" />
    <glyph glyph-name="uni0163" unicode="&#x163;" horiz-adv-x="378" 
d="M25 504h87v151l84 53v-204h132v-76h-132v-277q0 -41 17.5 -62t49.5 -21q17 0 30 3.5t27 12.5l20 -73q-18 -11 -39 -15t-43 -4q-64 0 -105 40t-41 126v270h-87v76zM220 -235l-95 45l108 130h70z" />
    <glyph glyph-name="Tcaron" unicode="&#x164;" horiz-adv-x="522" 
d="M15 700h492v-84h-202v-616h-88v616h-202v84zM95 926h86l80 -85l80 85h86l-153 -164h-26z" />
    <glyph glyph-name="tcaron" unicode="&#x165;" horiz-adv-x="378" 
d="M301 738h97l-71 -168h-56zM25 504h87v151l84 53v-204h132v-76h-132v-277q0 -41 17.5 -62t49.5 -21q17 0 30 3.5t27 12.5l20 -73q-18 -11 -39 -15t-43 -4q-64 0 -105 40t-41 126v270h-87v76z" />
    <glyph glyph-name="Tbar" unicode="&#x166;" horiz-adv-x="522" 
d="M42 468h175v148h-202v84h492v-84h-202v-148h175v-76h-175v-392h-88v392h-175v76z" />
    <glyph glyph-name="tbar" unicode="&#x167;" horiz-adv-x="378" 
d="M41 327h71v101h-87v76h87v151l84 53v-204h132v-76h-132v-101h119v-68h-119v-108q0 -41 17.5 -62t49.5 -21q17 0 30 3.5t27 12.5l20 -73q-18 -11 -39 -15t-43 -4q-64 0 -105 40t-41 126v101h-71v68z" />
    <glyph glyph-name="Utilde" unicode="&#x168;" horiz-adv-x="654" 
d="M82 700h88v-468q0 -33 10 -61.5t30 -49.5t49.5 -33t67.5 -12t67.5 12t49.5 33t30 49.5t10 61.5v468h88v-462q0 -60 -19.5 -106t-52.5 -77t-77.5 -47t-95.5 -16t-95.5 16t-77.5 47t-52.5 77t-19.5 106v462zM151 820q17 32 45.5 54t61.5 22q25 0 42 -6.5t30.5 -14
t26.5 -13.5t32 -6q21 0 36.5 9.5t29.5 26.5l49 -39q-17 -32 -45.5 -53.5t-61.5 -21.5q-26 0 -42.5 6t-30 13.5t-26.5 14t-32 6.5q-21 0 -36.5 -9.5t-29.5 -26.5z" />
    <glyph glyph-name="utilde" unicode="&#x169;" horiz-adv-x="577" 
d="M86 504h84v-333q0 -52 22.5 -77.5t64.5 -25.5q28 0 54 15.5t46 44.5t32 70.5t12 94.5v211h84v-504h-84v93q-28 -49 -71 -75t-96 -26q-69 0 -108.5 41t-39.5 116v355zM112 624q17 32 45.5 54t61.5 22q25 0 42 -6.5t30.5 -14t26.5 -13.5t32 -6q21 0 36.5 9.5t29.5 26.5
l49 -39q-17 -32 -45.5 -53.5t-61.5 -21.5q-26 0 -42.5 6t-30 13.5t-26.5 14t-32 6.5q-21 0 -36.5 -9.5t-29.5 -26.5z" />
    <glyph glyph-name="Umacron" unicode="&#x16a;" horiz-adv-x="654" 
d="M82 700h88v-468q0 -33 10 -61.5t30 -49.5t49.5 -33t67.5 -12t67.5 12t49.5 33t30 49.5t10 61.5v468h88v-462q0 -60 -19.5 -106t-52.5 -77t-77.5 -47t-95.5 -16t-95.5 16t-77.5 47t-52.5 77t-19.5 106v462zM203 884h249v-76h-249v76z" />
    <glyph glyph-name="umacron" unicode="&#x16b;" horiz-adv-x="577" 
d="M86 504h84v-333q0 -52 22.5 -77.5t64.5 -25.5q28 0 54 15.5t46 44.5t32 70.5t12 94.5v211h84v-504h-84v93q-28 -49 -71 -75t-96 -26q-69 0 -108.5 41t-39.5 116v355zM164 688h249v-76h-249v76z" />
    <glyph glyph-name="Ubreve" unicode="&#x16c;" horiz-adv-x="654" 
d="M82 700h88v-468q0 -33 10 -61.5t30 -49.5t49.5 -33t67.5 -12t67.5 12t49.5 33t30 49.5t10 61.5v468h88v-462q0 -60 -19.5 -106t-52.5 -77t-77.5 -47t-95.5 -16t-95.5 16t-77.5 47t-52.5 77t-19.5 106v462zM438 896q0 -46 -31 -77.5t-80 -31.5q-24 0 -44 8.5t-35 23
t-23.5 34.5t-8.5 43h67q0 -20 12 -32.5t32 -12.5t32 12.5t12 32.5h67z" />
    <glyph glyph-name="ubreve" unicode="&#x16d;" horiz-adv-x="577" 
d="M86 504h84v-333q0 -52 22.5 -77.5t64.5 -25.5q28 0 54 15.5t46 44.5t32 70.5t12 94.5v211h84v-504h-84v93q-28 -49 -71 -75t-96 -26q-69 0 -108.5 41t-39.5 116v355zM399 700q0 -46 -31 -77.5t-80 -31.5q-24 0 -44 8.5t-35 23t-23.5 34.5t-8.5 43h67q0 -20 12 -32.5
t32 -12.5t32 12.5t12 32.5h67z" />
    <glyph glyph-name="Uring" unicode="&#x16e;" horiz-adv-x="654" 
d="M82 700h88v-468q0 -33 10 -61.5t30 -49.5t49.5 -33t67.5 -12t67.5 12t49.5 33t30 49.5t10 61.5v468h88v-462q0 -60 -19.5 -106t-52.5 -77t-77.5 -47t-95.5 -16t-95.5 16t-77.5 47t-52.5 77t-19.5 106v462zM228 849q0 42 28.5 71t70.5 29q44 0 71.5 -29t27.5 -71
q0 -41 -27.5 -68.5t-71.5 -27.5q-21 0 -39 7.5t-31.5 20.5t-21 30.5t-7.5 37.5zM284 850q0 -19 12 -31.5t31 -12.5q20 0 31.5 12.5t11.5 31.5q0 20 -11.5 33t-31.5 13q-19 0 -31 -13t-12 -33z" />
    <glyph glyph-name="uring" unicode="&#x16f;" horiz-adv-x="577" 
d="M86 504h84v-333q0 -52 22.5 -77.5t64.5 -25.5q28 0 54 15.5t46 44.5t32 70.5t12 94.5v211h84v-504h-84v93q-28 -49 -71 -75t-96 -26q-69 0 -108.5 41t-39.5 116v355zM189 653q0 42 28.5 71t70.5 29q44 0 71.5 -29t27.5 -71q0 -41 -27.5 -68.5t-71.5 -27.5q-21 0 -39 7.5
t-31.5 20.5t-21 30.5t-7.5 37.5zM245 654q0 -19 12 -31.5t31 -12.5q20 0 31.5 12.5t11.5 31.5q0 20 -11.5 33t-31.5 13q-19 0 -31 -13t-12 -33z" />
    <glyph glyph-name="Uhungarumlaut" unicode="&#x170;" horiz-adv-x="654" 
d="M82 700h88v-468q0 -33 10 -61.5t30 -49.5t49.5 -33t67.5 -12t67.5 12t49.5 33t30 49.5t10 61.5v468h88v-462q0 -60 -19.5 -106t-52.5 -77t-77.5 -47t-95.5 -16t-95.5 16t-77.5 47t-52.5 77t-19.5 106v462zM238 900h121l-121 -144h-68zM419 900h121l-121 -144h-68z" />
    <glyph glyph-name="uhungarumlaut" unicode="&#x171;" horiz-adv-x="577" 
d="M86 504h84v-333q0 -52 22.5 -77.5t64.5 -25.5q28 0 54 15.5t46 44.5t32 70.5t12 94.5v211h84v-504h-84v93q-28 -49 -71 -75t-96 -26q-69 0 -108.5 41t-39.5 116v355zM182 704h121l-121 -144h-68zM363 704h121l-121 -144h-68z" />
    <glyph glyph-name="Uogonek" unicode="&#x172;" horiz-adv-x="654" 
d="M82 700h88v-468q0 -33 10 -61.5t30 -49.5t49.5 -33t67.5 -12t67.5 12t49.5 33t30 49.5t10 61.5v468h88v-462q0 -50 -13.5 -90t-37 -70t-56 -49.5t-69.5 -28.5q-26 -23 -41 -42.5t-15 -37.5q0 -14 8 -22t22 -8q17 0 28.5 10.5t26.5 30.5l43 -35q-24 -36 -48 -53.5
t-60 -17.5q-39 0 -62.5 22.5t-23.5 60.5q0 46 49 84q-50 1 -94 17t-76.5 47t-51.5 76.5t-19 105.5v462z" />
    <glyph glyph-name="uogonek" unicode="&#x173;" horiz-adv-x="577" 
d="M401 0v93q-28 -49 -71 -75t-96 -26q-69 0 -108.5 41t-39.5 116v355h84v-333q0 -52 22.5 -77.5t64.5 -25.5q28 0 54 15.5t46 44.5t32 70.5t12 94.5v211h84v-504q-26 -23 -41 -42.5t-15 -37.5q0 -14 8 -22t22 -8q17 0 28.5 10.5t26.5 30.5l43 -35q-24 -36 -48 -53.5
t-60 -17.5q-39 0 -62.5 22.5t-23.5 60.5q0 24 15.5 48t44.5 44h-22z" />
    <glyph glyph-name="Wcircumflex" unicode="&#x174;" horiz-adv-x="904" 
d="M876 700l-187 -700h-92l-145 481l-145 -481h-92l-187 700h93l142 -570l149 496h80l149 -496l142 570h93zM439 926h26l153 -164h-86l-80 85l-80 -85h-86z" />
    <glyph glyph-name="wcircumflex" unicode="&#x175;" horiz-adv-x="738" 
d="M701 504l-153 -504h-80l-99 383l-99 -383h-80l-153 504h88l103 -387l99 387h84l99 -387l103 387h88zM356 730h26l153 -164h-86l-80 85l-80 -85h-86z" />
    <glyph glyph-name="Ycircumflex" unicode="&#x176;" horiz-adv-x="506" 
d="M4 700h97l152 -310l152 310h97l-205 -398v-302h-88v302zM240 926h26l153 -164h-86l-80 85l-80 -85h-86z" />
    <glyph glyph-name="ycircumflex" unicode="&#x177;" horiz-adv-x="460" 
d="M448 504l-250 -708h-86l80 225l-177 483h92l128 -364l125 364h88zM221 730h26l153 -164h-86l-80 85l-80 -85h-86z" />
    <glyph glyph-name="Ydieresis" unicode="&#x178;" horiz-adv-x="506" 
d="M4 700h97l152 -310l152 310h97l-205 -398v-302h-88v302zM114 847q0 24 16.5 40.5t39.5 16.5q25 0 41 -16.5t16 -40.5t-16 -40t-41 -16q-23 0 -39.5 16t-16.5 40zM280 847q0 24 16.5 40.5t39.5 16.5q25 0 41 -16.5t16 -40.5t-16 -40t-41 -16q-23 0 -39.5 16t-16.5 40z" />
    <glyph glyph-name="Zacute" unicode="&#x179;" horiz-adv-x="555" 
d="M57 700h439v-42l-326 -574h336v-84h-461v42l326 574h-314v84zM272 900h121l-121 -144h-68z" />
    <glyph glyph-name="zacute" unicode="&#x17a;" horiz-adv-x="456" 
d="M63 504h338v-36l-239 -392h248v-76h-360v36l238 392h-225v76zM234 704h121l-121 -144h-68z" />
    <glyph glyph-name="Zdotaccent" unicode="&#x17b;" horiz-adv-x="555" 
d="M57 700h439v-42l-326 -574h336v-84h-461v42l326 574h-314v84zM211 840q0 27 18.5 45.5t44.5 18.5q27 0 45 -18.5t18 -45.5q0 -26 -18 -44t-45 -18q-26 0 -44.5 18t-18.5 44z" />
    <glyph glyph-name="zdotaccent" unicode="&#x17c;" horiz-adv-x="456" 
d="M63 504h338v-36l-239 -392h248v-76h-360v36l238 392h-225v76zM171 644q0 27 18.5 45.5t44.5 18.5q27 0 45 -18.5t18 -45.5q0 -26 -18 -44t-45 -18q-26 0 -44.5 18t-18.5 44z" />
    <glyph glyph-name="Zcaron" unicode="&#x17d;" horiz-adv-x="555" 
d="M57 700h439v-42l-326 -574h336v-84h-461v42l326 574h-314v84zM110 926h86l80 -85l80 85h86l-153 -164h-26z" />
    <glyph glyph-name="zcaron" unicode="&#x17e;" horiz-adv-x="456" 
d="M63 504h338v-36l-239 -392h248v-76h-360v36l238 392h-225v76zM67 730h86l80 -85l80 85h86l-153 -164h-26z" />
    <glyph glyph-name="longs" unicode="&#x17f;" horiz-adv-x="364" 
d="M47 504h72v33q0 88 43 129.5t120 41.5q21 0 40.5 -4.5t31.5 -11.5l-17 -74q-28 14 -56 14q-42 0 -60 -23t-18 -72v-537h-84v428h-72v76z" />
    <glyph glyph-name="uni018E" unicode="&#x18e;" horiz-adv-x="566" 
d="M67 0v84h314v201h-254v84h254v247h-324v84h412v-700h-402z" />
    <glyph glyph-name="uni018F" unicode="&#x18f;" horiz-adv-x="560" 
d="M50 270h370q-2 35 -11.5 65t-27 52.5t-43.5 35.5t-60 13q-56 0 -87.5 -24.5t-52.5 -71.5l-74 32q35 74 85.5 107t128.5 33q57 0 100 -21.5t71.5 -57.5t42.5 -83t14 -98t-14 -98t-42.5 -83t-71.5 -57.5t-100 -21.5q-56 0 -98.5 20t-71.5 53t-43.5 76t-14.5 90v39zM278 68
q59 0 92.5 35.5t44.5 90.5h-277q11 -54 45 -90t95 -36z" />
    <glyph glyph-name="florin" unicode="&#x192;" horiz-adv-x="478" 
d="M112 504h89l7 33q19 93 69 132t127 39q21 0 39 -4.5t30 -11.5l-31 -74q-11 6 -25.5 10t-28.5 4q-42 0 -64 -23t-32 -72l-7 -33h114l-14 -76h-114l-91 -469q-9 -47 -27 -79.5t-43.5 -52.5t-57 -29.5t-68.5 -9.5q-21 0 -39 4.5t-30 11.5l31 74q11 -6 25.5 -10t28.5 -4
q42 0 64 23t32 72l91 469h-89z" />
    <glyph glyph-name="uni01B5" unicode="&#x1b5;" horiz-adv-x="555" 
d="M57 700h439v-42l-147 -259h121v-76h-164l-136 -239h336v-84h-461v42l159 281h-129v76h172l124 217h-314v84z" />
    <glyph glyph-name="uni01B6" unicode="&#x1b6;" horiz-adv-x="456" 
d="M63 504h338v-36l-104 -170h84v-68h-125l-94 -154h248v-76h-360v36l118 194h-91v68h132l79 130h-225v76z" />
    <glyph glyph-name="Aringacute" unicode="&#x1fa;" 
d="M254 700h84l242 -700h-88l-62 187h-268l-62 -187h-88zM402 271l-106 315l-106 -315h212zM197 823q0 42 28.5 71t70.5 29q44 0 71.5 -29t27.5 -71q0 -41 -27.5 -68.5t-71.5 -27.5q-21 0 -39 7.5t-31.5 20.5t-21 30.5t-7.5 37.5zM253 824q0 -19 12 -31.5t31 -12.5
q20 0 31.5 12.5t11.5 31.5q0 20 -11.5 33t-31.5 13q-19 0 -31 -13t-12 -33zM301 1102h121l-121 -144h-68z" />
    <glyph glyph-name="aringacute" unicode="&#x1fb;" horiz-adv-x="518" 
d="M142 145q0 -36 21.5 -56.5t61.5 -20.5q24 0 49.5 8t45.5 26t33 47.5t13 72.5v12h-90q-65 0 -99.5 -23t-34.5 -66zM450 0h-66l-14 71q-24 -35 -62.5 -57t-95.5 -22q-32 0 -60 8.5t-49.5 27.5t-34 47.5t-12.5 69.5q0 40 16 71t46 52t72 31.5t94 10.5h82v22q0 58 -32 81
t-78 23q-39 0 -68 -20.5t-37 -58.5l-74 17q11 64 59 101t120 37q42 0 77.5 -11t61.5 -34t40.5 -59t14.5 -86v-322zM160 653q0 42 28.5 71t70.5 29q44 0 71.5 -29t27.5 -71q0 -41 -27.5 -68.5t-71.5 -27.5q-21 0 -39 7.5t-31.5 20.5t-21 30.5t-7.5 37.5zM216 654
q0 -19 12 -31.5t31 -12.5q20 0 31.5 12.5t11.5 31.5q0 20 -11.5 33t-31.5 13q-19 0 -31 -13t-12 -33zM263 930h121l-121 -144h-68z" />
    <glyph glyph-name="AEacute" unicode="&#x1fc;" horiz-adv-x="830" 
d="M763 700v-84h-314v-201h254v-84h-254v-247h324v-84h-412v187h-181l-80 -187h-90l305 700h448zM216 271h145v314h-10zM533 900h121l-121 -144h-68z" />
    <glyph glyph-name="aeacute" unicode="&#x1fd;" horiz-adv-x="872" 
d="M822 234h-370q2 -35 11.5 -65t27 -52.5t43.5 -35.5t60 -13q56 0 87.5 24.5t52.5 71.5l74 -32q-35 -74 -85.5 -107t-128.5 -33q-71 0 -119 31t-75 82q-37 -66 -84.5 -89.5t-103.5 -23.5q-32 0 -60 8.5t-49.5 27.5t-34 47.5t-12.5 69.5q0 40 16 71t46 52t72 31.5t94 10.5
h82v22q0 58 -32 81t-78 23q-39 0 -68 -20.5t-37 -58.5l-74 17q11 64 59 101t120 37q55 0 98.5 -19t68.5 -60q29 36 71.5 57.5t99.5 21.5q56 0 98.5 -20t71.5 -53t43.5 -76t14.5 -90v-39zM142 145q0 -36 21.5 -56.5t61.5 -20.5q24 0 49.5 8t45.5 26t33 47.5t13 72.5v12h-90
q-65 0 -99.5 -23t-34.5 -66zM594 436q-59 0 -92.5 -35.5t-44.5 -90.5h277q-5 27 -16 50t-28.5 40t-41.5 26.5t-54 9.5zM428 704h121l-121 -144h-68z" />
    <glyph glyph-name="Scommaaccent" unicode="&#x218;" horiz-adv-x="523" 
d="M214 -52h107l-106 -178h-51zM369 550q-26 46 -52.5 60t-58.5 14q-38 0 -61 -26.5t-23 -60.5q0 -26 10.5 -45t29 -34.5t43 -28.5t52.5 -27q30 -15 59.5 -32.5t53.5 -40.5t39 -54.5t15 -73.5q0 -43 -14 -79t-40 -64q-29 -32 -69 -49t-87 -17q-44 0 -81.5 14t-66.5 39.5
t-49 60t-29 75.5l76 46q9 -31 20.5 -58.5t29 -48t42 -32.5t58.5 -12q27 0 52.5 10t42.5 30q27 33 27 83q0 25 -11 45t-29.5 36.5t-42.5 29.5t-49 25q-34 16 -65 33.5t-54 40t-37 51.5t-14 70q0 39 14 71.5t37.5 56.5t54.5 37t66 13q37 0 65.5 -8t50 -23t37.5 -35.5t29 -45.5
z" />
    <glyph glyph-name="scommaaccent" unicode="&#x219;" horiz-adv-x="461" 
d="M186 -52h107l-106 -178h-51zM236 512q92 0 146 -77l-57 -49q-25 27 -45.5 38.5t-46.5 11.5t-43.5 -16.5t-17.5 -47.5q0 -23 17.5 -37.5t43.5 -27t56 -24.5t56 -28.5t43.5 -41t17.5 -61.5q0 -76 -45 -118t-122 -42q-39 0 -69.5 11.5t-53.5 31t-39 43.5t-26 50l71 39
q17 -41 46 -70t71 -29q38 0 59.5 19.5t21.5 59.5q0 23 -17 37.5t-43 26t-56 23t-56 29t-43 43.5t-17 67q0 29 10.5 54.5t29.5 44t46.5 29.5t61.5 11z" />
    <glyph glyph-name="uni021A" unicode="&#x21a;" horiz-adv-x="522" 
d="M207 -52h107l-106 -178h-51zM15 700h492v-84h-202v-616h-88v616h-202v84z" />
    <glyph glyph-name="uni021B" unicode="&#x21b;" horiz-adv-x="378" 
d="M192 -52h107l-106 -178h-51zM25 504h87v151l84 53v-204h132v-76h-132v-277q0 -41 17.5 -62t49.5 -21q17 0 30 3.5t27 12.5l20 -73q-18 -11 -39 -15t-43 -4q-64 0 -105 40t-41 126v270h-87v76z" />
    <glyph glyph-name="circumflex" unicode="&#x2c6;" horiz-adv-x="390" 
d="M182 730h26l153 -164h-86l-80 85l-80 -85h-86z" />
    <glyph glyph-name="caron" unicode="&#x2c7;" horiz-adv-x="390" 
d="M29 730h86l80 -85l80 85h86l-153 -164h-26z" />
    <glyph glyph-name="breve" unicode="&#x2d8;" horiz-adv-x="250" 
d="M232 700q0 -46 -31 -77.5t-80 -31.5q-24 0 -44 8.5t-35 23t-23.5 34.5t-8.5 43h67q0 -20 12 -32.5t32 -12.5t32 12.5t12 32.5h67z" />
    <glyph glyph-name="dotaccent" unicode="&#x2d9;" horiz-adv-x="270" 
d="M72 644q0 27 18.5 45.5t44.5 18.5q27 0 45 -18.5t18 -45.5q0 -26 -18 -44t-45 -18q-26 0 -44.5 18t-18.5 44z" />
    <glyph glyph-name="ring" unicode="&#x2da;" horiz-adv-x="234" 
d="M18 653q0 42 28.5 71t70.5 29q44 0 71.5 -29t27.5 -71q0 -41 -27.5 -68.5t-71.5 -27.5q-21 0 -39 7.5t-31.5 20.5t-21 30.5t-7.5 37.5zM74 654q0 -19 12 -31.5t31 -12.5q20 0 31.5 12.5t11.5 31.5q0 20 -11.5 33t-31.5 13q-19 0 -31 -13t-12 -33z" />
    <glyph glyph-name="ogonek" unicode="&#x2db;" horiz-adv-x="214" 
d="M132 0q-26 -23 -41 -42.5t-15 -37.5q0 -14 8 -22t22 -8q17 0 28.5 10.5t26.5 30.5l43 -35q-24 -36 -48 -53.5t-60 -17.5q-39 0 -62.5 22.5t-23.5 60.5q0 24 15.5 48t44.5 44h62z" />
    <glyph glyph-name="tilde" unicode="&#x2dc;" horiz-adv-x="389" 
d="M18 624q17 32 45.5 54t61.5 22q25 0 42 -6.5t30.5 -14t26.5 -13.5t32 -6q21 0 36.5 9.5t29.5 26.5l49 -39q-17 -32 -45.5 -53.5t-61.5 -21.5q-26 0 -42.5 6t-30 13.5t-26.5 14t-32 6.5q-21 0 -36.5 -9.5t-29.5 -26.5z" />
    <glyph glyph-name="hungarumlaut" unicode="&#x2dd;" horiz-adv-x="407" 
d="M90 704h121l-121 -144h-68zM271 704h121l-121 -144h-68z" />
    <glyph glyph-name="uni03A9" unicode="&#x3a9;" horiz-adv-x="682" 
d="M75 76h129q-30 54 -54 115q-20 52 -37 116.5t-17 132.5q0 58 16.5 107t47.5 85t76.5 56t104.5 20q58 0 104 -20t77 -56t47.5 -85t16.5 -107q0 -68 -17 -132.5t-37 -116.5q-24 -61 -54 -115h129v-76h-220v23q30 62 55 131q21 59 38.5 133.5t17.5 152.5q0 89 -41 140.5
t-116 51.5t-116 -51.5t-41 -140.5q0 -78 17 -152.5t38 -133.5q25 -69 56 -131v-23h-220v76z" />
    <glyph glyph-name="pi" unicode="&#x3c0;" horiz-adv-x="605" 
d="M55 504h494v-76h-88v-428h-84v428h-150v-428h-84v428h-88v76z" />
    <glyph glyph-name="uni0400" unicode="&#x400;" horiz-adv-x="566" 
d="M499 700v-84h-314v-201h254v-84h-254v-247h324v-84h-412v700h402zM365 756h-68l-121 144h121z" />
    <glyph glyph-name="uni0401" unicode="&#x401;" horiz-adv-x="566" 
d="M499 700v-84h-314v-201h254v-84h-254v-247h324v-84h-412v700h402zM164 847q0 24 16.5 40.5t39.5 16.5q25 0 41 -16.5t16 -40.5t-16 -40t-41 -16q-23 0 -39.5 16t-16.5 40zM330 847q0 24 16.5 40.5t39.5 16.5q25 0 41 -16.5t16 -40.5t-16 -40t-41 -16q-23 0 -39.5 16
t-16.5 40z" />
    <glyph glyph-name="uni0402" unicode="&#x402;" horiz-adv-x="714" 
d="M452 72q22 6 39 14t29 20.5t18 31.5t6 48v147q0 52 -22.5 77.5t-64.5 25.5q-28 0 -55 -15t-48.5 -43.5t-35 -70t-13.5 -93.5v-214h-88v616h-202v84h492v-84h-202v-206q24 46 70 74t105 28q69 0 108.5 -40.5t39.5 -121.5v-172q0 -78 -40.5 -125t-113.5 -61z" />
    <glyph glyph-name="uni0403" unicode="&#x403;" horiz-adv-x="527" 
d="M97 700h416v-84h-328v-616h-88v700zM305 900h121l-121 -144h-68z" />
    <glyph glyph-name="uni0404" unicode="&#x404;" horiz-adv-x="677" 
d="M478 308h-330q8 -113 58.5 -172.5t142.5 -59.5q72 0 123 38t74 115l85 -25q-12 -46 -38 -85t-62.5 -67t-82.5 -44t-99 -16q-62 0 -115.5 24t-93.5 70t-62.5 112.5t-22.5 151.5t22.5 151.5t62.5 112.5t93.5 70t115.5 24q53 0 99 -16t82.5 -44t62.5 -67t38 -85l-85 -25
q-23 77 -74 115t-123 38q-92 0 -142.5 -59.5t-58.5 -172.5h330v-84z" />
    <glyph glyph-name="uni0405" unicode="&#x405;" horiz-adv-x="523" 
d="M369 550q-26 46 -52.5 60t-58.5 14q-38 0 -61 -26.5t-23 -60.5q0 -26 10.5 -45t29 -34.5t43 -28.5t52.5 -27q30 -15 59.5 -32.5t53.5 -40.5t39 -54.5t15 -73.5q0 -43 -14 -79t-40 -64q-29 -32 -69 -49t-87 -17q-44 0 -81.5 14t-66.5 39.5t-49 60t-29 75.5l76 46
q9 -31 20.5 -58.5t29 -48t42 -32.5t58.5 -12q27 0 52.5 10t42.5 30q27 33 27 83q0 25 -11 45t-29.5 36.5t-42.5 29.5t-49 25q-34 16 -65 33.5t-54 40t-37 51.5t-14 70q0 39 14 71.5t37.5 56.5t54.5 37t66 13q37 0 65.5 -8t50 -23t37.5 -35.5t29 -45.5z" />
    <glyph glyph-name="uni0406" unicode="&#x406;" horiz-adv-x="282" 
d="M185 700v-700h-88v700h88z" />
    <glyph glyph-name="uni0407" unicode="&#x407;" horiz-adv-x="282" 
d="M185 700v-700h-88v700h88zM2 847q0 24 16.5 40.5t39.5 16.5q25 0 41 -16.5t16 -40.5t-16 -40t-41 -16q-23 0 -39.5 16t-16.5 40zM168 847q0 24 16.5 40.5t39.5 16.5q25 0 41 -16.5t16 -40.5t-16 -40t-41 -16q-23 0 -39.5 16t-16.5 40z" />
    <glyph glyph-name="uni0408" unicode="&#x408;" horiz-adv-x="509" 
d="M339 700h88v-485q0 -54 -15.5 -95.5t-43 -70t-65 -43t-80.5 -14.5q-48 0 -85 15t-63 40.5t-42 58.5t-22 69l89 19q11 -54 41.5 -86t81.5 -32q52 0 84 33t32 110v481z" />
    <glyph glyph-name="uni0409" unicode="&#x409;" horiz-adv-x="909" 
d="M208 186q-6 -91 -52 -138.5t-143 -47.5v84q21 0 39.5 4.5t33 16t24 32t11.5 52.5l37 511h318v-286h161q103 0 160.5 -54.5t57.5 -151.5q0 -98 -57.5 -153t-160.5 -55h-249v616h-149zM476 84h148q70 0 105 29.5t35 94.5q0 64 -35 93t-105 29h-148v-246z" />
    <glyph glyph-name="uni040A" unicode="&#x40a;" horiz-adv-x="953" 
d="M432 330h-247v-330h-88v700h88v-286h247v286h88v-286h161q103 0 160.5 -54.5t57.5 -151.5q0 -98 -57.5 -153t-160.5 -55h-249v330zM520 84h148q70 0 105 29.5t35 94.5q0 64 -35 93t-105 29h-148v-246z" />
    <glyph glyph-name="uni040B" unicode="&#x40b;" horiz-adv-x="714" 
d="M544 0v333q0 52 -22.5 77.5t-64.5 25.5q-28 0 -55 -15t-48.5 -43.5t-35 -70t-13.5 -93.5v-214h-88v616h-202v84h492v-84h-202v-206q24 46 70 74t105 28q69 0 108.5 -40.5t39.5 -121.5v-350h-84z" />
    <glyph glyph-name="uni040C" unicode="&#x40c;" horiz-adv-x="597" 
d="M470 0l-285 353v-353h-88v700h88v-281l261 281h112l-284 -314l308 -386h-112zM318 900h121l-121 -144h-68z" />
    <glyph glyph-name="uni040D" unicode="&#x40d;" horiz-adv-x="701" 
d="M405 756h-68l-121 144h121zM185 700v-557l316 557h103v-700h-88v557l-316 -557h-103v700h88z" />
    <glyph glyph-name="uni040E" unicode="&#x40e;" horiz-adv-x="505" 
d="M208 203l-203 497h92l156 -385l155 385h92l-290 -708h-86zM364 896q0 -46 -31 -77.5t-80 -31.5q-24 0 -44 8.5t-35 23t-23.5 34.5t-8.5 43h67q0 -20 12 -32.5t32 -12.5t32 12.5t12 32.5h67z" />
    <glyph glyph-name="uni040F" unicode="&#x40f;" horiz-adv-x="690" 
d="M97 700h88v-616h320v616h88v-700h-204v-124h-88v124h-204v700z" />
    <glyph glyph-name="uni0410" unicode="&#x410;" 
d="M254 700h84l242 -700h-88l-62 187h-268l-62 -187h-88zM402 271l-106 315l-106 -315h212z" />
    <glyph glyph-name="uni0411" unicode="&#x411;" horiz-adv-x="618" 
d="M185 84h148q70 0 105 29.5t35 94.5q0 64 -35 93.5t-105 29.5h-148v-247zM497 616h-312v-201h161q103 0 160.5 -55t57.5 -152q0 -98 -57.5 -153t-160.5 -55h-249v700h400v-84z" />
    <glyph glyph-name="uni0412" unicode="&#x412;" horiz-adv-x="618" 
d="M333 700q91 0 144 -46.5t53 -133.5q0 -47 -23 -83t-56 -54q51 -20 82 -64.5t31 -110.5q0 -98 -57.5 -153t-160.5 -55h-249v700h236zM185 84h148q70 0 105 29.5t35 94.5q0 64 -35 93.5t-105 29.5h-148v-247zM185 616v-201h143q49 0 80 24.5t31 75.5t-31 76t-80 25h-143z
" />
    <glyph glyph-name="uni0413" unicode="&#x413;" horiz-adv-x="524" 
d="M97 700h416v-84h-328v-616h-88v700z" />
    <glyph glyph-name="uni0414" unicode="&#x414;" horiz-adv-x="691" 
d="M62 84h56l103 616h371v-616h63l-12 -208h-84v124h-401v-124h-84zM295 616l-87 -532h296v532h-209z" />
    <glyph glyph-name="uni0415" unicode="&#x415;" horiz-adv-x="566" 
d="M499 700v-84h-314v-201h254v-84h-254v-247h324v-84h-412v700h402z" />
    <glyph glyph-name="uni0416" unicode="&#x416;" horiz-adv-x="912" 
d="M15 0l308 386l-284 314h112l261 -281v281h88v-281l261 281h112l-284 -314l308 -386h-112l-285 353v-353h-88v353l-285 -353h-112z" />
    <glyph glyph-name="uni0417" unicode="&#x417;" horiz-adv-x="564" 
d="M76 547q6 38 24 68t44.5 50.5t59.5 31.5t69 11q50 0 87 -14t61.5 -38.5t36.5 -57t12 -69.5q0 -57 -28 -93t-66 -58q53 -17 88.5 -61t35.5 -106q0 -47 -16 -87t-45.5 -69.5t-70.5 -46t-91 -16.5q-39 0 -76 12t-67 35t-51 56.5t-29 75.5l81 25q12 -59 48 -91.5t94 -32.5
q61 0 99 36.5t38 99.5q0 36 -15 61t-38.5 40.5t-50.5 22t-51 6.5h-30v70h26q27 0 50.5 6.5t41 20.5t27.5 36t10 53q0 48 -30 77t-81 29q-96 0 -117 -100z" />
    <glyph glyph-name="uni0418" unicode="&#x418;" horiz-adv-x="701" 
d="M185 700v-557l316 557h103v-700h-88v557l-316 -557h-103v700h88z" />
    <glyph glyph-name="uni0419" unicode="&#x419;" horiz-adv-x="701" 
d="M97.0371 700v-700h102.993l315.981 557v-557h87.9941v700h-102.994l-315.98 -557v557h-87.9941zM461 896q0 -46 -31 -77.5t-80 -31.5q-24 0 -44 8.5t-35 23t-23.5 34.5t-8.5 43h67q0 -20 12 -32.5t32 -12.5t32 12.5t12 32.5h67z" />
    <glyph glyph-name="uni041A" unicode="&#x41a;" horiz-adv-x="597" 
d="M470 0l-285 353v-353h-88v700h88v-281l261 281h112l-284 -314l308 -386h-112z" />
    <glyph glyph-name="uni041B" unicode="&#x41b;" horiz-adv-x="643" 
d="M158 700h388v-700h-88v616h-219l-31 -430q-6 -91 -52 -138.5t-143 -47.5v84q21 0 39.5 4.5t33 16t24 32t11.5 52.5z" />
    <glyph glyph-name="uni041C" unicode="&#x41c;" horiz-adv-x="784" 
d="M205 700l187 -493l187 493h108v-700h-88v510l-176 -446h-62l-176 446v-510h-88v700h108z" />
    <glyph glyph-name="uni041D" unicode="&#x41d;" horiz-adv-x="690" 
d="M593 700v-700h-88v330h-320v-330h-88v700h88v-286h320v286h88z" />
    <glyph glyph-name="uni041E" unicode="&#x41e;" horiz-adv-x="738" 
d="M369 708q63 0 119.5 -23t100 -68.5t69 -112.5t25.5 -154t-25.5 -154t-69 -112.5t-100 -68.5t-119.5 -23t-119.5 23t-100 68.5t-69 112.5t-25.5 154t25.5 154t69 112.5t100 68.5t119.5 23zM369 624q-47 0 -87.5 -17t-70.5 -51.5t-47.5 -85.5t-17.5 -120t17.5 -120
t47.5 -85.5t70.5 -51.5t87.5 -17q46 0 87 17t71 51.5t47.5 85.5t17.5 120t-17.5 120t-47.5 85.5t-71 51.5t-87 17z" />
    <glyph glyph-name="uni041F" unicode="&#x41f;" horiz-adv-x="690" 
d="M505 616h-320v-616h-88v700h496v-700h-88v616z" />
    <glyph glyph-name="uni0420" unicode="&#x420;" horiz-adv-x="584" 
d="M185 300v-300h-88v700h244q99 0 153.5 -54t54.5 -146t-54.5 -146t-153.5 -54h-156zM346 384q54 0 83 30t29 86t-29 86t-83 30h-161v-232h161z" />
    <glyph glyph-name="uni0421" unicode="&#x421;" horiz-adv-x="688" 
d="M645 204q-12 -46 -35.5 -85t-58.5 -67t-80 -44t-100 -16q-61 0 -118 22.5t-101 67t-70.5 111.5t-26.5 157t26.5 157t70.5 111.5t101 67t118 22.5q55 0 100 -16t80 -44t58.5 -67t35.5 -85l-85 -25q-24 74 -72 113.5t-117 39.5q-48 0 -89.5 -17.5t-71.5 -52t-47 -85.5
t-17 -119t17 -119t47 -85.5t71.5 -52t89.5 -17.5q69 0 117 39.5t72 113.5z" />
    <glyph glyph-name="uni0422" unicode="&#x422;" horiz-adv-x="522" 
d="M15 700h492v-84h-202v-616h-88v616h-202v84z" />
    <glyph glyph-name="uni0423" unicode="&#x423;" horiz-adv-x="505" 
d="M208 203l-203 497h92l156 -385l155 385h92l-290 -708h-86z" />
    <glyph glyph-name="uni0424" unicode="&#x424;" horiz-adv-x="774" 
d="M431 628h8q61 0 113 -20.5t89.5 -57.5t59 -88t21.5 -112t-21.5 -112t-59 -88t-89.5 -57.5t-113 -20.5h-8v-72h-88v72h-8q-61 0 -113 20.5t-89.5 57.5t-59 88t-21.5 112t21.5 112t59 88t89.5 57.5t113 20.5h8v72h88v-72zM343 544h-10q-43 0 -78 -14.5t-60 -40.5
t-38.5 -61.5t-13.5 -77.5t13.5 -77.5t38.5 -61.5t60 -40.5t78 -14.5h10v388zM631 350q0 42 -13.5 77.5t-38.5 61.5t-60 40.5t-78 14.5h-10v-388h10q43 0 78 14.5t60 40.5t38.5 61.5t13.5 77.5z" />
    <glyph glyph-name="uni0425" unicode="&#x425;" horiz-adv-x="576" 
d="M149 700l139 -238l139 238h101l-190 -324l221 -376h-101l-170 290l-170 -290h-101l221 376l-190 324h101z" />
    <glyph glyph-name="uni0426" unicode="&#x426;" horiz-adv-x="697" 
d="M97 700h88v-616h320v616h88v-616h68l-12 -208h-84v124h-468v700z" />
    <glyph glyph-name="uni0427" unicode="&#x427;" horiz-adv-x="652" 
d="M467 327q-40 -30 -85.5 -42.5t-89.5 -12.5q-98 0 -154 53.5t-56 172.5v202h88v-187q0 -45 9.5 -75t28 -48.5t45.5 -26t61 -7.5q44 0 84 20t69 52v272h88v-700h-88v327z" />
    <glyph glyph-name="uni0428" unicode="&#x428;" horiz-adv-x="978" 
d="M445 700h88v-616h260v616h88v-700h-784v700h88v-616h260v616z" />
    <glyph glyph-name="uni0429" unicode="&#x429;" horiz-adv-x="985" 
d="M445 700h88v-616h260v616h88v-616h68l-12 -208h-84v124h-756v700h88v-616h260v616z" />
    <glyph glyph-name="uni042A" unicode="&#x42a;" horiz-adv-x="667" 
d="M18 700h216v-285h161q103 0 160.5 -55t57.5 -152q0 -98 -57.5 -153t-160.5 -55h-249v616h-128v84zM234 84h148q70 0 105 29.5t35 94.5q0 64 -35 93.5t-105 29.5h-148v-247z" />
    <glyph glyph-name="uni042B" unicode="&#x42b;" horiz-adv-x="841" 
d="M97 700h88v-285h161q103 0 160.5 -55t57.5 -152q0 -98 -57.5 -153t-160.5 -55h-249v700zM185 84h148q70 0 105 29.5t35 94.5q0 64 -35 93.5t-105 29.5h-148v-247zM744 708v-708h-84v708h84z" />
    <glyph glyph-name="uni042C" unicode="&#x42c;" horiz-adv-x="618" 
d="M97 700h88v-285h161q103 0 160.5 -55t57.5 -152q0 -98 -57.5 -153t-160.5 -55h-249v700zM185 84h148q70 0 105 29.5t35 94.5q0 64 -35 93.5t-105 29.5h-148v-247z" />
    <glyph glyph-name="uni042D" unicode="&#x42d;" horiz-adv-x="674" 
d="M196 392h330q-8 113 -58.5 172.5t-142.5 59.5q-72 0 -123 -38t-74 -115l-85 25q12 46 38 85t62.5 67t82.5 44t99 16q62 0 115.5 -24t93.5 -70t62.5 -112.5t22.5 -151.5t-22.5 -151.5t-62.5 -112.5t-93.5 -70t-115.5 -24q-53 0 -99 16t-82.5 44t-62.5 67t-38 85l85 25
q23 -77 74 -115t123 -38q92 0 142.5 59.5t58.5 172.5h-330v84z" />
    <glyph glyph-name="uni042E" unicode="&#x42e;" horiz-adv-x="1023" 
d="M654 708q63 0 119.5 -23t100 -68.5t69 -112.5t25.5 -154t-25.5 -154t-69 -112.5t-100 -68.5t-119.5 -23q-59 0 -113 20.5t-96.5 60.5t-70.5 99t-34 136h-155v-308h-88v700h88v-308h155q6 77 34 136t70.5 99t96.5 60.5t113 20.5zM654 624q-47 0 -87.5 -17t-70.5 -51.5
t-47.5 -85.5t-17.5 -120t17.5 -120t47.5 -85.5t70.5 -51.5t87.5 -17q46 0 87 17t71 51.5t47.5 85.5t17.5 120t-17.5 120t-47.5 85.5t-71 51.5t-87 17z" />
    <glyph glyph-name="uni042F" unicode="&#x42f;" horiz-adv-x="641" 
d="M351.018 330h104.994v-330h87.9941v700h-232.985q-45.9971 0 -83.9951 -12.5t-64.9961 -36t-41.9971 -58t-14.999 -78.5q0 -73 38.4971 -119q38.498 -46 107.493 -60l-208.987 -336h103.994zM456.012 616v-202h-146.991q-54.9971 0 -83.9951 24t-28.998 77t28.998 77
t83.9951 24h146.991z" />
    <glyph glyph-name="uni0430" unicode="&#x430;" horiz-adv-x="518" 
d="M142 145q0 -36 21.5 -56.5t61.5 -20.5q24 0 49.5 8t45.5 26t33 47.5t13 72.5v12h-90q-65 0 -99.5 -23t-34.5 -66zM450 0h-66l-14 71q-24 -35 -62.5 -57t-95.5 -22q-32 0 -60 8.5t-49.5 27.5t-34 47.5t-12.5 69.5q0 40 16 71t46 52t72 31.5t94 10.5h82v22q0 58 -32 81
t-78 23q-39 0 -68 -20.5t-37 -58.5l-74 17q11 64 59 101t120 37q42 0 77.5 -11t61.5 -34t40.5 -59t14.5 -86v-322z" />
    <glyph glyph-name="uni0431" unicode="&#x431;" 
d="M54 310q0 106 18.5 180t51.5 120.5t80 68t104 21.5h47q32 0 48.5 10.5t24.5 36.5h55q0 -66 -34 -94.5t-89 -28.5h-56q-36 0 -64.5 -13t-49 -37t-32 -57.5t-13.5 -73.5q25 24 67 46.5t104 22.5q49 0 90 -21t70.5 -57t45.5 -83t16 -99t-16.5 -99t-47.5 -83t-76 -57
t-102 -21q-114 0 -178 80.5t-64 237.5zM140 252q0 -35 10 -68t29.5 -59t48.5 -41.5t68 -15.5t68 15.5t48.5 41.5t29.5 59t10 68t-10 68t-29.5 59t-48.5 41.5t-68 15.5t-68 -15.5t-48.5 -41.5t-29.5 -59t-10 -68z" />
    <glyph glyph-name="uni0432" unicode="&#x432;" horiz-adv-x="508" 
d="M287 504q31 0 57.5 -8.5t46 -24.5t30.5 -39.5t11 -52.5q0 -38 -16.5 -63.5t-39.5 -39.5q32 -17 54.5 -46t22.5 -76q0 -33 -11.5 -61.5t-33 -49t-51.5 -32t-66 -11.5h-199v504h195zM176 76h107q84 0 84 77t-84 77h-107v-154zM176 428v-122h107q31 0 49 16t18 45t-18 45
t-49 16h-107z" />
    <glyph glyph-name="uni0433" unicode="&#x433;" horiz-adv-x="429" 
d="M92 504h319v-76h-235v-428h-84v504z" />
    <glyph glyph-name="uni0434" unicode="&#x434;" horiz-adv-x="575" 
d="M440 0h-310v-114h-74l-13 190h34l70 428h344v-428h34l-11 -190h-74v114zM155 76h252v352h-198z" />
    <glyph glyph-name="uni0435" unicode="&#x435;" horiz-adv-x="560" 
d="M510 234h-370q2 -35 11.5 -65t27 -52.5t43.5 -35.5t60 -13q56 0 87.5 24.5t52.5 71.5l74 -32q-35 -74 -85.5 -107t-128.5 -33q-57 0 -100 21.5t-71.5 57.5t-42.5 83t-14 98t14 98t42.5 83t71.5 57.5t100 21.5q56 0 98.5 -20t71.5 -53t43.5 -76t14.5 -90v-39zM282 436
q-59 0 -92.5 -35.5t-44.5 -90.5h277q-11 54 -45 90t-95 36z" />
    <glyph glyph-name="uni0436" unicode="&#x436;" horiz-adv-x="754" 
d="M419 504v-211l196 211h108l-214 -231l230 -273h-107l-213 253v-253h-84v253l-213 -253h-107l230 273l-214 231h108l196 -211v211h84z" />
    <glyph glyph-name="uni0437" unicode="&#x437;" horiz-adv-x="437" 
d="M130 147q5 -37 29 -58t61 -21q38 0 62 20.5t24 60.5q0 33 -26 58.5t-85 25.5h-13v62h17q93 0 93 75q0 28 -19 49t-56 21t-55 -18t-27 -45l-71 19q12 51 49.5 83.5t102.5 32.5q39 0 67.5 -11t47 -29t28 -41.5t9.5 -47.5q0 -23 -6 -41.5t-16 -32t-21.5 -23.5t-23.5 -16
q38 -14 61.5 -45.5t23.5 -73.5q0 -37 -12.5 -66.5t-35 -50t-52.5 -31.5t-66 -11q-35 0 -64.5 10.5t-52 30t-36.5 46.5t-17 59z" />
    <glyph glyph-name="uni0438" unicode="&#x438;" horiz-adv-x="588" 
d="M176 504v-372l232 372h88v-504h-84v372l-232 -372h-88v504h84z" />
    <glyph glyph-name="uni0439" unicode="&#x439;" horiz-adv-x="588" 
d="M176 504v-372l232 372h88v-504h-84v372l-232 -372h-88v504h84zM405 700q0 -46 -31 -77.5t-80 -31.5q-24 0 -44 8.5t-35 23t-23.5 34.5t-8.5 43h67q0 -20 12 -32.5t32 -12.5t32 12.5t12 32.5h67z" />
    <glyph glyph-name="uni043A" unicode="&#x43a;" horiz-adv-x="511" 
d="M176 504v-211l196 211h108l-214 -231l230 -273h-107l-213 253v-253h-84v504h84z" />
    <glyph glyph-name="uni043B" unicode="&#x43b;" horiz-adv-x="598" 
d="M174 504h332v-504h-84v428h-178l-30 -291q-8 -72 -50 -104.5t-123 -32.5v76q51 0 73 21.5t27 70.5z" />
    <glyph glyph-name="uni043C" unicode="&#x43c;" horiz-adv-x="650" 
d="M194 504l131 -332l131 332h102v-504h-84v352l-121 -306h-56l-121 306v-352h-84v504h102z" />
    <glyph glyph-name="uni043D" unicode="&#x43d;" horiz-adv-x="568" 
d="M476 504v-504h-84v230h-216v-230h-84v504h84v-198h216v198h84z" />
    <glyph glyph-name="uni043E" unicode="&#x43e;" 
d="M54 252q0 51 16.5 98t48 83t76 57.5t101.5 21.5t101.5 -21.5t76 -57.5t48 -83t16.5 -98t-16.5 -98t-48 -83t-76 -57.5t-101.5 -21.5t-101.5 21.5t-76 57.5t-48 83t-16.5 98zM140 252q0 -35 10 -68t29.5 -59t48.5 -41.5t68 -15.5t68 15.5t48.5 41.5t29.5 59t10 68t-10 68
t-29.5 59t-48.5 41.5t-68 15.5t-68 -15.5t-48.5 -41.5t-29.5 -59t-10 -68z" />
    <glyph glyph-name="uni043F" unicode="&#x43f;" horiz-adv-x="567" 
d="M92 504h383v-504h-84v428h-215v-428h-84v504z" />
    <glyph glyph-name="uni0440" unicode="&#x440;" horiz-adv-x="601" 
d="M547 252q0 -57 -14 -104.5t-42.5 -82t-70.5 -54t-97 -19.5q-24 0 -47.5 6.5t-43.5 16.5t-35 22t-21 23v-264h-84v708h84v-62q9 14 24.5 26.5t35 22.5t42 15.5t45.5 5.5q55 0 97 -19.5t70.5 -54t42.5 -82t14 -104.5zM461 252q0 40 -10.5 74t-29.5 58.5t-46 38t-60 13.5
q-35 0 -62 -13.5t-45.5 -38t-28.5 -58.5t-10 -74q0 -41 10 -74.5t28.5 -58t45.5 -38t62 -13.5q33 0 60 13.5t46 38t29.5 58t10.5 74.5z" />
    <glyph glyph-name="uni0441" unicode="&#x441;" horiz-adv-x="538" 
d="M494 131q-31 -71 -82 -105t-129 -34q-58 0 -101 21.5t-71.5 57.5t-42.5 83t-14 98t14 98t42.5 83t71.5 57.5t101 21.5q78 0 129 -34t82 -105l-73 -30q-20 46 -53 69.5t-85 23.5q-37 0 -64 -14.5t-44.5 -39.5t-26 -58.5t-8.5 -71.5t8.5 -71.5t26 -58.5t44.5 -39.5
t64 -14.5q52 0 85 23.5t53 69.5z" />
    <glyph glyph-name="uni0442" unicode="&#x442;" horiz-adv-x="430" 
d="M38 504h354v-76h-135v-428h-84v428h-135v76z" />
    <glyph glyph-name="uni0443" unicode="&#x443;" horiz-adv-x="460" 
d="M448 504l-250 -708h-86l80 225l-177 483h92l128 -364l125 364h88z" />
    <glyph glyph-name="uni0444" unicode="&#x444;" horiz-adv-x="712" 
d="M398 -204h-84v196q-61 0 -109 20.5t-81.5 56t-51.5 82.5t-18 101t18 101t51.5 82.5t81.5 56t109 20.5v188h84v-188q61 0 109 -20.5t81.5 -56t51.5 -82.5t18 -101t-18 -101t-51.5 -82.5t-81.5 -56t-109 -20.5v-196zM398 436v-368h8q39 0 69.5 13.5t52 37.5t33 58t11.5 75
t-11.5 75t-33 58t-52 37.5t-69.5 13.5h-8zM314 436h-8q-39 0 -69.5 -13.5t-52 -37.5t-33 -58t-11.5 -75t11.5 -75t33 -58t52 -37.5t69.5 -13.5h8v368z" />
    <glyph glyph-name="uni0445" unicode="&#x445;" horiz-adv-x="458" 
d="M132 504l97 -159l97 159h98l-147 -238l163 -266h-98l-113 187l-113 -187h-98l163 266l-147 238h98z" />
    <glyph glyph-name="uni0446" unicode="&#x446;" horiz-adv-x="559" 
d="M509 76l-18 -190h-67v114h-332v504h84v-428h215v428h84v-428h34z" />
    <glyph glyph-name="uni0447" unicode="&#x447;" horiz-adv-x="570" 
d="M394 0v232q-33 -38 -72.5 -58t-94.5 -20q-67 0 -104 38.5t-37 112.5v199h84v-184q0 -51 22.5 -71.5t59.5 -20.5q42 0 77 27.5t65 76.5v172h84v-504h-84z" />
    <glyph glyph-name="uni0448" unicode="&#x448;" horiz-adv-x="826" 
d="M371 504h84v-428h195v428h84v-504h-642v504h84v-428h195v428z" />
    <glyph glyph-name="uni0449" unicode="&#x449;" horiz-adv-x="818" 
d="M371 504h84v-428h195v428h84v-428h34l-18 -190h-67v114h-591v504h84v-428h195v428z" />
    <glyph glyph-name="uni044A" unicode="&#x44a;" horiz-adv-x="546" 
d="M40 504h170v-192h113q81 0 124.5 -42.5t43.5 -113.5t-43.5 -113.5t-124.5 -42.5h-197v428h-86v76zM210 236v-160h92q55 0 80 18t25 62q0 43 -25 61.5t-80 18.5h-92z" />
    <glyph glyph-name="uni044B" unicode="&#x44b;" horiz-adv-x="719" 
d="M92 504h84v-192h113q81 0 124.5 -42.5t43.5 -113.5t-43.5 -113.5t-124.5 -42.5h-197v504zM176 236v-160h92q55 0 80 18t25 62q0 43 -25 61.5t-80 18.5h-92zM633 504v-504h-84v504h84z" />
    <glyph glyph-name="uni044C" unicode="&#x44c;" horiz-adv-x="512" 
d="M92 504h84v-192h113q81 0 124.5 -42.5t43.5 -113.5t-43.5 -113.5t-124.5 -42.5h-197v504zM176 236v-160h92q55 0 80 18t25 62q0 43 -25 61.5t-80 18.5h-92z" />
    <glyph glyph-name="uni044D" unicode="&#x44d;" horiz-adv-x="543" 
d="M162 290h239q-4 31 -14.5 58t-28.5 46.5t-44.5 30.5t-60.5 11q-47 0 -83 -24.5t-56 -68.5l-70 37q27 60 81 96t128 36q59 0 103.5 -21.5t74 -57.5t44 -83t14.5 -98t-14.5 -98t-44 -83t-74 -57.5t-103.5 -21.5q-74 0 -128 36t-81 96l70 37q20 -44 56 -68.5t83 -24.5
q34 0 60.5 11t44.5 30.5t28.5 46.5t14.5 58h-239v76z" />
    <glyph glyph-name="uni044E" unicode="&#x44e;" horiz-adv-x="805" 
d="M176 504v-214h93q6 45 24.5 85.5t49.5 71t73 48t93 17.5q57 0 101.5 -21.5t76 -57.5t48 -83t16.5 -98t-16.5 -98t-48 -83t-76 -57.5t-101.5 -21.5q-51 0 -93 17.5t-73 48t-49.5 71t-24.5 85.5h-93v-214h-84v504h84zM353 252q0 -35 10 -68t29.5 -59t48.5 -41.5t68 -15.5
t68 15.5t48.5 41.5t29.5 59t10 68t-10 68t-29.5 59t-48.5 41.5t-68 15.5t-68 -15.5t-48.5 -41.5t-29.5 -59t-10 -68z" />
    <glyph glyph-name="uni044F" unicode="&#x44f;" horiz-adv-x="486" 
d="M58 365q0 32 12 57.5t33 43.5t50.5 28t65.5 10h175v-504h-84v226h-76l-120 -226h-86l130 232q-45 14 -72.5 47.5t-27.5 85.5zM310 302v126h-94q-35 0 -56.5 -15t-21.5 -48t21.5 -48t56.5 -15h94z" />
    <glyph glyph-name="uni0450" unicode="&#x450;" horiz-adv-x="560" 
d="M510 234h-370q2 -35 11.5 -65t27 -52.5t43.5 -35.5t60 -13q56 0 87.5 24.5t52.5 71.5l74 -32q-35 -74 -85.5 -107t-128.5 -33q-57 0 -100 21.5t-71.5 57.5t-42.5 83t-14 98t14 98t42.5 83t71.5 57.5t100 21.5q56 0 98.5 -20t71.5 -53t43.5 -76t14.5 -90v-39zM282 436
q-59 0 -92.5 -35.5t-44.5 -90.5h277q-11 54 -45 90t-95 36zM338 560h-68l-121 144h121z" />
    <glyph glyph-name="uni0451" unicode="&#x451;" horiz-adv-x="560" 
d="M510 234h-370q2 -35 11.5 -65t27 -52.5t43.5 -35.5t60 -13q56 0 87.5 24.5t52.5 71.5l74 -32q-35 -74 -85.5 -107t-128.5 -33q-57 0 -100 21.5t-71.5 57.5t-42.5 83t-14 98t14 98t42.5 83t71.5 57.5t100 21.5q56 0 98.5 -20t71.5 -53t43.5 -76t14.5 -90v-39zM282 436
q-59 0 -92.5 -35.5t-44.5 -90.5h277q-11 54 -45 90t-95 36zM143 651q0 24 16.5 40.5t39.5 16.5q25 0 41 -16.5t16 -40.5t-16 -40t-41 -16q-23 0 -39.5 16t-16.5 40zM309 651q0 24 16.5 40.5t39.5 16.5q25 0 41 -16.5t16 -40.5t-16 -40t-41 -16q-23 0 -39.5 16t-16.5 40z" />
    <glyph glyph-name="uni0452" unicode="&#x452;" horiz-adv-x="585" 
d="M21 640h71v68h84v-68h127v-68h-127v-162q24 46 70 74t105 28q69 0 108.5 -40.5t39.5 -121.5v-376q0 -78 -40.5 -125t-113.5 -61l-22 80q22 6 39 14t29 20.5t18 31.5t6 48v351q0 52 -22.5 77.5t-64.5 25.5q-28 0 -55 -15t-48.5 -43.5t-35 -70t-13.5 -93.5v-214h-84v572
h-71v68z" />
    <glyph glyph-name="uni0453" unicode="&#x453;" horiz-adv-x="429" 
d="M92 504h319v-76h-235v-428h-84v504zM246 704h121l-121 -144h-68z" />
    <glyph glyph-name="uni0454" unicode="&#x454;" horiz-adv-x="543" 
d="M381 214h-239q4 -31 14.5 -58t28.5 -46.5t44 -30.5t61 -11q47 0 83 24.5t56 68.5l70 -37q-27 -60 -81 -96t-128 -36q-59 0 -103.5 21.5t-74 57.5t-44 83t-14.5 98t14.5 98t44 83t74 57.5t103.5 21.5q74 0 128 -36t81 -96l-70 -37q-20 44 -56 68.5t-83 24.5q-35 0 -61 -11
t-44 -30.5t-28.5 -46.5t-14.5 -58h239v-76z" />
    <glyph glyph-name="uni0455" unicode="&#x455;" horiz-adv-x="461" 
d="M236 512q92 0 146 -77l-57 -49q-25 27 -45.5 38.5t-46.5 11.5t-43.5 -16.5t-17.5 -47.5q0 -23 17.5 -37.5t43.5 -27t56 -24.5t56 -28.5t43.5 -41t17.5 -61.5q0 -76 -45 -118t-122 -42q-39 0 -69.5 11.5t-53.5 31t-39 43.5t-26 50l71 39q17 -41 46 -70t71 -29
q38 0 59.5 19.5t21.5 59.5q0 23 -17 37.5t-43 26t-56 23t-56 29t-43 43.5t-17 67q0 29 10.5 54.5t29.5 44t46.5 29.5t61.5 11z" />
    <glyph glyph-name="uni0456" unicode="&#x456;" horiz-adv-x="270" 
d="M177 504v-504h-84v504h84zM72 644q0 27 18 45.5t45 18.5t45 -18.5t18 -45.5q0 -26 -18 -44t-45 -18t-45 18t-18 44z" />
    <glyph glyph-name="uni0457" unicode="&#x457;" horiz-adv-x="270" 
d="M177 504v-504h-84v504h84zM-4 651q0 24 16.5 40.5t39.5 16.5q25 0 41 -16.5t16 -40.5t-16 -40t-41 -16q-23 0 -39.5 16t-16.5 40zM162 651q0 24 16.5 40.5t39.5 16.5q25 0 41 -16.5t16 -40.5t-16 -40t-41 -16q-23 0 -39.5 16t-16.5 40z" />
    <glyph glyph-name="uni0458" unicode="&#x458;" horiz-adv-x="270" 
d="M3 -132q22 6 39 14t29 20.5t18 31.5t6 48v522h84v-530q0 -78 -40.5 -125t-113.5 -61zM72 644q0 27 18 45.5t45 18.5t45 -18.5t18 -45.5q0 -26 -18 -44t-45 -18t-45 18t-18 44z" />
    <glyph glyph-name="uni0459" unicode="&#x459;" horiz-adv-x="792" 
d="M174 504h282v-192h113q81 0 124.5 -42.5t43.5 -113.5t-43.5 -113.5t-124.5 -42.5h-197v428h-128l-30 -291q-8 -72 -50 -104.5t-123 -32.5v76q51 0 73 21.5t27 70.5zM456 236v-160h92q55 0 80 18t25 62q0 43 -25 61.5t-80 18.5h-92z" />
    <glyph glyph-name="uni045A" unicode="&#x45a;" horiz-adv-x="812" 
d="M476 504v-192h113q81 0 124.5 -42.5t43.5 -113.5t-43.5 -113.5t-124.5 -42.5h-197v236h-216v-236h-84v504h84v-192h216v192h84zM476 236v-160h92q55 0 80 18t25 62q0 43 -25 61.5t-80 18.5h-92z" />
    <glyph glyph-name="uni045B" unicode="&#x45b;" horiz-adv-x="585" 
d="M21 640h71v68h84v-68h127v-68h-127v-162q24 46 70 74t105 28q69 0 108.5 -40.5t39.5 -121.5v-350h-84v333q0 52 -22.5 77.5t-64.5 25.5q-28 0 -55 -15t-48.5 -43.5t-35 -70t-13.5 -93.5v-214h-84v572h-71v68z" />
    <glyph glyph-name="uni045C" unicode="&#x45c;" horiz-adv-x="511" 
d="M176 504v-211l196 211h108l-214 -231l230 -273h-107l-213 253v-253h-84v504h84zM286 704h121l-121 -144h-68z" />
    <glyph glyph-name="uni045D" unicode="&#x45d;" horiz-adv-x="588" 
d="M350 560h-68l-121 144h121zM176 504v-372l232 372h88v-504h-84v372l-232 -372h-88v504h84z" />
    <glyph glyph-name="uni045E" unicode="&#x45e;" horiz-adv-x="460" 
d="M448 504l-250 -708h-86l80 225l-177 483h92l128 -364l125 364h88zM346 700q0 -46 -31 -77.5t-80 -31.5q-24 0 -44 8.5t-35 23t-23.5 34.5t-8.5 43h67q0 -20 12 -32.5t32 -12.5t32 12.5t12 32.5h67z" />
    <glyph glyph-name="uni045F" unicode="&#x45f;" horiz-adv-x="570" 
d="M478 0h-151v-114h-84v114h-151v504h84v-428h218v428h84v-504z" />
    <glyph glyph-name="endash" unicode="&#x2013;" horiz-adv-x="561" 
d="M71 354h419v-74h-419v74z" />
    <glyph glyph-name="emdash" unicode="&#x2014;" horiz-adv-x="759" 
d="M71 354h617v-74h-617v74z" />
    <glyph glyph-name="quoteleft" unicode="&#x2018;" horiz-adv-x="299" 
d="M249 503h-64l-127 205h122z" />
    <glyph glyph-name="quoteright" unicode="&#x2019;" horiz-adv-x="299" 
d="M119 708h122l-127 -205h-64z" />
    <glyph glyph-name="quotesinglbase" unicode="&#x201a;" horiz-adv-x="299" 
d="M119 191h122l-127 -205h-64z" />
    <glyph glyph-name="quotedblleft" unicode="&#x201c;" horiz-adv-x="473" 
d="M423 503h-64l-127 205h122zM249 503h-64l-127 205h122z" />
    <glyph glyph-name="quotedblright" unicode="&#x201d;" horiz-adv-x="473" 
d="M119 708h122l-127 -205h-64zM293 708h122l-127 -205h-64z" />
    <glyph glyph-name="quotedblbase" unicode="&#x201e;" horiz-adv-x="473" 
d="M119 191h122l-127 -205h-64zM293 191h122l-127 -205h-64z" />
    <glyph glyph-name="dagger" unicode="&#x2020;" horiz-adv-x="460" 
d="M60 504h130v246h80v-246h130v-80h-130v-474h-80v474h-130v80z" />
    <glyph glyph-name="daggerdbl" unicode="&#x2021;" horiz-adv-x="460" 
d="M60 504h130v246h80v-246h130v-80h-130v-148h130v-80h-130v-246h-80v246h-130v80h130v148h-130v80z" />
    <glyph glyph-name="bullet" unicode="&#x2022;" horiz-adv-x="324" 
d="M85 330q0 32 22.5 54.5t54.5 22.5t54.5 -22.5t22.5 -54.5t-22.5 -54.5t-54.5 -22.5t-54.5 22.5t-22.5 54.5z" />
    <glyph glyph-name="ellipsis" unicode="&#x2026;" horiz-adv-x="836" 
d="M90 59q0 26 18 44.5t45 18.5q26 0 44.5 -18.5t18.5 -44.5q0 -27 -18.5 -45t-44.5 -18q-27 0 -45 18t-18 45zM355 59q0 26 18 44.5t45 18.5q26 0 44.5 -18.5t18.5 -44.5q0 -27 -18.5 -45t-44.5 -18q-27 0 -45 18t-18 45zM620 59q0 26 18 44.5t45 18.5q26 0 44.5 -18.5
t18.5 -44.5q0 -27 -18.5 -45t-44.5 -18q-27 0 -45 18t-18 45z" />
    <glyph glyph-name="perthousand" unicode="&#x2030;" horiz-adv-x="1222" 
d="M58 548q0 33 12 62.5t33.5 51t51 34t63.5 12.5t63.5 -12.5t51 -34t33.5 -51t12 -62.5t-12 -62t-33.5 -50.5t-51 -34t-63.5 -12.5t-63.5 12.5t-51 34t-33.5 50.5t-12 62zM131 548q0 -38 23 -63.5t64 -25.5t64 25.5t23 63.5t-23 64t-64 26t-64 -26t-23 -64zM464 151
q0 33 12 62.5t33.5 51t51 34t63.5 12.5t63.5 -12.5t51 -34t33.5 -51t12 -62.5t-12 -62t-33.5 -50.5t-51 -34t-63.5 -12.5t-63.5 12.5t-51 34t-33.5 50.5t-12 62zM537 151q0 -38 23 -63.5t64 -25.5t64 25.5t23 63.5t-23 64t-64 26t-64 -26t-23 -64zM844 151q0 33 12 62.5
t33.5 51t51 34t63.5 12.5t63.5 -12.5t51 -34t33.5 -51t12 -62.5t-12 -62t-33.5 -50.5t-51 -34t-63.5 -12.5t-63.5 12.5t-51 34t-33.5 50.5t-12 62zM917 151q0 -38 23 -63.5t64 -25.5t64 25.5t23 63.5t-23 64t-64 26t-64 -26t-23 -64zM715 690l-538 -719l-50 40l538 718z" />
    <glyph glyph-name="guilsinglleft" unicode="&#x2039;" horiz-adv-x="381" 
d="M48 341l277 199v-90l-195 -140l195 -140v-90l-277 199v62z" />
    <glyph glyph-name="guilsinglright" unicode="&#x203a;" horiz-adv-x="381" 
d="M333 279l-277 -199v90l195 140l-195 140v90l277 -199v-62z" />
    <glyph glyph-name="fraction" unicode="&#x2044;" horiz-adv-x="608" 
d="M598 690l-538 -719l-50 40l538 718z" />
    <glyph glyph-name="zerosuperior" unicode="&#x2070;" horiz-adv-x="394" 
d="M197 704q72 0 111.5 -55t39.5 -149t-39.5 -149t-111.5 -55t-111.5 55t-39.5 149t39.5 149t111.5 55zM197 644q-37 0 -61 -35.5t-24 -108.5t24 -108.5t61 -35.5t61 35.5t24 108.5t-24 108.5t-61 35.5z" />
    <glyph glyph-name="foursuperior" unicode="&#x2074;" horiz-adv-x="340" 
d="M202 377h-170v26l161 297h72v-263h47v-60h-47v-77h-63v77zM202 437v170l-88 -170h88z" />
    <glyph glyph-name="fivesuperior" unicode="&#x2075;" horiz-adv-x="340" 
d="M110 417q5 -26 21.5 -43.5t44.5 -17.5q34 0 51.5 20.5t17.5 54.5t-17 56t-52 22q-21 0 -39.5 -10t-30.5 -27l-50 11l22 217h208v-60h-153l-13 -98q31 23 68 23q58 0 90.5 -37t32.5 -97q0 -62 -37.5 -98.5t-97.5 -36.5q-50 0 -86 29.5t-42 81.5z" />
    <glyph glyph-name="sixsuperior" unicode="&#x2076;" horiz-adv-x="367" 
d="M199 559q58 0 89.5 -37t31.5 -95q0 -57 -36.5 -94t-96.5 -37q-30 0 -55 10t-42.5 27.5t-27.5 41.5t-10 52q0 42 21 80l113 197h70l-87 -152q5 4 15 5.5t15 1.5zM187 499q-29 0 -49 -19t-20 -53q0 -32 20 -51.5t49 -19.5t48 19.5t19 51.5q0 34 -19 53t-48 19z" />
    <glyph glyph-name="sevensuperior" unicode="&#x2077;" horiz-adv-x="304" 
d="M66 300l139 340h-159v60h240v-25l-154 -375h-66z" />
    <glyph glyph-name="eightsuperior" unicode="&#x2078;" horiz-adv-x="354" 
d="M177 704q53 0 84.5 -31t31.5 -76q0 -26 -14 -48t-33 -33q24 -12 42 -35t18 -61q0 -58 -36.5 -91t-92.5 -33t-92.5 33t-36.5 91q0 38 18 61t42 35q-19 11 -33 33t-14 48q0 45 31.5 76t84.5 31zM177 484q-30 0 -46.5 -18t-16.5 -46q0 -27 16.5 -45.5t46.5 -18.5t46.5 18.5
t16.5 45.5q0 28 -16.5 46t-46.5 18zM177 652q-26 0 -41 -15.5t-15 -39.5t15 -39.5t41 -15.5t41 15.5t15 39.5t-15 39.5t-41 15.5z" />
    <glyph glyph-name="ninesuperior" unicode="&#x2079;" horiz-adv-x="367" 
d="M168 441q-58 0 -89.5 37t-31.5 95q0 57 36.5 94t96.5 37q30 0 55 -10t42.5 -27.5t27.5 -41.5t10 -52q0 -43 -21 -80l-113 -197h-70l87 152q-5 -4 -15 -5.5t-15 -1.5zM180 501q29 0 49 19t20 53q0 32 -20 51.5t-49 19.5t-48 -19.5t-19 -51.5q0 -34 19 -53t48 -19z" />
    <glyph glyph-name="zeroinferior" unicode="&#x2080;" horiz-adv-x="394" 
d="M197 200q72 0 111.5 -55t39.5 -149t-39.5 -149t-111.5 -55t-111.5 55t-39.5 149t39.5 149t111.5 55zM197 140q-37 0 -61 -35.5t-24 -108.5t24 -108.5t61 -35.5t61 35.5t24 108.5t-24 108.5t-61 35.5z" />
    <glyph glyph-name="oneinferior" unicode="&#x2081;" horiz-adv-x="292" 
d="M206 196v-400h-63v309l-86 -40v70l127 61h22z" />
    <glyph glyph-name="twoinferior" unicode="&#x2082;" horiz-adv-x="382" 
d="M67 88q5 48 39 80t84 32q57 0 88.5 -31t31.5 -85q0 -56 -38 -103l-103 -125h151v-60h-258v25l149 184q33 40 33 77q0 58 -54 58q-23 0 -39.5 -18t-19.5 -51z" />
    <glyph glyph-name="threeinferior" unicode="&#x2083;" horiz-adv-x="389" 
d="M126 -80q4 -32 22 -50t47 -18q35 0 50.5 22t15.5 53q0 33 -17 52t-49 19q-11 0 -21.5 -3.5t-15.5 -7.5l-31 41l82 108h-128v60h223v-23l-94 -126q53 0 85 -33t32 -87q0 -59 -36 -97t-96 -38q-56 0 -92 32.5t-41 86.5z" />
    <glyph glyph-name="fourinferior" unicode="&#x2084;" horiz-adv-x="340" 
d="M202 -127h-170v26l161 297h72v-263h47v-60h-47v-77h-63v77zM202 -67v170l-88 -170h88z" />
    <glyph glyph-name="fiveinferior" unicode="&#x2085;" horiz-adv-x="340" 
d="M110 -87q5 -26 21.5 -43.5t44.5 -17.5q34 0 51.5 20.5t17.5 54.5t-17 56t-52 22q-21 0 -39.5 -10t-30.5 -27l-50 11l22 217h208v-60h-153l-13 -98q31 23 68 23q58 0 90.5 -37t32.5 -97q0 -62 -37.5 -98.5t-97.5 -36.5q-50 0 -86 29.5t-42 81.5z" />
    <glyph glyph-name="sixinferior" unicode="&#x2086;" horiz-adv-x="367" 
d="M199 55q58 0 89.5 -37t31.5 -95q0 -57 -36.5 -94t-96.5 -37q-30 0 -55 10t-42.5 27.5t-27.5 41.5t-10 52q0 42 21 80l113 197h70l-87 -152q5 4 15 5.5t15 1.5zM187 -5q-29 0 -49 -19t-20 -53q0 -32 20 -51.5t49 -19.5t48 19.5t19 51.5q0 34 -19 53t-48 19z" />
    <glyph glyph-name="seveninferior" unicode="&#x2087;" horiz-adv-x="304" 
d="M66 -204l139 340h-159v60h240v-25l-154 -375h-66z" />
    <glyph glyph-name="eightinferior" unicode="&#x2088;" horiz-adv-x="354" 
d="M177 200q53 0 84.5 -31t31.5 -76q0 -26 -14 -48t-33 -33q24 -12 42 -35t18 -61q0 -58 -36.5 -91t-92.5 -33t-92.5 33t-36.5 91q0 38 18 61t42 35q-19 11 -33 33t-14 48q0 45 31.5 76t84.5 31zM177 -20q-30 0 -46.5 -18t-16.5 -46q0 -27 16.5 -45.5t46.5 -18.5t46.5 18.5
t16.5 45.5q0 28 -16.5 46t-46.5 18zM177 148q-26 0 -41 -15.5t-15 -39.5t15 -39.5t41 -15.5t41 15.5t15 39.5t-15 39.5t-41 15.5z" />
    <glyph glyph-name="nineinferior" unicode="&#x2089;" horiz-adv-x="367" 
d="M168 -59q-58 0 -89.5 37t-31.5 95q0 57 36.5 94t96.5 37q30 0 55 -10t42.5 -27.5t27.5 -41.5t10 -52q0 -43 -21 -80l-113 -197h-70l87 152q-5 -4 -15 -5.5t-15 -1.5zM180 1q29 0 49 19t20 53q0 32 -20 51.5t-49 19.5t-48 -19.5t-19 -51.5q0 -34 19 -53t48 -19z" />
    <glyph glyph-name="Euro" unicode="&#x20ac;" horiz-adv-x="628" 
d="M72 467h57q20 115 88 178t172 63q70 0 119 -29.5t78 -84.5l-71 -39q-23 38 -52.5 55.5t-73.5 17.5q-68 0 -114 -39t-62 -122h237l-40 -80h-204v-74h244l-40 -80h-197q16 -83 62 -122t114 -39q44 0 73.5 17.5t52.5 55.5l71 -39q-29 -55 -78 -84.5t-119 -29.5
q-104 0 -172 63t-88 178h-97l40 80h50v74h-90z" />
    <glyph glyph-name="trademark" unicode="&#x2122;" horiz-adv-x="822" 
d="M28 700h281v-60h-105v-340h-71v340h-105v60zM456 700l105 -263l105 263h74v-400h-71v253l-87 -216h-42l-87 216v-253h-71v400h74z" />
    <glyph glyph-name="Omega" unicode="&#x2126;" horiz-adv-x="682" 
d="M75 76h129q-30 54 -54 115q-20 52 -37 116.5t-17 132.5q0 58 16.5 107t47.5 85t76.5 56t104.5 20q58 0 104 -20t77 -56t47.5 -85t16.5 -107q0 -68 -17 -132.5t-37 -116.5q-24 -61 -54 -115h129v-76h-220v23q30 62 55 131q21 59 38.5 133.5t17.5 152.5q0 89 -41 140.5
t-116 51.5t-116 -51.5t-41 -140.5q0 -78 17 -152.5t38 -133.5q25 -69 56 -131v-23h-220v76z" />
    <glyph glyph-name="onethird" unicode="&#x2153;" horiz-adv-x="903" 
d="M722 697l-538 -719l-50 40l538 718zM232 700v-400h-63v309l-86 -40v70l127 61h22zM627 124q4 -32 22 -50t47 -18q35 0 50.5 22t15.5 53q0 33 -17 52t-49 19q-11 0 -21.5 -3.5t-15.5 -7.5l-31 41l82 108h-128v60h223v-23l-94 -126q53 0 85 -33t32 -87q0 -59 -36 -97
t-96 -38q-56 0 -92 32.5t-41 86.5z" />
    <glyph glyph-name="twothirds" unicode="&#x2154;" horiz-adv-x="930" 
d="M753 697l-538 -719l-50 40l538 718zM46 592q5 48 39 80t84 32q57 0 88.5 -31t31.5 -85q0 -56 -38 -103l-103 -125h151v-60h-258v25l149 184q33 40 33 77q0 58 -54 58q-23 0 -39.5 -18t-19.5 -51zM654 124q4 -32 22 -50t47 -18q35 0 50.5 22t15.5 53q0 33 -17 52t-49 19
q-11 0 -21.5 -3.5t-15.5 -7.5l-31 41l82 108h-128v60h223v-23l-94 -126q53 0 85 -33t32 -87q0 -59 -36 -97t-96 -38q-56 0 -92 32.5t-41 86.5z" />
    <glyph glyph-name="oneeighth" unicode="&#x215b;" horiz-adv-x="872" 
d="M722 697l-538 -719l-50 40l538 718zM228 700v-400h-63v309l-86 -40v70l127 61h22zM678 404q53 0 84.5 -31t31.5 -76q0 -26 -14 -48t-33 -33q24 -12 42 -35t18 -61q0 -58 -36.5 -91t-92.5 -33t-92.5 33t-36.5 91q0 38 18 61t42 35q-19 11 -33 33t-14 48q0 45 31.5 76
t84.5 31zM678 184q-30 0 -46.5 -18t-16.5 -46q0 -27 16.5 -45.5t46.5 -18.5t46.5 18.5t16.5 45.5q0 28 -16.5 46t-46.5 18zM678 352q-26 0 -41 -15.5t-15 -39.5t15 -39.5t41 -15.5t41 15.5t15 39.5t-15 39.5t-41 15.5z" />
    <glyph glyph-name="threeeighths" unicode="&#x215c;" horiz-adv-x="899" 
d="M749 697l-538 -719l-50 40l538 718zM705 404q53 0 84.5 -31t31.5 -76q0 -26 -14 -48t-33 -33q24 -12 42 -35t18 -61q0 -58 -36.5 -91t-92.5 -33t-92.5 33t-36.5 91q0 38 18 61t42 35q-19 11 -33 33t-14 48q0 45 31.5 76t84.5 31zM705 184q-30 0 -46.5 -18t-16.5 -46
q0 -27 16.5 -45.5t46.5 -18.5t46.5 18.5t16.5 45.5q0 28 -16.5 46t-46.5 18zM705 352q-26 0 -41 -15.5t-15 -39.5t15 -39.5t41 -15.5t41 15.5t15 39.5t-15 39.5t-41 15.5zM125 424q4 -32 22 -50t47 -18q35 0 50.5 22t15.5 53q0 33 -17 52t-49 19q-11 0 -21.5 -3.5
t-15.5 -7.5l-31 41l82 108h-128v60h223v-23l-94 -126q53 0 85 -33t32 -87q0 -59 -36 -97t-96 -38q-56 0 -92 32.5t-41 86.5z" />
    <glyph glyph-name="fiveeighths" unicode="&#x215d;" horiz-adv-x="899" 
d="M749 697l-538 -719l-50 40l538 718zM705 404q53 0 84.5 -31t31.5 -76q0 -26 -14 -48t-33 -33q24 -12 42 -35t18 -61q0 -58 -36.5 -91t-92.5 -33t-92.5 33t-36.5 91q0 38 18 61t42 35q-19 11 -33 33t-14 48q0 45 31.5 76t84.5 31zM705 184q-30 0 -46.5 -18t-16.5 -46
q0 -27 16.5 -45.5t46.5 -18.5t46.5 18.5t16.5 45.5q0 28 -16.5 46t-46.5 18zM705 352q-26 0 -41 -15.5t-15 -39.5t15 -39.5t41 -15.5t41 15.5t15 39.5t-15 39.5t-41 15.5zM112 417q5 -26 21.5 -43.5t44.5 -17.5q34 0 51.5 20.5t17.5 54.5t-17 56t-52 22q-21 0 -39.5 -10
t-30.5 -27l-50 11l22 217h208v-60h-153l-13 -98q31 23 68 23q58 0 90.5 -37t32.5 -97q0 -62 -37.5 -98.5t-97.5 -36.5q-50 0 -86 29.5t-42 81.5z" />
    <glyph glyph-name="seveneighths" unicode="&#x215e;" horiz-adv-x="835" 
d="M685 697l-538 -719l-50 40l538 718zM641 404q53 0 84.5 -31t31.5 -76q0 -26 -14 -48t-33 -33q24 -12 42 -35t18 -61q0 -58 -36.5 -91t-92.5 -33t-92.5 33t-36.5 91q0 38 18 61t42 35q-19 11 -33 33t-14 48q0 45 31.5 76t84.5 31zM641 184q-30 0 -46.5 -18t-16.5 -46
q0 -27 16.5 -45.5t46.5 -18.5t46.5 18.5t16.5 45.5q0 28 -16.5 46t-46.5 18zM641 352q-26 0 -41 -15.5t-15 -39.5t15 -39.5t41 -15.5t41 15.5t15 39.5t-15 39.5t-41 15.5zM82 300l139 340h-159v60h240v-25l-154 -375h-66z" />
    <glyph glyph-name="partialdiff" unicode="&#x2202;" horiz-adv-x="601" 
d="M48 211q0 63 20.5 117.5t58 95.5t89.5 64.5t115 23.5q41 0 72.5 -15t48.5 -35q-8 81 -47.5 125.5t-98.5 44.5q-40 0 -69 -19.5t-49 -64.5l-82 21q24 63 76.5 101t126.5 38q61 0 104.5 -25t71.5 -70.5t41 -110.5t13 -145q0 -66 -16 -131.5t-50 -117.5t-88.5 -84
t-130.5 -32q-46 0 -84 16t-65 45t-42 69.5t-15 88.5zM323 436q-44 0 -79 -20t-59.5 -52.5t-37.5 -73t-13 -81.5q0 -62 32.5 -101.5t92.5 -39.5q44 0 78.5 18.5t58.5 50t37 73t13 86.5q0 64 -30.5 102t-92.5 38z" />
    <glyph glyph-name="Delta" unicode="&#x2206;" horiz-adv-x="668" 
d="M55 20l240 680h78l240 -680v-20h-558v20zM160 76h348l-174 503z" />
    <glyph glyph-name="product" unicode="&#x220f;" horiz-adv-x="552" 
d="M92 700h368v-700h-84v624h-200v-624h-84v700z" />
    <glyph glyph-name="summation" unicode="&#x2211;" horiz-adv-x="550" 
d="M354 360v-20l-169 -264h300v-76h-427v20l212 330l-212 330v20h427v-76h-300z" />
    <glyph glyph-name="minus" unicode="&#x2212;" horiz-adv-x="570" 
d="M67 354h440v-74h-440v74z" />
    <glyph glyph-name="radical" unicode="&#x221a;" horiz-adv-x="572" 
d="M547 708l-217 -708h-66l-102 313h-104v76h153l86 -257l170 576h80z" />
    <glyph glyph-name="infinity" unicode="&#x221e;" horiz-adv-x="880" 
d="M638 168q-51 0 -104 27.5t-94 83.5q-41 -56 -94 -83.5t-104 -27.5q-44 0 -78 14t-57.5 39t-36 60.5t-12.5 77.5t12.5 77.5t36 60.5t57.5 39t78 14q51 0 104 -27.5t94 -83.5q41 56 94 83.5t104 27.5q43 0 77.5 -14t58 -39t36 -60.5t12.5 -77.5t-12.5 -77.5t-36 -60.5
t-58 -39t-77.5 -14zM257 244q33 0 72.5 28.5t68.5 86.5q-29 58 -68.5 86.5t-72.5 28.5q-51 0 -82 -30t-31 -85t31 -85t82 -30zM623 244q51 0 82 30t31 85t-31 85t-82 30q-33 0 -72.5 -28.5t-68.5 -86.5q29 -58 68.5 -86.5t72.5 -28.5z" />
    <glyph glyph-name="integral" unicode="&#x222b;" horiz-adv-x="478" 
d="M208 537q18 93 68.5 132t127.5 39q21 0 39 -4.5t30 -11.5l-31 -74q-11 6 -25.5 10t-28.5 4q-42 0 -64 -23t-32 -72l-112 -578q-9 -47 -27 -79.5t-43.5 -52.5t-57 -29.5t-68.5 -9.5q-21 0 -39 4.5t-30 11.5l31 74q11 -6 25.5 -10t28.5 -4q42 0 64 23t32 72z" />
    <glyph glyph-name="approxequal" unicode="&#x2248;" horiz-adv-x="604" 
d="M68 218q22 40 56 64.5t76 24.5q32 0 56 -8t46 -17t43.5 -17t48.5 -8q26 0 51 12t42 33l49 -51q-22 -41 -56 -64.5t-76 -23.5q-32 0 -56 8t-45.5 17t-43.5 17t-49 8q-26 0 -51 -12t-42 -33zM68 418q22 40 56 64.5t76 24.5q32 0 56 -8t46 -17t43.5 -17t48.5 -8q26 0 51 12
t42 33l49 -51q-22 -41 -56 -64.5t-76 -23.5q-32 0 -56 8t-45.5 17t-43.5 17t-49 8q-26 0 -51 -12t-42 -33z" />
    <glyph glyph-name="notequal" unicode="&#x2260;" horiz-adv-x="559" 
d="M80 430h225l59 102l64 -37l-37 -65h88v-74h-132l-51 -92h183v-74h-225l-59 -102l-64 37l37 65h-88v74h132l51 92h-183v74z" />
    <glyph glyph-name="lessequal" unicode="&#x2264;" horiz-adv-x="557" 
d="M55 74h440v-74h-440v74zM101 446l349 185v-86l-267 -143l267 -143v-86l-349 185v88z" />
    <glyph glyph-name="greaterequal" unicode="&#x2265;" horiz-adv-x="557" 
d="M502 0h-440v74h440v-74zM456 358l-349 -185v86l267 143l-267 143v86l349 -185v-88z" />
    <glyph glyph-name="lozenge" unicode="&#x25ca;" horiz-adv-x="578" 
d="M68 350l180 350h82l180 -350l-180 -350h-82zM426 350l-137 272l-137 -272l137 -272z" />
    <glyph glyph-name="apple" unicode="&#xf8ff;" horiz-adv-x="786" 
d="M689 22q0 -8 -6 -15t-16 -7q-4 0 -7 1l-267 77l-267 -77q-3 -1 -7 -1q-10 0 -16 7t-6 15v595q0 18 16 22l270 78q8 2 10 2t10 -2l270 -78q16 -4 16 -22v-595zM371 669l-230 -67q3 -47 22 -88t49.5 -72.5t71 -51.5t87.5 -24v303zM415 366q46 4 87 24t71.5 51.5t49.5 72.5
t22 88l-230 67v-303zM140 51l231 67v204q-75 6 -135 43.5t-96 97.5v-412zM646 463q-37 -60 -96.5 -97.5t-134.5 -43.5v-204l231 -67v412z" />
    <glyph glyph-name="No" horiz-adv-x="1254" 
d="M739 76h438v-76h-438v76zM716 448q0 51 16.5 98t48 83t76 57.5t101.5 21.5t101.5 -21.5t76 -57.5t48 -83t16.5 -98t-16.5 -98t-48 -83t-76 -57.5t-101.5 -21.5t-101.5 21.5t-76 57.5t-48 83t-16.5 98zM802 448q0 -35 10 -68t29.5 -59t48.5 -41.5t68 -15.5t68 15.5
t48.5 41.5t29.5 59t10 68t-10 68t-29.5 59t-48.5 41.5t-68 15.5t-68 -15.5t-48.5 -41.5t-29.5 -59t-10 -68zM604 700v-700h-103l-316 557v-557h-88v700h103l316 -557v557h88z" />
    <glyph glyph-name="zero.tn" horiz-adv-x="620" 
d="M310 708q61 0 107 -25.5t77 -72t46.5 -112.5t15.5 -148t-15.5 -148t-46.5 -112.5t-77 -72t-107 -25.5t-107 25.5t-77 72t-46.5 112.5t-15.5 148t15.5 148t46.5 112.5t77 72t107 25.5zM310 628q-40 0 -70 -19.5t-49.5 -55.5t-29 -87.5t-9.5 -115.5t9.5 -115.5t29 -87.5
t49.5 -55.5t70 -19.5t70 19.5t49.5 55.5t29 87.5t9.5 115.5t-9.5 115.5t-29 87.5t-49.5 55.5t-70 19.5z" />
    <glyph glyph-name="one.tn" horiz-adv-x="620" 
d="M409 700v-700h-82v574l-129 -75v92l180 109h31z" />
    <glyph glyph-name="two.tn" horiz-adv-x="620" 
d="M98 39l267 342q16 21 27 38.5t18 33t9.5 30t2.5 31.5q0 49 -26 80q-14 16 -34.5 25t-49.5 9q-51 0 -80.5 -33.5t-34.5 -86.5l-84 16q3 39 19 72.5t42.5 58t61.5 39t76 14.5q52 0 89.5 -16.5t62.5 -44.5q44 -50 44 -133q0 -45 -14.5 -81t-41.5 -71l-218 -282h287v-80h-423
v39z" />
    <glyph glyph-name="three.tn" horiz-adv-x="620" 
d="M169 203q9 -63 43.5 -97t95.5 -34t100.5 38t39.5 110t-39.5 110t-100.5 38q-16 0 -31 -2.5t-31 -10.5l-35 47l160 218h-253v80h380v-27l-178 -241q5 2 14 2.5t14 0.5q40 0 74 -15.5t59 -43.5t39 -68t14 -88q0 -50 -16.5 -92t-46.5 -72t-71.5 -47t-91.5 -17
q-44 0 -82.5 14t-68 40t-49 63t-23.5 83z" />
    <glyph glyph-name="four.tn" horiz-adv-x="620" 
d="M375 149h-304v35l296 516h94v-471h87v-80h-87v-149h-86v149zM375 229v339l-190 -339h190z" />
    <glyph glyph-name="five.tn" horiz-adv-x="620" 
d="M179 199q8 -63 41 -95t86 -32q64 0 99 43t35 113t-34.5 113t-99.5 43q-45 0 -80 -22t-61 -56l-53 12l38 382h334v-80h-261l-26 -203q20 20 51 33.5t64 13.5q51 0 90.5 -17.5t67 -49t42 -74.5t14.5 -95t-15.5 -95t-44 -74.5t-69 -49t-91.5 -17.5q-42 0 -78.5 12
t-64.5 35.5t-46 59.5t-23 84z" />
    <glyph glyph-name="six.tn" horiz-adv-x="620" 
d="M310 448q49 0 89.5 -17.5t69.5 -48.5t45.5 -72.5t16.5 -89.5t-16.5 -89.5t-45.5 -72.5t-69.5 -48.5t-89.5 -17.5t-89.5 17.5t-70 48.5t-45.5 72.5t-16 89.5q0 36 9.5 68t26.5 61l207 359h96l-152 -267q8 4 17.5 5.5t16.5 1.5zM310 368q-58 0 -95.5 -39.5t-37.5 -108.5
q0 -32 10 -59.5t27.5 -47t42 -30.5t53.5 -11t53.5 11t42 30.5t27.5 47t10 59.5q0 69 -37.5 108.5t-95.5 39.5z" />
    <glyph glyph-name="seven.tn" horiz-adv-x="620" 
d="M149 0l257 620h-296v80h399v-37l-272 -663h-88z" />
    <glyph glyph-name="eight.tn" horiz-adv-x="620" 
d="M310 708q42 0 77.5 -14.5t61 -40t39.5 -59.5t14 -73q0 -45 -22 -85t-57 -59q46 -21 75 -65.5t29 -110.5q0 -50 -17.5 -88.5t-47.5 -65.5t-69.5 -41t-82.5 -14q-44 0 -83 14t-69 41t-47.5 65.5t-17.5 88.5q0 66 29 110.5t75 65.5q-35 19 -57 59t-22 85q0 39 14 73
t39.5 59.5t61 40t77.5 14.5zM310 330q-56 0 -92.5 -34.5t-36.5 -94.5t36.5 -94.5t92.5 -34.5t92.5 34.5t36.5 94.5t-36.5 94.5t-92.5 34.5zM310 632q-50 0 -79 -31.5t-29 -79.5t29 -79.5t79 -31.5t79 31.5t29 79.5t-29 79.5t-79 31.5z" />
    <glyph glyph-name="nine.tn" horiz-adv-x="620" 
d="M310 252q-49 0 -89.5 17.5t-70 48.5t-45.5 72.5t-16 89.5t16 89.5t45.5 72.5t70 48.5t89.5 17.5t89.5 -17.5t69.5 -48.5t45.5 -72.5t16.5 -89.5q0 -36 -9.5 -68t-26.5 -61l-207 -359h-96l152 267q-8 -4 -17.5 -5.5t-16.5 -1.5zM310 332q58 0 95.5 39.5t37.5 108.5
q0 32 -10 59.5t-27.5 47t-42 30.5t-53.5 11t-53.5 -11t-42 -30.5t-27.5 -47t-10 -59.5q0 -69 37.5 -108.5t95.5 -39.5z" />
    <glyph glyph-name="quotedblleft.alt" horiz-adv-x="473" 
d="M208 684q-26 -21 -45.5 -47.5t-19.5 -54.5q27 -9 38.5 -25.5t11.5 -36.5q0 -26 -17 -43.5t-45 -17.5q-29 0 -47.5 20t-18.5 50q0 27 10 52.5t27.5 48.5t39.5 42.5t46 35.5zM398 684q-26 -21 -45.5 -47.5t-19.5 -54.5q27 -9 38.5 -25.5t11.5 -36.5q0 -26 -17 -43.5
t-45 -17.5q-29 0 -47.5 20t-18.5 50q0 27 10 52.5t27.5 48.5t39.5 42.5t46 35.5z" />
    <glyph glyph-name="quotedblright.alt" horiz-adv-x="473" 
d="M265 483q26 21 45.5 47.5t19.5 54.5q-27 9 -38.5 25.5t-11.5 36.5q0 26 17 43.5t45 17.5q29 0 47.5 -20t18.5 -50q0 -27 -10 -52.5t-27.5 -48.5t-39.5 -42.5t-46 -35.5zM75 483q26 21 45.5 47.5t19.5 54.5q-27 9 -38.5 25.5t-11.5 36.5q0 26 17 43.5t45 17.5
q29 0 47.5 -20t18.5 -50q0 -27 -10 -52.5t-27.5 -48.5t-39.5 -42.5t-46 -35.5z" />
    <glyph glyph-name="quoteleft.alt" horiz-adv-x="283" 
d="M208 684q-26 -21 -45.5 -47.5t-19.5 -54.5q27 -9 38.5 -25.5t11.5 -36.5q0 -26 -17 -43.5t-45 -17.5q-29 0 -47.5 20t-18.5 50q0 27 10 52.5t27.5 48.5t39.5 42.5t46 35.5z" />
    <glyph glyph-name="quoteright.alt" horiz-adv-x="283" 
d="M75 483q26 21 45.5 47.5t19.5 54.5q-27 9 -38.5 25.5t-11.5 36.5q0 26 17 43.5t45 17.5q29 0 47.5 -20t18.5 -50q0 -27 -10 -52.5t-27.5 -48.5t-39.5 -42.5t-46 -35.5z" />
    <glyph glyph-name="quotesinglbase.alt" horiz-adv-x="283" 
d="M75 -76q26 21 45.5 47.5t19.5 54.5q-27 9 -38.5 25.5t-11.5 36.5q0 26 17 43.5t45 17.5q29 0 47.5 -20t18.5 -50q0 -27 -10 -52.5t-27.5 -48.5t-39.5 -42.5t-46 -35.5z" />
    <glyph glyph-name="quotedblbase.alt" horiz-adv-x="473" 
d="M265 -76q26 21 45.5 47.5t19.5 54.5q-27 9 -38.5 25.5t-11.5 36.5q0 26 17 43.5t45 17.5q29 0 47.5 -20t18.5 -50q0 -27 -10 -52.5t-27.5 -48.5t-39.5 -42.5t-46 -35.5zM75 -76q26 21 45.5 47.5t19.5 54.5q-27 9 -38.5 25.5t-11.5 36.5q0 26 17 43.5t45 17.5
q29 0 47.5 -20t18.5 -50q0 -27 -10 -52.5t-27.5 -48.5t-39.5 -42.5t-46 -35.5z" />
    <glyph glyph-name="arrow.l" horiz-adv-x="645" 
d="M45 350l236 236l53 -54l-141 -144h398v-76h-398l141 -144l-53 -54z" />
    <glyph glyph-name="arrow.r" horiz-adv-x="645" 
d="M364 114l-53 54l141 144h-398v76h398l-141 144l53 54l236 -236z" />
    <glyph glyph-name="arrow.u" horiz-adv-x="640" 
d="M556 387l-54 -53l-144 141v-398h-76v398l-144 -141l-54 53l236 236z" />
    <glyph glyph-name="arrow.d" horiz-adv-x="640" 
d="M320 77l-236 236l54 53l144 -141v398h76v-398l144 141l54 -53z" />
    <glyph glyph-name="arrow.ul" horiz-adv-x="640" 
d="M111 556h333v-76h-202l281 -282l-54 -54l-282 281v-202h-76v333z" />
    <glyph glyph-name="arrow.ur" horiz-adv-x="640" 
d="M529 223h-76v202l-282 -281l-54 54l281 282h-202v76h333v-333z" />
    <glyph glyph-name="arrow.dl" horiz-adv-x="640" 
d="M111 477h76v-202l282 281l54 -54l-281 -282h202v-76h-333v333z" />
    <glyph glyph-name="arrow.dr" horiz-adv-x="640" 
d="M529 144h-333v76h202l-281 282l54 54l282 -281v202h76v-333z" />
    <glyph glyph-name="arrow.l.xl" horiz-adv-x="783" 
d="M281 586l53 -54l-141 -144h536v-76h-536l141 -144l-53 -54l-236 236z" />
    <glyph glyph-name="arrow.r.xl" horiz-adv-x="783" 
d="M738 350l-236 -236l-53 54l141 144h-536v76h536l-141 144l53 54z" />
    <glyph glyph-name="arrow.u.xl" horiz-adv-x="640" 
d="M320 692l236 -236l-54 -53l-144 141v-536h-76v536l-144 -141l-54 53z" />
    <glyph glyph-name="arrow.d.xl" horiz-adv-x="640" 
d="M84 244l54 53l144 -141v536h76v-536l144 141l54 -53l-236 -236z" />
    <glyph glyph-name="arrow.ul.xl" horiz-adv-x="739" 
d="M444 596v-76h-202l380 -381l-54 -54l-381 380v-202h-76v333h333z" />
    <glyph glyph-name="arrow.ur.xl" horiz-adv-x="739" 
d="M628 596v-333h-76v202l-381 -380l-54 54l380 381h-202v76h333z" />
    <glyph glyph-name="arrow.dl.xl" horiz-adv-x="739" 
d="M111 85v333h76v-202l381 380l54 -54l-380 -381h202v-76h-333z" />
    <glyph glyph-name="arrow.dr.xl" horiz-adv-x="739" 
d="M295 85v76h202l-380 381l54 54l381 -380v202h76v-333h-333z" />
    <glyph glyph-name="dcaron.alt" horiz-adv-x="705" 
d="M560 581q26 19 42 41.5t16 47.5q-23 8 -34 22.5t-11 31.5q0 23 15 38.5t39 15.5q26 0 41.5 -18t15.5 -44q0 -47 -31.5 -87t-76.5 -69zM54 252q0 57 14 104.5t42.5 82t70 54t97.5 19.5q24 0 47.5 -6.5t43.5 -16.5t35 -22t21 -23v264h84v-708h-84v62q-9 -14 -24.5 -26.5
t-35 -22.5t-42 -15.5t-45.5 -5.5q-56 0 -97.5 19.5t-70 54t-42.5 82t-14 104.5zM140 252q0 -41 10.5 -74.5t29.5 -58t46 -38t60 -13.5q34 0 61.5 13.5t46 38t28.5 58t10 74.5q0 40 -10 74t-28.5 58.5t-46 38t-61.5 13.5q-33 0 -60 -13.5t-46 -38t-29.5 -58.5t-10.5 -74z" />
    <glyph glyph-name="uni0123.alt" horiz-adv-x="507" 
d="M333 759q-26 -19 -42 -41.5t-16 -47.5q23 -8 34 -22.5t11 -31.5q0 -23 -15 -38.5t-39 -15.5q-26 0 -41.5 18t-15.5 44q0 47 31.5 87t76.5 69zM90 342q0 39 13.5 70.5t37.5 53.5t56 34t69 12q25 0 48 -6t43 -17l90 51l38 -69l-68 -38q25 -39 25 -91q0 -39 -13.5 -70.5
t-37.5 -53t-56 -33t-69 -11.5q-50 0 -87 18q-33 -16 -33 -49q0 -42 57 -42h119q71 0 114.5 -35t43.5 -104q0 -47 -17 -80t-46.5 -54t-68 -30.5t-81.5 -9.5q-48 0 -87.5 11t-67.5 32.5t-43.5 52.5t-15.5 70q0 35 13.5 61.5t33.5 43.5q-16 14 -25 33.5t-9 46.5q0 32 16.5 55.5
t44.5 37.5q-17 21 -27 48.5t-10 61.5zM207 29q-10 0 -19.5 0.5t-17.5 1.5q-18 -14 -25.5 -32.5t-7.5 -41.5q0 -42 32.5 -68.5t97.5 -26.5q66 0 96.5 26.5t30.5 65.5q0 42 -24 58.5t-61 16.5h-102zM172 342q0 -48 28 -72t66 -24t66 24t28 72t-28 73t-66 25t-66 -25t-28 -73z
" />
    <glyph glyph-name="lcaron.alt" horiz-adv-x="370" 
d="M225 581q26 19 42 41.5t16 47.5q-23 8 -34 22.5t-11 31.5q0 23 15 38.5t39 15.5q26 0 41.5 -18t15.5 -44q0 -47 -31.5 -87t-76.5 -69zM174 708v-708h-84v708h84z" />
    <glyph glyph-name="napostrophe.alt" horiz-adv-x="584" 
d="M-12 581q26 19 42 41.5t16 47.5q-23 8 -34 22.5t-11 31.5q0 23 15 38.5t39 15.5q26 0 41.5 -18t15.5 -44q0 -47 -31.5 -87t-76.5 -69zM498 0h-84v333q0 52 -22.5 77.5t-64.5 25.5q-28 0 -54 -15.5t-46 -44.5t-32 -71t-12 -94v-211h-84v504h84v-93q28 49 71 75t96 26
q69 0 108.5 -41t39.5 -116v-355z" />
    <glyph glyph-name="tcaron.alt" horiz-adv-x="378" 
d="M267 581q26 19 42 41.5t16 47.5q-23 8 -34 22.5t-11 31.5q0 23 15 38.5t39 15.5q26 0 41.5 -18t15.5 -44q0 -47 -31.5 -87t-76.5 -69zM25 504h87v151l84 53v-204h132v-76h-132v-277q0 -41 17.5 -62t49.5 -21q17 0 30 3.5t27 12.5l20 -73q-18 -11 -39 -15t-43 -4
q-64 0 -105 40t-41 126v270h-87v76z" />
    </font>
</defs>
</svg>
